<ttFont>
    <TTGlyph name="A" xMin="8" yMin="0" xMax="559" yMax="709">
      <contour>
        <pt x="540" y="25" on="0"/>
        <pt x="487" y="0" on="0"/>
        <pt x="449" y="0" on="1"/>
        <pt x="366" y="0" on="0"/>
        <pt x="344" y="124" on="1"/>
        <pt x="309" y="120" on="0"/>
        <pt x="212" y="120" on="0"/>
        <pt x="199" y="123" on="1"/>
        <pt x="186" y="56" on="0"/>
        <pt x="139" y="0" on="0"/>
        <pt x="92" y="0" on="1"/>
        <pt x="69" y="0" on="0"/>
        <pt x="27" y="16" on="0"/>
        <pt x="18" y="24" on="1"/>
        <pt x="8" y="32" on="1"/>
        <pt x="47" y="502" on="0"/>
        <pt x="118" y="600" on="1"/>
        <pt x="144" y="634" on="0"/>
        <pt x="188" y="651" on="0"/>
        <pt x="226" y="651" on="0"/>
        <pt x="236" y="650" on="0"/>
        <pt x="238" y="650" on="1"/>
        <pt x="234" y="670" on="1"/>
        <pt x="237" y="674" on="0"/>
        <pt x="248" y="687" on="0"/>
        <pt x="296" y="709" on="0"/>
        <pt x="328" y="709" on="1"/>
        <pt x="394" y="709" on="0"/>
        <pt x="471" y="610" on="0"/>
        <pt x="532" y="325" on="0"/>
        <pt x="559" y="45" on="1"/>
        <pt x="555" y="40" on="0"/>
      </contour>
      <contour>
        <pt x="216" y="238" on="1"/>
        <pt x="248" y="242" on="0"/>
        <pt x="318" y="242" on="0"/>
        <pt x="323" y="241" on="1"/>
        <pt x="287" y="423" on="0"/>
        <pt x="260" y="549" on="1"/>
        <pt x="235" y="411" on="0"/>
      </contour>
    </TTGlyph>
    <TTGlyph name="AE" xMin="17" yMin="0" xMax="740" yMax="715">
      <contour>
        <pt x="718" y="360" on="1"/>
        <pt x="724" y="311" on="0"/>
        <pt x="724" y="284" on="0"/>
        <pt x="695" y="251" on="0"/>
        <pt x="662" y="251" on="1"/>
        <pt x="524" y="251" on="1"/>
        <pt x="532" y="178" on="0"/>
        <pt x="570" y="166" on="1"/>
        <pt x="579" y="163" on="0"/>
        <pt x="591" y="163" on="1"/>
        <pt x="632" y="163" on="0"/>
        <pt x="712" y="195" on="1"/>
        <pt x="735" y="184" on="0"/>
        <pt x="740" y="138" on="1"/>
        <pt x="740" y="133" on="0"/>
        <pt x="740" y="129" on="1"/>
        <pt x="740" y="87" on="0"/>
        <pt x="649" y="0" on="0"/>
        <pt x="544" y="0" on="1"/>
        <pt x="385" y="0" on="0"/>
        <pt x="332" y="123" on="1"/>
        <pt x="294" y="120" on="0"/>
        <pt x="216" y="120" on="0"/>
        <pt x="201" y="123" on="1"/>
        <pt x="188" y="56" on="0"/>
        <pt x="142" y="0" on="0"/>
        <pt x="94" y="0" on="1"/>
        <pt x="71" y="0" on="0"/>
        <pt x="33" y="16" on="0"/>
        <pt x="25" y="24" on="1"/>
        <pt x="17" y="31" on="1"/>
        <pt x="51" y="431" on="0"/>
        <pt x="102" y="550" on="1"/>
        <pt x="129" y="610" on="0"/>
        <pt x="178" y="649" on="0"/>
        <pt x="215" y="651" on="1"/>
        <pt x="239" y="714" on="0"/>
        <pt x="308" y="714" on="1"/>
        <pt x="313" y="714" on="0"/>
        <pt x="366" y="714" on="0"/>
        <pt x="634" y="695" on="0"/>
        <pt x="728" y="695" on="1"/>
        <pt x="740" y="665" on="0"/>
        <pt x="740" y="534" on="0"/>
        <pt x="707" y="469" on="0"/>
        <pt x="668" y="469" on="1"/>
        <pt x="614" y="469" on="0"/>
        <pt x="527" y="472" on="1"/>
        <pt x="519" y="421" on="0"/>
        <pt x="519" y="364" on="1"/>
        <pt x="519" y="357" on="1"/>
        <pt x="702" y="360" on="0"/>
      </contour>
      <contour>
        <pt x="307" y="242" on="1"/>
        <pt x="307" y="264" on="1"/>
        <pt x="307" y="379" on="0"/>
        <pt x="352" y="474" on="1"/>
        <pt x="281" y="472" on="0"/>
        <pt x="249" y="470" on="1"/>
        <pt x="242" y="427" on="0"/>
        <pt x="218" y="238" on="1"/>
        <pt x="251" y="242" on="0"/>
      </contour>
    </TTGlyph>
    <TTGlyph name="Aacute" xMin="8" yMin="0" xMax="559" yMax="891">
      <contour>
        <pt x="540" y="25" on="0"/>
        <pt x="487" y="0" on="0"/>
        <pt x="449" y="0" on="1"/>
        <pt x="366" y="0" on="0"/>
        <pt x="344" y="124" on="1"/>
        <pt x="309" y="120" on="0"/>
        <pt x="212" y="120" on="0"/>
        <pt x="199" y="123" on="1"/>
        <pt x="186" y="56" on="0"/>
        <pt x="139" y="0" on="0"/>
        <pt x="92" y="0" on="1"/>
        <pt x="69" y="0" on="0"/>
        <pt x="27" y="16" on="0"/>
        <pt x="18" y="24" on="1"/>
        <pt x="8" y="32" on="1"/>
        <pt x="47" y="502" on="0"/>
        <pt x="118" y="600" on="1"/>
        <pt x="144" y="634" on="0"/>
        <pt x="188" y="651" on="0"/>
        <pt x="226" y="651" on="0"/>
        <pt x="236" y="650" on="0"/>
        <pt x="238" y="650" on="1"/>
        <pt x="234" y="670" on="1"/>
        <pt x="237" y="674" on="0"/>
        <pt x="248" y="687" on="0"/>
        <pt x="296" y="709" on="0"/>
        <pt x="328" y="709" on="1"/>
        <pt x="394" y="709" on="0"/>
        <pt x="471" y="610" on="0"/>
        <pt x="532" y="325" on="0"/>
        <pt x="559" y="45" on="1"/>
        <pt x="555" y="40" on="0"/>
      </contour>
      <contour>
        <pt x="216" y="238" on="1"/>
        <pt x="248" y="242" on="0"/>
        <pt x="318" y="242" on="0"/>
        <pt x="323" y="241" on="1"/>
        <pt x="287" y="423" on="0"/>
        <pt x="260" y="549" on="1"/>
        <pt x="235" y="411" on="0"/>
      </contour>
      <contour>
        <pt x="195" y="705" on="1"/>
        <pt x="179" y="725" on="0"/>
        <pt x="179" y="784" on="0"/>
        <pt x="284" y="854" on="0"/>
        <pt x="337" y="872" on="1"/>
        <pt x="390" y="891" on="1"/>
        <pt x="394" y="888" on="0"/>
        <pt x="406" y="878" on="0"/>
        <pt x="427" y="841" on="0"/>
        <pt x="427" y="820" on="1"/>
        <pt x="427" y="785" on="0"/>
        <pt x="311" y="728" on="0"/>
        <pt x="253" y="716" on="1"/>
      </contour>
    </TTGlyph>
    <TTGlyph name="Acircumflex" xMin="8" yMin="0" xMax="559" yMax="851">
      <contour>
        <pt x="540" y="25" on="0"/>
        <pt x="487" y="0" on="0"/>
        <pt x="449" y="0" on="1"/>
        <pt x="366" y="0" on="0"/>
        <pt x="344" y="124" on="1"/>
        <pt x="309" y="120" on="0"/>
        <pt x="212" y="120" on="0"/>
        <pt x="199" y="123" on="1"/>
        <pt x="186" y="56" on="0"/>
        <pt x="139" y="0" on="0"/>
        <pt x="92" y="0" on="1"/>
        <pt x="69" y="0" on="0"/>
        <pt x="27" y="16" on="0"/>
        <pt x="18" y="24" on="1"/>
        <pt x="8" y="32" on="1"/>
        <pt x="47" y="502" on="0"/>
        <pt x="118" y="600" on="1"/>
        <pt x="144" y="634" on="0"/>
        <pt x="188" y="651" on="0"/>
        <pt x="226" y="651" on="0"/>
        <pt x="236" y="650" on="0"/>
        <pt x="238" y="650" on="1"/>
        <pt x="234" y="670" on="1"/>
        <pt x="237" y="674" on="0"/>
        <pt x="248" y="687" on="0"/>
        <pt x="296" y="709" on="0"/>
        <pt x="328" y="709" on="1"/>
        <pt x="394" y="709" on="0"/>
        <pt x="471" y="610" on="0"/>
        <pt x="532" y="325" on="0"/>
        <pt x="559" y="45" on="1"/>
        <pt x="555" y="40" on="0"/>
      </contour>
      <contour>
        <pt x="216" y="238" on="1"/>
        <pt x="248" y="242" on="0"/>
        <pt x="318" y="242" on="0"/>
        <pt x="323" y="241" on="1"/>
        <pt x="287" y="423" on="0"/>
        <pt x="260" y="549" on="1"/>
        <pt x="235" y="411" on="0"/>
      </contour>
      <contour>
        <pt x="138" y="768" on="1"/>
        <pt x="138" y="785" on="0"/>
        <pt x="235" y="851" on="0"/>
        <pt x="275" y="851" on="1"/>
        <pt x="297" y="851" on="0"/>
        <pt x="365" y="818" on="0"/>
        <pt x="388" y="801" on="1"/>
        <pt x="412" y="784" on="1"/>
        <pt x="412" y="766" on="0"/>
        <pt x="407" y="742" on="0"/>
        <pt x="383" y="721" on="0"/>
        <pt x="339" y="721" on="0"/>
        <pt x="295" y="752" on="0"/>
        <pt x="284" y="768" on="1"/>
        <pt x="272" y="784" on="1"/>
        <pt x="193" y="721" on="1"/>
        <pt x="138" y="721" on="0"/>
      </contour>
    </TTGlyph>
    <TTGlyph name="Adieresis" xMin="8" yMin="0" xMax="559" yMax="841">
      <contour>
        <pt x="540" y="25" on="0"/>
        <pt x="487" y="0" on="0"/>
        <pt x="449" y="0" on="1"/>
        <pt x="366" y="0" on="0"/>
        <pt x="344" y="124" on="1"/>
        <pt x="309" y="120" on="0"/>
        <pt x="212" y="120" on="0"/>
        <pt x="199" y="123" on="1"/>
        <pt x="186" y="56" on="0"/>
        <pt x="139" y="0" on="0"/>
        <pt x="92" y="0" on="1"/>
        <pt x="69" y="0" on="0"/>
        <pt x="27" y="16" on="0"/>
        <pt x="18" y="24" on="1"/>
        <pt x="8" y="32" on="1"/>
        <pt x="47" y="502" on="0"/>
        <pt x="118" y="600" on="1"/>
        <pt x="144" y="634" on="0"/>
        <pt x="188" y="651" on="0"/>
        <pt x="226" y="651" on="0"/>
        <pt x="236" y="650" on="0"/>
        <pt x="238" y="650" on="1"/>
        <pt x="234" y="670" on="1"/>
        <pt x="237" y="674" on="0"/>
        <pt x="248" y="687" on="0"/>
        <pt x="296" y="709" on="0"/>
        <pt x="328" y="709" on="1"/>
        <pt x="394" y="709" on="0"/>
        <pt x="471" y="610" on="0"/>
        <pt x="532" y="325" on="0"/>
        <pt x="559" y="45" on="1"/>
        <pt x="555" y="40" on="0"/>
      </contour>
      <contour>
        <pt x="216" y="238" on="1"/>
        <pt x="248" y="242" on="0"/>
        <pt x="318" y="242" on="0"/>
        <pt x="323" y="241" on="1"/>
        <pt x="287" y="423" on="0"/>
        <pt x="260" y="549" on="1"/>
        <pt x="235" y="411" on="0"/>
      </contour>
      <contour>
        <pt x="263" y="830" on="0"/>
        <pt x="263" y="709" on="0"/>
        <pt x="115" y="709" on="0"/>
        <pt x="115" y="830" on="0"/>
      </contour>
      <contour>
        <pt x="364" y="841" on="1"/>
        <pt x="438" y="841" on="0"/>
        <pt x="438" y="720" on="0"/>
        <pt x="290" y="720" on="0"/>
        <pt x="290" y="780" on="1"/>
        <pt x="290" y="813" on="0"/>
        <pt x="327" y="841" on="0"/>
      </contour>
    </TTGlyph>
    <TTGlyph name="Agrave" xMin="8" yMin="0" xMax="559" yMax="911">
      <contour>
        <pt x="540" y="25" on="0"/>
        <pt x="487" y="0" on="0"/>
        <pt x="449" y="0" on="1"/>
        <pt x="366" y="0" on="0"/>
        <pt x="344" y="124" on="1"/>
        <pt x="309" y="120" on="0"/>
        <pt x="212" y="120" on="0"/>
        <pt x="199" y="123" on="1"/>
        <pt x="186" y="56" on="0"/>
        <pt x="139" y="0" on="0"/>
        <pt x="92" y="0" on="1"/>
        <pt x="69" y="0" on="0"/>
        <pt x="27" y="16" on="0"/>
        <pt x="18" y="24" on="1"/>
        <pt x="8" y="32" on="1"/>
        <pt x="47" y="502" on="0"/>
        <pt x="118" y="600" on="1"/>
        <pt x="144" y="634" on="0"/>
        <pt x="188" y="651" on="0"/>
        <pt x="226" y="651" on="0"/>
        <pt x="236" y="650" on="0"/>
        <pt x="238" y="650" on="1"/>
        <pt x="234" y="670" on="1"/>
        <pt x="237" y="674" on="0"/>
        <pt x="248" y="687" on="0"/>
        <pt x="296" y="709" on="0"/>
        <pt x="328" y="709" on="1"/>
        <pt x="394" y="709" on="0"/>
        <pt x="471" y="610" on="0"/>
        <pt x="532" y="325" on="0"/>
        <pt x="559" y="45" on="1"/>
        <pt x="555" y="40" on="0"/>
      </contour>
      <contour>
        <pt x="216" y="238" on="1"/>
        <pt x="248" y="242" on="0"/>
        <pt x="318" y="242" on="0"/>
        <pt x="323" y="241" on="1"/>
        <pt x="287" y="423" on="0"/>
        <pt x="260" y="549" on="1"/>
        <pt x="235" y="411" on="0"/>
      </contour>
      <contour>
        <pt x="190" y="778" on="0"/>
        <pt x="140" y="818" on="0"/>
        <pt x="140" y="861" on="0"/>
        <pt x="158" y="897" on="0"/>
        <pt x="168" y="904" on="1"/>
        <pt x="177" y="911" on="1"/>
        <pt x="186" y="908" on="0"/>
        <pt x="214" y="899" on="0"/>
        <pt x="287" y="868" on="0"/>
        <pt x="342" y="837" on="0"/>
        <pt x="388" y="792" on="0"/>
        <pt x="388" y="776" on="1"/>
        <pt x="388" y="747" on="0"/>
        <pt x="372" y="725" on="1"/>
        <pt x="363" y="727" on="0"/>
        <pt x="331" y="732" on="0"/>
        <pt x="251" y="754" on="0"/>
      </contour>
    </TTGlyph>
    <TTGlyph name="Aring" xMin="8" yMin="0" xMax="559" yMax="851">
      <contour>
        <pt x="404" y="743" on="1"/>
        <pt x="404" y="716" on="0"/>
        <pt x="394" y="693" on="1"/>
        <pt x="433" y="671" on="0"/>
        <pt x="458" y="621" on="1"/>
        <pt x="511" y="512" on="0"/>
        <pt x="559" y="45" on="1"/>
        <pt x="555" y="40" on="0"/>
        <pt x="541" y="25" on="0"/>
        <pt x="489" y="0" on="0"/>
        <pt x="411" y="0" on="0"/>
        <pt x="357" y="55" on="0"/>
        <pt x="345" y="124" on="1"/>
        <pt x="310" y="120" on="0"/>
        <pt x="214" y="120" on="0"/>
        <pt x="200" y="123" on="1"/>
        <pt x="187" y="52" on="0"/>
        <pt x="136" y="0" on="0"/>
        <pt x="86" y="0" on="1"/>
        <pt x="67" y="0" on="0"/>
        <pt x="28" y="16" on="0"/>
        <pt x="18" y="24" on="1"/>
        <pt x="8" y="31" on="1"/>
        <pt x="40" y="416" on="0"/>
        <pt x="90" y="538" on="1"/>
        <pt x="115" y="600" on="0"/>
        <pt x="162" y="646" on="0"/>
        <pt x="196" y="650" on="1"/>
        <pt x="142" y="674" on="0"/>
        <pt x="142" y="743" on="1"/>
        <pt x="142" y="851" on="0"/>
        <pt x="271" y="851" on="1"/>
        <pt x="336" y="851" on="0"/>
        <pt x="404" y="802" on="0"/>
      </contour>
      <contour>
        <pt x="216" y="238" on="1"/>
        <pt x="248" y="242" on="0"/>
        <pt x="318" y="242" on="0"/>
        <pt x="323" y="241" on="1"/>
        <pt x="287" y="423" on="0"/>
        <pt x="260" y="549" on="1"/>
        <pt x="235" y="411" on="0"/>
      </contour>
      <contour>
        <pt x="314" y="710" on="0"/>
        <pt x="314" y="772" on="0"/>
        <pt x="238" y="772" on="0"/>
        <pt x="238" y="710" on="0"/>
      </contour>
    </TTGlyph>
    <TTGlyph name="Atilde" xMin="8" yMin="0" xMax="559" yMax="855">
      <contour>
        <pt x="540" y="25" on="0"/>
        <pt x="487" y="0" on="0"/>
        <pt x="449" y="0" on="1"/>
        <pt x="366" y="0" on="0"/>
        <pt x="344" y="124" on="1"/>
        <pt x="309" y="120" on="0"/>
        <pt x="212" y="120" on="0"/>
        <pt x="199" y="123" on="1"/>
        <pt x="186" y="56" on="0"/>
        <pt x="139" y="0" on="0"/>
        <pt x="92" y="0" on="1"/>
        <pt x="69" y="0" on="0"/>
        <pt x="27" y="16" on="0"/>
        <pt x="18" y="24" on="1"/>
        <pt x="8" y="32" on="1"/>
        <pt x="47" y="502" on="0"/>
        <pt x="118" y="600" on="1"/>
        <pt x="144" y="634" on="0"/>
        <pt x="188" y="651" on="0"/>
        <pt x="226" y="651" on="0"/>
        <pt x="236" y="650" on="0"/>
        <pt x="238" y="650" on="1"/>
        <pt x="234" y="670" on="1"/>
        <pt x="237" y="674" on="0"/>
        <pt x="248" y="687" on="0"/>
        <pt x="296" y="709" on="0"/>
        <pt x="328" y="709" on="1"/>
        <pt x="394" y="709" on="0"/>
        <pt x="471" y="610" on="0"/>
        <pt x="532" y="325" on="0"/>
        <pt x="559" y="45" on="1"/>
        <pt x="555" y="40" on="0"/>
      </contour>
      <contour>
        <pt x="216" y="238" on="1"/>
        <pt x="248" y="242" on="0"/>
        <pt x="318" y="242" on="0"/>
        <pt x="323" y="241" on="1"/>
        <pt x="287" y="423" on="0"/>
        <pt x="260" y="549" on="1"/>
        <pt x="235" y="411" on="0"/>
      </contour>
      <contour>
        <pt x="337" y="721" on="0"/>
        <pt x="235" y="754" on="0"/>
        <pt x="185" y="754" on="0"/>
        <pt x="162" y="733" on="1"/>
        <pt x="133" y="749" on="0"/>
        <pt x="133" y="782" on="1"/>
        <pt x="133" y="855" on="0"/>
        <pt x="210" y="855" on="1"/>
        <pt x="234" y="855" on="0"/>
        <pt x="337" y="822" on="0"/>
        <pt x="384" y="822" on="0"/>
        <pt x="409" y="845" on="1"/>
        <pt x="437" y="824" on="0"/>
        <pt x="437" y="786" on="1"/>
        <pt x="437" y="721" on="0"/>
        <pt x="363" y="721" on="1"/>
      </contour>
    </TTGlyph>
    <TTGlyph name="B" xMin="29" yMin="0" xMax="555" yMax="715">
      <contour>
        <pt x="124" y="709" on="1"/>
        <pt x="158" y="709" on="0"/>
        <pt x="208" y="678" on="0"/>
        <pt x="226" y="634" on="1"/>
        <pt x="271" y="715" on="0"/>
        <pt x="352" y="715" on="1"/>
        <pt x="554" y="715" on="0"/>
        <pt x="554" y="502" on="1"/>
        <pt x="554" y="432" on="0"/>
        <pt x="502" y="330" on="0"/>
        <pt x="460" y="303" on="1"/>
        <pt x="555" y="272" on="0"/>
        <pt x="555" y="188" on="1"/>
        <pt x="555" y="94" on="0"/>
        <pt x="435" y="0" on="0"/>
        <pt x="273" y="0" on="0"/>
        <pt x="213" y="47" on="1"/>
        <pt x="187" y="0" on="0"/>
        <pt x="134" y="0" on="1"/>
        <pt x="108" y="0" on="0"/>
        <pt x="56" y="21" on="0"/>
        <pt x="43" y="32" on="1"/>
        <pt x="30" y="42" on="1"/>
        <pt x="40" y="86" on="0"/>
        <pt x="40" y="246" on="1"/>
        <pt x="40" y="487" on="0"/>
        <pt x="32" y="633" on="1"/>
        <pt x="29" y="676" on="1"/>
        <pt x="59" y="709" on="0"/>
      </contour>
      <contour>
        <pt x="250" y="506" on="1"/>
        <pt x="254" y="446" on="0"/>
        <pt x="254" y="365" on="0"/>
        <pt x="252" y="301" on="1"/>
        <pt x="280" y="316" on="0"/>
        <pt x="334" y="317" on="1"/>
        <pt x="364" y="356" on="0"/>
        <pt x="364" y="401" on="1"/>
        <pt x="364" y="506" on="0"/>
        <pt x="251" y="506" on="1"/>
      </contour>
      <contour>
        <pt x="292" y="234" on="1"/>
        <pt x="250" y="233" on="1"/>
        <pt x="248" y="195" on="0"/>
        <pt x="242" y="145" on="1"/>
        <pt x="274" y="118" on="0"/>
        <pt x="332" y="118" on="0"/>
        <pt x="356" y="145" on="0"/>
        <pt x="356" y="206" on="0"/>
        <pt x="315" y="234" on="0"/>
      </contour>
    </TTGlyph>
    <TTGlyph name="C" xMin="19" yMin="0" xMax="478" yMax="709">
      <contour>
        <pt x="472" y="654" on="1"/>
        <pt x="477" y="607" on="0"/>
        <pt x="477" y="575" on="0"/>
        <pt x="476" y="541" on="0"/>
        <pt x="462" y="506" on="0"/>
        <pt x="450" y="490" on="1"/>
        <pt x="427" y="459" on="0"/>
        <pt x="367" y="459" on="1"/>
        <pt x="326" y="459" on="0"/>
        <pt x="275" y="498" on="0"/>
        <pt x="252" y="535" on="1"/>
        <pt x="231" y="462" on="0"/>
        <pt x="231" y="364" on="1"/>
        <pt x="231" y="244" on="0"/>
        <pt x="290" y="188" on="1"/>
        <pt x="320" y="159" on="0"/>
        <pt x="414" y="159" on="0"/>
        <pt x="474" y="183" on="1"/>
        <pt x="481" y="154" on="0"/>
        <pt x="469" y="93" on="0"/>
        <pt x="443" y="51" on="0"/>
        <pt x="423" y="36" on="1"/>
        <pt x="375" y="0" on="0"/>
        <pt x="284" y="0" on="1"/>
        <pt x="144" y="0" on="0"/>
        <pt x="76" y="94" on="1"/>
        <pt x="51" y="129" on="0"/>
        <pt x="19" y="244" on="0"/>
        <pt x="19" y="318" on="1"/>
        <pt x="19" y="447" on="0"/>
        <pt x="120" y="611" on="0"/>
        <pt x="193" y="647" on="1"/>
        <pt x="203" y="669" on="0"/>
        <pt x="250" y="709" on="0"/>
        <pt x="331" y="709" on="0"/>
        <pt x="435" y="654" on="0"/>
      </contour>
    </TTGlyph>
    <TTGlyph name="Ccedilla" xMin="19" yMin="-187" xMax="478" yMax="709">
      <contour>
        <pt x="474" y="183" on="1"/>
        <pt x="477" y="174" on="0"/>
        <pt x="477" y="132" on="0"/>
        <pt x="470" y="100" on="0"/>
        <pt x="449" y="59" on="0"/>
        <pt x="432" y="44" on="1"/>
        <pt x="392" y="7" on="0"/>
        <pt x="313" y="1" on="1"/>
        <pt x="316" y="-1" on="0"/>
        <pt x="353" y="-15" on="0"/>
        <pt x="364" y="-22" on="0"/>
        <pt x="375" y="-31" on="1"/>
        <pt x="393" y="-46" on="0"/>
        <pt x="393" y="-80" on="1"/>
        <pt x="393" y="-133" on="0"/>
        <pt x="315" y="-187" on="0"/>
        <pt x="259" y="-187" on="1"/>
        <pt x="202" y="-187" on="0"/>
        <pt x="172" y="-171" on="1"/>
        <pt x="162" y="-166" on="1"/>
        <pt x="164" y="-164" on="0"/>
        <pt x="161" y="-147" on="0"/>
        <pt x="161" y="-133" on="0"/>
        <pt x="180" y="-104" on="0"/>
        <pt x="203" y="-104" on="1"/>
        <pt x="267" y="-113" on="1"/>
        <pt x="288" y="-113" on="0"/>
        <pt x="288" y="-90" on="1"/>
        <pt x="288" y="-74" on="0"/>
        <pt x="250" y="-60" on="1"/>
        <pt x="236" y="-55" on="0"/>
        <pt x="212" y="-30" on="0"/>
        <pt x="212" y="-3" on="0"/>
        <pt x="214" y="7" on="1"/>
        <pt x="19" y="49" on="0"/>
        <pt x="19" y="318" on="1"/>
        <pt x="19" y="447" on="0"/>
        <pt x="120" y="611" on="0"/>
        <pt x="193" y="647" on="1"/>
        <pt x="203" y="669" on="0"/>
        <pt x="250" y="709" on="0"/>
        <pt x="331" y="709" on="0"/>
        <pt x="435" y="654" on="0"/>
        <pt x="472" y="654" on="1"/>
        <pt x="477" y="607" on="0"/>
        <pt x="477" y="575" on="0"/>
        <pt x="476" y="541" on="0"/>
        <pt x="462" y="506" on="0"/>
        <pt x="450" y="490" on="1"/>
        <pt x="427" y="459" on="0"/>
        <pt x="367" y="459" on="1"/>
        <pt x="326" y="459" on="0"/>
        <pt x="275" y="498" on="0"/>
        <pt x="252" y="535" on="1"/>
        <pt x="231" y="462" on="0"/>
        <pt x="231" y="364" on="1"/>
        <pt x="231" y="244" on="0"/>
        <pt x="290" y="188" on="1"/>
        <pt x="320" y="159" on="0"/>
        <pt x="414" y="159" on="0"/>
      </contour>
    </TTGlyph>
    <TTGlyph name="D" xMin="29" yMin="0" xMax="585" yMax="715">
      <contour>
        <pt x="29" y="676" on="1"/>
        <pt x="59" y="709" on="0"/>
        <pt x="192" y="709" on="0"/>
        <pt x="220" y="646" on="1"/>
        <pt x="276" y="715" on="0"/>
        <pt x="348" y="715" on="1"/>
        <pt x="459" y="715" on="0"/>
        <pt x="585" y="546" on="0"/>
        <pt x="585" y="207" on="0"/>
        <pt x="431" y="5" on="0"/>
        <pt x="318" y="5" on="1"/>
        <pt x="256" y="5" on="0"/>
        <pt x="210" y="41" on="1"/>
        <pt x="183" y="0" on="0"/>
        <pt x="134" y="0" on="1"/>
        <pt x="108" y="0" on="0"/>
        <pt x="56" y="21" on="0"/>
        <pt x="43" y="32" on="1"/>
        <pt x="30" y="42" on="1"/>
        <pt x="40" y="86" on="0"/>
        <pt x="40" y="246" on="1"/>
        <pt x="40" y="487" on="0"/>
        <pt x="32" y="633" on="1"/>
      </contour>
      <contour>
        <pt x="296" y="117" on="1"/>
        <pt x="337" y="117" on="0"/>
        <pt x="394" y="217" on="0"/>
        <pt x="394" y="313" on="1"/>
        <pt x="394" y="481" on="0"/>
        <pt x="250" y="509" on="1"/>
        <pt x="254" y="469" on="0"/>
        <pt x="254" y="229" on="0"/>
        <pt x="241" y="141" on="1"/>
        <pt x="270" y="117" on="0"/>
      </contour>
    </TTGlyph>
    <TTGlyph name="Delta" xMin="10" yMin="0" xMax="553" yMax="699">
      <contour>
        <pt x="110" y="1" on="1"/>
        <pt x="93" y="0" on="1"/>
        <pt x="59" y="0" on="0"/>
        <pt x="18" y="40" on="0"/>
        <pt x="14" y="60" on="1"/>
        <pt x="10" y="79" on="1"/>
        <pt x="87" y="417" on="0"/>
        <pt x="130" y="591" on="1"/>
        <pt x="157" y="699" on="0"/>
        <pt x="411" y="699" on="0"/>
        <pt x="444" y="565" on="1"/>
        <pt x="450" y="542" on="0"/>
        <pt x="484" y="414" on="0"/>
        <pt x="509" y="315" on="0"/>
        <pt x="523" y="256" on="1"/>
        <pt x="553" y="130" on="0"/>
        <pt x="553" y="90" on="1"/>
        <pt x="553" y="0" on="0"/>
        <pt x="454" y="0" on="1"/>
        <pt x="443" y="0" on="1"/>
        <pt x="111" y="1" on="1"/>
      </contour>
      <contour>
        <pt x="268" y="505" on="1"/>
        <pt x="206" y="128" on="1"/>
        <pt x="246" y="125" on="0"/>
        <pt x="338" y="121" on="1"/>
      </contour>
    </TTGlyph>
    <TTGlyph name="E" xMin="12" yMin="0" xMax="452" yMax="715">
      <contour>
        <pt x="379" y="469" on="1"/>
        <pt x="238" y="472" on="1"/>
        <pt x="231" y="429" on="0"/>
        <pt x="231" y="364" on="1"/>
        <pt x="231" y="357" on="1"/>
        <pt x="411" y="360" on="0"/>
        <pt x="429" y="360" on="1"/>
        <pt x="434" y="335" on="0"/>
        <pt x="434" y="316" on="1"/>
        <pt x="434" y="251" on="0"/>
        <pt x="374" y="251" on="1"/>
        <pt x="235" y="251" on="1"/>
        <pt x="243" y="178" on="0"/>
        <pt x="282" y="166" on="1"/>
        <pt x="290" y="163" on="0"/>
        <pt x="302" y="163" on="1"/>
        <pt x="344" y="163" on="0"/>
        <pt x="424" y="195" on="1"/>
        <pt x="451" y="182" on="0"/>
        <pt x="451" y="87" on="0"/>
        <pt x="360" y="0" on="0"/>
        <pt x="255" y="0" on="1"/>
        <pt x="155" y="0" on="0"/>
        <pt x="91" y="55" on="1"/>
        <pt x="19" y="116" on="0"/>
        <pt x="19" y="264" on="1"/>
        <pt x="19" y="378" on="0"/>
        <pt x="63" y="471" on="1"/>
        <pt x="38" y="469" on="1"/>
        <pt x="12" y="493" on="0"/>
        <pt x="12" y="566" on="1"/>
        <pt x="12" y="714" on="0"/>
        <pt x="114" y="714" on="1"/>
        <pt x="119" y="714" on="0"/>
        <pt x="173" y="714" on="0"/>
        <pt x="346" y="695" on="0"/>
        <pt x="440" y="695" on="1"/>
        <pt x="452" y="665" on="0"/>
        <pt x="452" y="534" on="0"/>
        <pt x="418" y="469" on="0"/>
      </contour>
    </TTGlyph>
    <TTGlyph name="Eacute" xMin="12" yMin="0" xMax="452" yMax="909">
      <contour>
        <pt x="379" y="469" on="1"/>
        <pt x="238" y="472" on="1"/>
        <pt x="231" y="429" on="0"/>
        <pt x="231" y="364" on="1"/>
        <pt x="231" y="357" on="1"/>
        <pt x="411" y="360" on="0"/>
        <pt x="429" y="360" on="1"/>
        <pt x="434" y="335" on="0"/>
        <pt x="434" y="316" on="1"/>
        <pt x="434" y="251" on="0"/>
        <pt x="374" y="251" on="1"/>
        <pt x="235" y="251" on="1"/>
        <pt x="243" y="178" on="0"/>
        <pt x="282" y="166" on="1"/>
        <pt x="290" y="163" on="0"/>
        <pt x="302" y="163" on="1"/>
        <pt x="344" y="163" on="0"/>
        <pt x="424" y="195" on="1"/>
        <pt x="451" y="182" on="0"/>
        <pt x="451" y="87" on="0"/>
        <pt x="360" y="0" on="0"/>
        <pt x="255" y="0" on="1"/>
        <pt x="155" y="0" on="0"/>
        <pt x="91" y="55" on="1"/>
        <pt x="19" y="116" on="0"/>
        <pt x="19" y="264" on="1"/>
        <pt x="19" y="378" on="0"/>
        <pt x="63" y="471" on="1"/>
        <pt x="38" y="469" on="1"/>
        <pt x="12" y="493" on="0"/>
        <pt x="12" y="566" on="1"/>
        <pt x="12" y="714" on="0"/>
        <pt x="114" y="714" on="1"/>
        <pt x="119" y="714" on="0"/>
        <pt x="173" y="714" on="0"/>
        <pt x="346" y="695" on="0"/>
        <pt x="440" y="695" on="1"/>
        <pt x="452" y="665" on="0"/>
        <pt x="452" y="534" on="0"/>
        <pt x="418" y="469" on="0"/>
      </contour>
      <contour>
        <pt x="149" y="723" on="1"/>
        <pt x="133" y="743" on="0"/>
        <pt x="133" y="802" on="0"/>
        <pt x="238" y="872" on="0"/>
        <pt x="291" y="890" on="1"/>
        <pt x="344" y="909" on="1"/>
        <pt x="348" y="906" on="0"/>
        <pt x="360" y="896" on="0"/>
        <pt x="381" y="859" on="0"/>
        <pt x="381" y="838" on="1"/>
        <pt x="381" y="803" on="0"/>
        <pt x="265" y="746" on="0"/>
        <pt x="207" y="734" on="1"/>
      </contour>
    </TTGlyph>
    <TTGlyph name="Ecircumflex" xMin="12" yMin="0" xMax="452" yMax="858">
      <contour>
        <pt x="379" y="469" on="1"/>
        <pt x="238" y="472" on="1"/>
        <pt x="231" y="429" on="0"/>
        <pt x="231" y="364" on="1"/>
        <pt x="231" y="357" on="1"/>
        <pt x="411" y="360" on="0"/>
        <pt x="429" y="360" on="1"/>
        <pt x="434" y="335" on="0"/>
        <pt x="434" y="316" on="1"/>
        <pt x="434" y="251" on="0"/>
        <pt x="374" y="251" on="1"/>
        <pt x="235" y="251" on="1"/>
        <pt x="243" y="178" on="0"/>
        <pt x="282" y="166" on="1"/>
        <pt x="290" y="163" on="0"/>
        <pt x="302" y="163" on="1"/>
        <pt x="344" y="163" on="0"/>
        <pt x="424" y="195" on="1"/>
        <pt x="451" y="182" on="0"/>
        <pt x="451" y="87" on="0"/>
        <pt x="360" y="0" on="0"/>
        <pt x="255" y="0" on="1"/>
        <pt x="155" y="0" on="0"/>
        <pt x="91" y="55" on="1"/>
        <pt x="19" y="116" on="0"/>
        <pt x="19" y="264" on="1"/>
        <pt x="19" y="378" on="0"/>
        <pt x="63" y="471" on="1"/>
        <pt x="38" y="469" on="1"/>
        <pt x="12" y="493" on="0"/>
        <pt x="12" y="566" on="1"/>
        <pt x="12" y="714" on="0"/>
        <pt x="114" y="714" on="1"/>
        <pt x="119" y="714" on="0"/>
        <pt x="173" y="714" on="0"/>
        <pt x="346" y="695" on="0"/>
        <pt x="440" y="695" on="1"/>
        <pt x="452" y="665" on="0"/>
        <pt x="452" y="534" on="0"/>
        <pt x="418" y="469" on="0"/>
      </contour>
      <contour>
        <pt x="92" y="774" on="1"/>
        <pt x="92" y="792" on="0"/>
        <pt x="189" y="858" on="0"/>
        <pt x="229" y="858" on="1"/>
        <pt x="251" y="858" on="0"/>
        <pt x="319" y="824" on="0"/>
        <pt x="342" y="808" on="1"/>
        <pt x="366" y="791" on="1"/>
        <pt x="366" y="773" on="0"/>
        <pt x="361" y="749" on="0"/>
        <pt x="337" y="728" on="0"/>
        <pt x="293" y="728" on="0"/>
        <pt x="249" y="760" on="0"/>
        <pt x="238" y="776" on="1"/>
        <pt x="226" y="791" on="1"/>
        <pt x="147" y="728" on="1"/>
        <pt x="92" y="728" on="0"/>
      </contour>
    </TTGlyph>
    <TTGlyph name="Edieresis" xMin="12" yMin="0" xMax="452" yMax="856">
      <contour>
        <pt x="379" y="469" on="1"/>
        <pt x="238" y="472" on="1"/>
        <pt x="231" y="429" on="0"/>
        <pt x="231" y="364" on="1"/>
        <pt x="231" y="357" on="1"/>
        <pt x="411" y="360" on="0"/>
        <pt x="429" y="360" on="1"/>
        <pt x="434" y="335" on="0"/>
        <pt x="434" y="316" on="1"/>
        <pt x="434" y="251" on="0"/>
        <pt x="374" y="251" on="1"/>
        <pt x="235" y="251" on="1"/>
        <pt x="243" y="178" on="0"/>
        <pt x="282" y="166" on="1"/>
        <pt x="290" y="163" on="0"/>
        <pt x="302" y="163" on="1"/>
        <pt x="344" y="163" on="0"/>
        <pt x="424" y="195" on="1"/>
        <pt x="451" y="182" on="0"/>
        <pt x="451" y="87" on="0"/>
        <pt x="360" y="0" on="0"/>
        <pt x="255" y="0" on="1"/>
        <pt x="155" y="0" on="0"/>
        <pt x="91" y="55" on="1"/>
        <pt x="19" y="116" on="0"/>
        <pt x="19" y="264" on="1"/>
        <pt x="19" y="378" on="0"/>
        <pt x="63" y="471" on="1"/>
        <pt x="38" y="469" on="1"/>
        <pt x="12" y="493" on="0"/>
        <pt x="12" y="566" on="1"/>
        <pt x="12" y="714" on="0"/>
        <pt x="114" y="714" on="1"/>
        <pt x="119" y="714" on="0"/>
        <pt x="173" y="714" on="0"/>
        <pt x="346" y="695" on="0"/>
        <pt x="440" y="695" on="1"/>
        <pt x="452" y="665" on="0"/>
        <pt x="452" y="534" on="0"/>
        <pt x="418" y="469" on="0"/>
      </contour>
      <contour>
        <pt x="236" y="845" on="0"/>
        <pt x="236" y="724" on="0"/>
        <pt x="88" y="724" on="0"/>
        <pt x="88" y="845" on="0"/>
      </contour>
      <contour>
        <pt x="337" y="856" on="1"/>
        <pt x="411" y="856" on="0"/>
        <pt x="411" y="735" on="0"/>
        <pt x="263" y="735" on="0"/>
        <pt x="263" y="795" on="1"/>
        <pt x="263" y="828" on="0"/>
        <pt x="300" y="856" on="0"/>
      </contour>
    </TTGlyph>
    <TTGlyph name="Egrave" xMin="12" yMin="0" xMax="452" yMax="904">
      <contour>
        <pt x="379" y="469" on="1"/>
        <pt x="238" y="472" on="1"/>
        <pt x="231" y="429" on="0"/>
        <pt x="231" y="364" on="1"/>
        <pt x="231" y="357" on="1"/>
        <pt x="411" y="360" on="0"/>
        <pt x="429" y="360" on="1"/>
        <pt x="434" y="335" on="0"/>
        <pt x="434" y="316" on="1"/>
        <pt x="434" y="251" on="0"/>
        <pt x="374" y="251" on="1"/>
        <pt x="235" y="251" on="1"/>
        <pt x="243" y="178" on="0"/>
        <pt x="282" y="166" on="1"/>
        <pt x="290" y="163" on="0"/>
        <pt x="302" y="163" on="1"/>
        <pt x="344" y="163" on="0"/>
        <pt x="424" y="195" on="1"/>
        <pt x="451" y="182" on="0"/>
        <pt x="451" y="87" on="0"/>
        <pt x="360" y="0" on="0"/>
        <pt x="255" y="0" on="1"/>
        <pt x="155" y="0" on="0"/>
        <pt x="91" y="55" on="1"/>
        <pt x="19" y="116" on="0"/>
        <pt x="19" y="264" on="1"/>
        <pt x="19" y="378" on="0"/>
        <pt x="63" y="471" on="1"/>
        <pt x="38" y="469" on="1"/>
        <pt x="12" y="493" on="0"/>
        <pt x="12" y="566" on="1"/>
        <pt x="12" y="714" on="0"/>
        <pt x="114" y="714" on="1"/>
        <pt x="119" y="714" on="0"/>
        <pt x="173" y="714" on="0"/>
        <pt x="346" y="695" on="0"/>
        <pt x="440" y="695" on="1"/>
        <pt x="452" y="665" on="0"/>
        <pt x="452" y="534" on="0"/>
        <pt x="418" y="469" on="0"/>
      </contour>
      <contour>
        <pt x="149" y="771" on="0"/>
        <pt x="99" y="811" on="0"/>
        <pt x="99" y="854" on="0"/>
        <pt x="118" y="890" on="0"/>
        <pt x="127" y="897" on="1"/>
        <pt x="136" y="904" on="1"/>
        <pt x="145" y="901" on="0"/>
        <pt x="173" y="892" on="0"/>
        <pt x="246" y="861" on="0"/>
        <pt x="301" y="830" on="0"/>
        <pt x="347" y="785" on="0"/>
        <pt x="347" y="769" on="1"/>
        <pt x="347" y="742" on="0"/>
        <pt x="331" y="718" on="1"/>
        <pt x="322" y="720" on="0"/>
        <pt x="290" y="725" on="0"/>
        <pt x="210" y="747" on="0"/>
      </contour>
    </TTGlyph>
    <TTGlyph name="Eth" xMin="-5" yMin="0" xMax="586" yMax="715">
      <contour>
        <pt x="29" y="676" on="1"/>
        <pt x="60" y="709" on="0"/>
        <pt x="187" y="709" on="0"/>
        <pt x="218" y="652" on="1"/>
        <pt x="260" y="715" on="0"/>
        <pt x="348" y="715" on="1"/>
        <pt x="459" y="715" on="0"/>
        <pt x="586" y="546" on="0"/>
        <pt x="586" y="207" on="0"/>
        <pt x="432" y="5" on="0"/>
        <pt x="319" y="5" on="1"/>
        <pt x="257" y="5" on="0"/>
        <pt x="210" y="41" on="1"/>
        <pt x="183" y="0" on="0"/>
        <pt x="134" y="0" on="1"/>
        <pt x="108" y="0" on="0"/>
        <pt x="56" y="21" on="0"/>
        <pt x="43" y="32" on="1"/>
        <pt x="30" y="42" on="1"/>
        <pt x="39" y="79" on="0"/>
        <pt x="41" y="254" on="1"/>
        <pt x="16" y="260" on="0"/>
        <pt x="-5" y="290" on="0"/>
        <pt x="-5" y="311" on="1"/>
        <pt x="-5" y="340" on="0"/>
        <pt x="6" y="369" on="1"/>
        <pt x="11" y="370" on="0"/>
        <pt x="41" y="371" on="1"/>
        <pt x="39" y="536" on="0"/>
        <pt x="32" y="641" on="1"/>
      </contour>
      <contour>
        <pt x="308" y="117" on="1"/>
        <pt x="347" y="117" on="0"/>
        <pt x="395" y="226" on="0"/>
        <pt x="395" y="442" on="0"/>
        <pt x="301" y="563" on="0"/>
        <pt x="244" y="563" on="1"/>
        <pt x="255" y="500" on="0"/>
        <pt x="255" y="406" on="1"/>
        <pt x="255" y="373" on="1"/>
        <pt x="310" y="373" on="0"/>
        <pt x="357" y="338" on="0"/>
        <pt x="357" y="302" on="1"/>
        <pt x="352" y="270" on="1"/>
        <pt x="325" y="262" on="0"/>
        <pt x="252" y="256" on="1"/>
        <pt x="249" y="192" on="0"/>
        <pt x="242" y="146" on="1"/>
        <pt x="278" y="117" on="0"/>
      </contour>
    </TTGlyph>
    <TTGlyph name="Euro" xMin="20" yMin="0" xMax="440" yMax="535">
      <contour>
        <pt x="47" y="258" on="0"/>
        <pt x="20" y="273" on="0"/>
        <pt x="20" y="306" on="0"/>
        <pt x="32" y="318" on="1"/>
        <pt x="101" y="318" on="1"/>
        <pt x="127" y="439" on="0"/>
        <pt x="225" y="488" on="1"/>
        <pt x="247" y="535" on="0"/>
        <pt x="298" y="535" on="1"/>
        <pt x="330" y="535" on="0"/>
        <pt x="408" y="494" on="0"/>
        <pt x="436" y="494" on="1"/>
        <pt x="439" y="441" on="0"/>
        <pt x="439" y="393" on="0"/>
        <pt x="398" y="347" on="0"/>
        <pt x="304" y="347" on="0"/>
        <pt x="269" y="405" on="1"/>
        <pt x="261" y="378" on="0"/>
        <pt x="254" y="318" on="1"/>
        <pt x="344" y="318" on="1"/>
        <pt x="409" y="318" on="0"/>
        <pt x="409" y="283" on="1"/>
        <pt x="404" y="265" on="1"/>
        <pt x="351" y="261" on="0"/>
        <pt x="253" y="259" on="1"/>
        <pt x="255" y="233" on="1"/>
        <pt x="344" y="233" on="1"/>
        <pt x="409" y="233" on="0"/>
        <pt x="409" y="198" on="1"/>
        <pt x="404" y="180" on="1"/>
        <pt x="357" y="177" on="0"/>
        <pt x="272" y="175" on="1"/>
        <pt x="300" y="121" on="0"/>
        <pt x="359" y="121" on="1"/>
        <pt x="393" y="121" on="0"/>
        <pt x="437" y="139" on="1"/>
        <pt x="440" y="124" on="1"/>
        <pt x="440" y="122" on="0"/>
        <pt x="440" y="108" on="0"/>
        <pt x="433" y="67" on="0"/>
        <pt x="408" y="30" on="0"/>
        <pt x="343" y="0" on="0"/>
        <pt x="294" y="0" on="1"/>
        <pt x="126" y="0" on="0"/>
        <pt x="98" y="173" on="1"/>
        <pt x="81" y="173" on="1"/>
        <pt x="47" y="173" on="0"/>
        <pt x="20" y="188" on="0"/>
        <pt x="20" y="223" on="0"/>
        <pt x="32" y="233" on="1"/>
        <pt x="93" y="233" on="1"/>
        <pt x="93" y="258" on="1"/>
        <pt x="81" y="258" on="1"/>
      </contour>
    </TTGlyph>
    <TTGlyph name="F" xMin="25" yMin="0" xMax="465" yMax="706">
      <contour>
        <pt x="440" y="329" on="1"/>
        <pt x="446" y="276" on="0"/>
        <pt x="446" y="236" on="0"/>
        <pt x="418" y="188" on="0"/>
        <pt x="385" y="188" on="1"/>
        <pt x="265" y="188" on="1"/>
        <pt x="268" y="101" on="0"/>
        <pt x="276" y="56" on="1"/>
        <pt x="258" y="21" on="0"/>
        <pt x="196" y="6" on="1"/>
        <pt x="171" y="0" on="0"/>
        <pt x="102" y="0" on="0"/>
        <pt x="47" y="49" on="0"/>
        <pt x="49" y="78" on="1"/>
        <pt x="49" y="236" on="0"/>
        <pt x="63" y="483" on="1"/>
        <pt x="41" y="487" on="0"/>
        <pt x="38" y="489" on="1"/>
        <pt x="25" y="522" on="0"/>
        <pt x="25" y="633" on="0"/>
        <pt x="85" y="705" on="0"/>
        <pt x="139" y="705" on="1"/>
        <pt x="145" y="705" on="0"/>
        <pt x="175" y="705" on="0"/>
        <pt x="355" y="695" on="0"/>
        <pt x="454" y="695" on="1"/>
        <pt x="465" y="665" on="0"/>
        <pt x="465" y="533" on="0"/>
        <pt x="415" y="459" on="0"/>
        <pt x="301" y="459" on="0"/>
        <pt x="261" y="461" on="1"/>
        <pt x="261" y="326" on="1"/>
        <pt x="353" y="329" on="0"/>
      </contour>
    </TTGlyph>
    <TTGlyph name="G" xMin="19" yMin="0" xMax="492" yMax="709">
      <contour>
        <pt x="472" y="654" on="1"/>
        <pt x="477" y="607" on="0"/>
        <pt x="477" y="575" on="0"/>
        <pt x="476" y="541" on="0"/>
        <pt x="462" y="506" on="0"/>
        <pt x="450" y="490" on="1"/>
        <pt x="427" y="459" on="0"/>
        <pt x="367" y="459" on="1"/>
        <pt x="326" y="459" on="0"/>
        <pt x="275" y="498" on="0"/>
        <pt x="252" y="535" on="1"/>
        <pt x="231" y="462" on="0"/>
        <pt x="231" y="316" on="0"/>
        <pt x="238" y="280" on="1"/>
        <pt x="257" y="174" on="0"/>
        <pt x="331" y="174" on="1"/>
        <pt x="348" y="174" on="0"/>
        <pt x="367" y="179" on="1"/>
        <pt x="348" y="294" on="1"/>
        <pt x="350" y="299" on="0"/>
        <pt x="359" y="312" on="0"/>
        <pt x="403" y="335" on="0"/>
        <pt x="434" y="335" on="1"/>
        <pt x="492" y="335" on="0"/>
        <pt x="492" y="282" on="1"/>
        <pt x="481" y="100" on="1"/>
        <pt x="477" y="26" on="0"/>
        <pt x="455" y="8" on="1"/>
        <pt x="430" y="-14" on="0"/>
        <pt x="397" y="1" on="1"/>
        <pt x="389" y="50" on="1"/>
        <pt x="339" y="0" on="0"/>
        <pt x="251" y="0" on="1"/>
        <pt x="166" y="0" on="0"/>
        <pt x="98" y="62" on="1"/>
        <pt x="62" y="95" on="0"/>
        <pt x="19" y="227" on="0"/>
        <pt x="19" y="318" on="1"/>
        <pt x="19" y="447" on="0"/>
        <pt x="120" y="611" on="0"/>
        <pt x="193" y="647" on="1"/>
        <pt x="203" y="669" on="0"/>
        <pt x="250" y="709" on="0"/>
        <pt x="331" y="709" on="0"/>
        <pt x="435" y="654" on="0"/>
      </contour>
    </TTGlyph>
    <TTGlyph name="H" xMin="34" yMin="1" xMax="584" yMax="717">
      <contour>
        <pt x="380" y="689" on="1"/>
        <pt x="432" y="717" on="0"/>
        <pt x="540" y="717" on="0"/>
        <pt x="584" y="662" on="0"/>
        <pt x="584" y="581" on="1"/>
        <pt x="584" y="543" on="0"/>
        <pt x="551" y="75" on="0"/>
        <pt x="551" y="32" on="1"/>
        <pt x="508" y="1" on="0"/>
        <pt x="382" y="1" on="0"/>
        <pt x="381" y="53" on="1"/>
        <pt x="383" y="112" on="0"/>
        <pt x="385" y="192" on="1"/>
        <pt x="242" y="192" on="1"/>
        <pt x="241" y="141" on="0"/>
        <pt x="241" y="24" on="1"/>
        <pt x="207" y="1" on="0"/>
        <pt x="137" y="1" on="1"/>
        <pt x="106" y="1" on="0"/>
        <pt x="68" y="33" on="0"/>
        <pt x="66" y="61" on="1"/>
        <pt x="34" y="665" on="1"/>
        <pt x="107" y="709" on="0"/>
        <pt x="212" y="709" on="0"/>
        <pt x="253" y="651" on="0"/>
        <pt x="253" y="569" on="1"/>
        <pt x="253" y="548" on="0"/>
        <pt x="245" y="340" on="0"/>
        <pt x="244" y="301" on="1"/>
        <pt x="270" y="311" on="0"/>
        <pt x="310" y="313" on="0"/>
        <pt x="387" y="315" on="1"/>
        <pt x="387" y="556" on="0"/>
        <pt x="382" y="651" on="1"/>
      </contour>
    </TTGlyph>
    <TTGlyph name="I" xMin="15" yMin="0" xMax="313" yMax="717">
      <contour>
        <pt x="74" y="465" on="1"/>
        <pt x="15" y="465" on="0"/>
        <pt x="15" y="577" on="1"/>
        <pt x="15" y="608" on="0"/>
        <pt x="22" y="639" on="1"/>
        <pt x="33" y="697" on="1"/>
        <pt x="150" y="717" on="0"/>
        <pt x="230" y="717" on="1"/>
        <pt x="266" y="717" on="0"/>
        <pt x="307" y="667" on="0"/>
        <pt x="313" y="609" on="0"/>
        <pt x="313" y="591" on="1"/>
        <pt x="313" y="539" on="0"/>
        <pt x="305" y="500" on="1"/>
        <pt x="300" y="475" on="1"/>
        <pt x="276" y="475" on="0"/>
        <pt x="265" y="474" on="1"/>
        <pt x="246" y="152" on="1"/>
        <pt x="273" y="151" on="0"/>
        <pt x="298" y="121" on="0"/>
        <pt x="298" y="102" on="1"/>
        <pt x="298" y="58" on="0"/>
        <pt x="282" y="20" on="1"/>
        <pt x="275" y="5" on="1"/>
        <pt x="194" y="0" on="0"/>
        <pt x="103" y="0" on="1"/>
        <pt x="76" y="0" on="0"/>
        <pt x="43" y="28" on="0"/>
        <pt x="36" y="66" on="0"/>
        <pt x="36" y="76" on="1"/>
        <pt x="36" y="106" on="0"/>
        <pt x="40" y="122" on="1"/>
        <pt x="44" y="136" on="1"/>
        <pt x="84" y="141" on="1"/>
      </contour>
    </TTGlyph>
    <TTGlyph name="Iacute" xMin="15" yMin="0" xMax="313" yMax="914">
      <contour>
        <pt x="74" y="465" on="1"/>
        <pt x="15" y="465" on="0"/>
        <pt x="15" y="577" on="1"/>
        <pt x="15" y="608" on="0"/>
        <pt x="22" y="639" on="1"/>
        <pt x="33" y="697" on="1"/>
        <pt x="150" y="717" on="0"/>
        <pt x="230" y="717" on="1"/>
        <pt x="266" y="717" on="0"/>
        <pt x="307" y="667" on="0"/>
        <pt x="313" y="609" on="0"/>
        <pt x="313" y="591" on="1"/>
        <pt x="313" y="539" on="0"/>
        <pt x="305" y="500" on="1"/>
        <pt x="300" y="475" on="1"/>
        <pt x="276" y="475" on="0"/>
        <pt x="265" y="474" on="1"/>
        <pt x="246" y="152" on="1"/>
        <pt x="273" y="151" on="0"/>
        <pt x="298" y="121" on="0"/>
        <pt x="298" y="102" on="1"/>
        <pt x="298" y="58" on="0"/>
        <pt x="282" y="20" on="1"/>
        <pt x="275" y="5" on="1"/>
        <pt x="194" y="0" on="0"/>
        <pt x="103" y="0" on="1"/>
        <pt x="76" y="0" on="0"/>
        <pt x="43" y="28" on="0"/>
        <pt x="36" y="66" on="0"/>
        <pt x="36" y="76" on="1"/>
        <pt x="36" y="106" on="0"/>
        <pt x="40" y="122" on="1"/>
        <pt x="44" y="136" on="1"/>
        <pt x="84" y="141" on="1"/>
      </contour>
      <contour>
        <pt x="58" y="728" on="1"/>
        <pt x="42" y="748" on="0"/>
        <pt x="42" y="807" on="0"/>
        <pt x="148" y="877" on="0"/>
        <pt x="200" y="896" on="1"/>
        <pt x="253" y="914" on="1"/>
        <pt x="257" y="911" on="0"/>
        <pt x="269" y="901" on="0"/>
        <pt x="290" y="864" on="0"/>
        <pt x="290" y="843" on="1"/>
        <pt x="290" y="808" on="0"/>
        <pt x="174" y="751" on="0"/>
        <pt x="116" y="740" on="1"/>
      </contour>
    </TTGlyph>
    <TTGlyph name="Icircumflex" xMin="15" yMin="0" xMax="313" yMax="858">
      <contour>
        <pt x="74" y="465" on="1"/>
        <pt x="15" y="465" on="0"/>
        <pt x="15" y="577" on="1"/>
        <pt x="15" y="608" on="0"/>
        <pt x="22" y="639" on="1"/>
        <pt x="33" y="697" on="1"/>
        <pt x="150" y="717" on="0"/>
        <pt x="230" y="717" on="1"/>
        <pt x="266" y="717" on="0"/>
        <pt x="307" y="667" on="0"/>
        <pt x="313" y="609" on="0"/>
        <pt x="313" y="591" on="1"/>
        <pt x="313" y="539" on="0"/>
        <pt x="305" y="500" on="1"/>
        <pt x="300" y="475" on="1"/>
        <pt x="276" y="475" on="0"/>
        <pt x="265" y="474" on="1"/>
        <pt x="246" y="152" on="1"/>
        <pt x="273" y="151" on="0"/>
        <pt x="298" y="121" on="0"/>
        <pt x="298" y="102" on="1"/>
        <pt x="298" y="58" on="0"/>
        <pt x="282" y="20" on="1"/>
        <pt x="275" y="5" on="1"/>
        <pt x="194" y="0" on="0"/>
        <pt x="103" y="0" on="1"/>
        <pt x="76" y="0" on="0"/>
        <pt x="43" y="28" on="0"/>
        <pt x="36" y="66" on="0"/>
        <pt x="36" y="76" on="1"/>
        <pt x="36" y="106" on="0"/>
        <pt x="40" y="122" on="1"/>
        <pt x="44" y="136" on="1"/>
        <pt x="84" y="141" on="1"/>
      </contour>
      <contour>
        <pt x="15" y="774" on="1"/>
        <pt x="15" y="792" on="0"/>
        <pt x="112" y="858" on="0"/>
        <pt x="152" y="858" on="1"/>
        <pt x="174" y="858" on="0"/>
        <pt x="242" y="824" on="0"/>
        <pt x="266" y="808" on="1"/>
        <pt x="289" y="791" on="1"/>
        <pt x="289" y="773" on="0"/>
        <pt x="284" y="749" on="0"/>
        <pt x="260" y="728" on="0"/>
        <pt x="216" y="728" on="0"/>
        <pt x="172" y="760" on="0"/>
        <pt x="160" y="776" on="1"/>
        <pt x="149" y="791" on="1"/>
        <pt x="70" y="728" on="1"/>
        <pt x="15" y="728" on="0"/>
      </contour>
    </TTGlyph>
    <TTGlyph name="Idieresis" xMin="3" yMin="0" xMax="326" yMax="852">
      <contour>
        <pt x="74" y="465" on="1"/>
        <pt x="15" y="465" on="0"/>
        <pt x="15" y="577" on="1"/>
        <pt x="15" y="608" on="0"/>
        <pt x="22" y="639" on="1"/>
        <pt x="33" y="697" on="1"/>
        <pt x="150" y="717" on="0"/>
        <pt x="230" y="717" on="1"/>
        <pt x="266" y="717" on="0"/>
        <pt x="307" y="667" on="0"/>
        <pt x="313" y="609" on="0"/>
        <pt x="313" y="591" on="1"/>
        <pt x="313" y="539" on="0"/>
        <pt x="305" y="500" on="1"/>
        <pt x="300" y="475" on="1"/>
        <pt x="276" y="475" on="0"/>
        <pt x="265" y="474" on="1"/>
        <pt x="246" y="152" on="1"/>
        <pt x="273" y="151" on="0"/>
        <pt x="298" y="121" on="0"/>
        <pt x="298" y="102" on="1"/>
        <pt x="298" y="58" on="0"/>
        <pt x="282" y="20" on="1"/>
        <pt x="275" y="5" on="1"/>
        <pt x="194" y="0" on="0"/>
        <pt x="103" y="0" on="1"/>
        <pt x="76" y="0" on="0"/>
        <pt x="43" y="28" on="0"/>
        <pt x="36" y="66" on="0"/>
        <pt x="36" y="76" on="1"/>
        <pt x="36" y="106" on="0"/>
        <pt x="40" y="122" on="1"/>
        <pt x="44" y="136" on="1"/>
        <pt x="84" y="141" on="1"/>
      </contour>
      <contour>
        <pt x="252" y="852" on="1"/>
        <pt x="326" y="852" on="0"/>
        <pt x="326" y="731" on="0"/>
        <pt x="178" y="731" on="0"/>
        <pt x="178" y="791" on="1"/>
        <pt x="178" y="824" on="0"/>
        <pt x="215" y="852" on="0"/>
      </contour>
      <contour>
        <pt x="151" y="841" on="0"/>
        <pt x="151" y="720" on="0"/>
        <pt x="3" y="720" on="0"/>
        <pt x="3" y="841" on="0"/>
      </contour>
    </TTGlyph>
    <TTGlyph name="Igrave" xMin="15" yMin="0" xMax="313" yMax="914">
      <contour>
        <pt x="74" y="465" on="1"/>
        <pt x="15" y="465" on="0"/>
        <pt x="15" y="577" on="1"/>
        <pt x="15" y="608" on="0"/>
        <pt x="22" y="639" on="1"/>
        <pt x="33" y="697" on="1"/>
        <pt x="150" y="717" on="0"/>
        <pt x="230" y="717" on="1"/>
        <pt x="266" y="717" on="0"/>
        <pt x="307" y="667" on="0"/>
        <pt x="313" y="609" on="0"/>
        <pt x="313" y="591" on="1"/>
        <pt x="313" y="539" on="0"/>
        <pt x="305" y="500" on="1"/>
        <pt x="300" y="475" on="1"/>
        <pt x="276" y="475" on="0"/>
        <pt x="265" y="474" on="1"/>
        <pt x="246" y="152" on="1"/>
        <pt x="273" y="151" on="0"/>
        <pt x="298" y="121" on="0"/>
        <pt x="298" y="102" on="1"/>
        <pt x="298" y="58" on="0"/>
        <pt x="282" y="20" on="1"/>
        <pt x="275" y="5" on="1"/>
        <pt x="194" y="0" on="0"/>
        <pt x="103" y="0" on="1"/>
        <pt x="76" y="0" on="0"/>
        <pt x="43" y="28" on="0"/>
        <pt x="36" y="66" on="0"/>
        <pt x="36" y="76" on="1"/>
        <pt x="36" y="106" on="0"/>
        <pt x="40" y="122" on="1"/>
        <pt x="44" y="136" on="1"/>
        <pt x="84" y="141" on="1"/>
      </contour>
      <contour>
        <pt x="97" y="781" on="0"/>
        <pt x="47" y="821" on="0"/>
        <pt x="47" y="864" on="0"/>
        <pt x="66" y="900" on="0"/>
        <pt x="75" y="907" on="1"/>
        <pt x="84" y="914" on="1"/>
        <pt x="93" y="911" on="0"/>
        <pt x="121" y="902" on="0"/>
        <pt x="194" y="871" on="0"/>
        <pt x="249" y="840" on="0"/>
        <pt x="295" y="795" on="0"/>
        <pt x="295" y="779" on="1"/>
        <pt x="295" y="752" on="0"/>
        <pt x="279" y="728" on="1"/>
        <pt x="270" y="730" on="0"/>
        <pt x="238" y="735" on="0"/>
        <pt x="158" y="757" on="0"/>
      </contour>
    </TTGlyph>
    <TTGlyph name="J" xMin="5" yMin="-110" xMax="302" yMax="717">
      <contour>
        <pt x="106" y="-110" on="1"/>
        <pt x="27" y="-110" on="0"/>
        <pt x="27" y="-32" on="1"/>
        <pt x="27" y="-15" on="0"/>
        <pt x="32" y="5" on="1"/>
        <pt x="76" y="21" on="1"/>
        <pt x="61" y="465" on="1"/>
        <pt x="34" y="465" on="0"/>
        <pt x="20" y="489" on="1"/>
        <pt x="5" y="514" on="0"/>
        <pt x="5" y="550" on="1"/>
        <pt x="5" y="625" on="0"/>
        <pt x="16" y="673" on="1"/>
        <pt x="22" y="697" on="1"/>
        <pt x="139" y="717" on="0"/>
        <pt x="219" y="717" on="1"/>
        <pt x="255" y="717" on="0"/>
        <pt x="296" y="667" on="0"/>
        <pt x="302" y="609" on="0"/>
        <pt x="302" y="591" on="1"/>
        <pt x="302" y="539" on="0"/>
        <pt x="294" y="500" on="1"/>
        <pt x="289" y="475" on="1"/>
        <pt x="266" y="475" on="0"/>
        <pt x="255" y="474" on="1"/>
        <pt x="232" y="41" on="1"/>
        <pt x="228" y="-42" on="0"/>
        <pt x="174" y="-110" on="0"/>
      </contour>
    </TTGlyph>
    <TTGlyph name="K" xMin="23" yMin="0" xMax="553" yMax="709">
      <contour>
        <pt x="129" y="709" on="1"/>
        <pt x="157" y="709" on="0"/>
        <pt x="190" y="700" on="0"/>
        <pt x="225" y="668" on="0"/>
        <pt x="234" y="636" on="1"/>
        <pt x="254" y="566" on="0"/>
        <pt x="254" y="416" on="1"/>
        <pt x="254" y="365" on="0"/>
        <pt x="253" y="346" on="1"/>
        <pt x="267" y="351" on="0"/>
        <pt x="296" y="351" on="1"/>
        <pt x="317" y="411" on="0"/>
        <pt x="350" y="605" on="0"/>
        <pt x="350" y="689" on="1"/>
        <pt x="376" y="709" on="0"/>
        <pt x="495" y="709" on="0"/>
        <pt x="550" y="657" on="0"/>
        <pt x="550" y="613" on="1"/>
        <pt x="550" y="532" on="0"/>
        <pt x="483" y="347" on="0"/>
        <pt x="430" y="291" on="1"/>
        <pt x="553" y="75" on="1"/>
        <pt x="551" y="68" on="0"/>
        <pt x="525" y="36" on="0"/>
        <pt x="512" y="26" on="1"/>
        <pt x="476" y="0" on="0"/>
        <pt x="424" y="0" on="1"/>
        <pt x="348" y="0" on="0"/>
        <pt x="322" y="62" on="1"/>
        <pt x="248" y="241" on="1"/>
        <pt x="246" y="116" on="0"/>
        <pt x="222" y="54" on="1"/>
        <pt x="213" y="30" on="0"/>
        <pt x="175" y="5" on="0"/>
        <pt x="145" y="0" on="0"/>
        <pt x="91" y="0" on="0"/>
        <pt x="47" y="13" on="0"/>
        <pt x="38" y="20" on="1"/>
        <pt x="30" y="26" on="1"/>
        <pt x="40" y="136" on="0"/>
        <pt x="40" y="271" on="1"/>
        <pt x="40" y="514" on="0"/>
        <pt x="28" y="632" on="1"/>
        <pt x="23" y="675" on="1"/>
        <pt x="64" y="709" on="0"/>
      </contour>
    </TTGlyph>
    <TTGlyph name="L" xMin="15" yMin="0" xMax="385" yMax="721">
      <contour>
        <pt x="346" y="212" on="1"/>
        <pt x="385" y="197" on="0"/>
        <pt x="385" y="133" on="1"/>
        <pt x="385" y="88" on="0"/>
        <pt x="333" y="0" on="0"/>
        <pt x="289" y="0" on="1"/>
        <pt x="120" y="8" on="1"/>
        <pt x="81" y="8" on="0"/>
        <pt x="51" y="0" on="1"/>
        <pt x="15" y="50" on="0"/>
        <pt x="15" y="156" on="0"/>
        <pt x="59" y="163" on="1"/>
        <pt x="30" y="676" on="1"/>
        <pt x="103" y="721" on="0"/>
        <pt x="211" y="721" on="0"/>
        <pt x="270" y="660" on="0"/>
        <pt x="270" y="581" on="1"/>
        <pt x="270" y="396" on="0"/>
        <pt x="255" y="189" on="1"/>
      </contour>
    </TTGlyph>
    <TTGlyph name="Lslash" xMin="-8" yMin="0" xMax="385" yMax="721">
      <contour>
        <pt x="346" y="212" on="1"/>
        <pt x="385" y="197" on="0"/>
        <pt x="385" y="133" on="1"/>
        <pt x="385" y="88" on="0"/>
        <pt x="333" y="0" on="0"/>
        <pt x="289" y="0" on="1"/>
        <pt x="120" y="8" on="1"/>
        <pt x="81" y="8" on="0"/>
        <pt x="51" y="0" on="1"/>
        <pt x="15" y="50" on="0"/>
        <pt x="15" y="156" on="0"/>
        <pt x="59" y="163" on="1"/>
        <pt x="50" y="320" on="1"/>
        <pt x="42" y="319" on="0"/>
        <pt x="28" y="319" on="1"/>
        <pt x="-8" y="319" on="0"/>
        <pt x="-8" y="348" on="1"/>
        <pt x="-8" y="363" on="0"/>
        <pt x="4" y="373" on="1"/>
        <pt x="47" y="379" on="1"/>
        <pt x="30" y="676" on="1"/>
        <pt x="103" y="721" on="0"/>
        <pt x="211" y="721" on="0"/>
        <pt x="270" y="660" on="0"/>
        <pt x="270" y="527" on="0"/>
        <pt x="266" y="413" on="1"/>
        <pt x="294" y="417" on="1"/>
        <pt x="326" y="417" on="0"/>
        <pt x="326" y="388" on="1"/>
        <pt x="326" y="375" on="0"/>
        <pt x="318" y="369" on="1"/>
        <pt x="296" y="364" on="0"/>
        <pt x="264" y="358" on="1"/>
        <pt x="262" y="303" on="0"/>
        <pt x="255" y="189" on="1"/>
      </contour>
    </TTGlyph>
    <TTGlyph name="M" xMin="24" yMin="0" xMax="720" yMax="709">
      <contour>
        <pt x="77" y="699" on="0"/>
        <pt x="124" y="709" on="0"/>
        <pt x="181" y="709" on="0"/>
        <pt x="194" y="697" on="1"/>
        <pt x="210" y="703" on="0"/>
        <pt x="237" y="703" on="1"/>
        <pt x="294" y="703" on="0"/>
        <pt x="312" y="648" on="1"/>
        <pt x="332" y="584" on="0"/>
        <pt x="379" y="257" on="1"/>
        <pt x="433" y="568" on="0"/>
        <pt x="469" y="691" on="0"/>
        <pt x="499" y="702" on="1"/>
        <pt x="519" y="708" on="0"/>
        <pt x="548" y="703" on="1"/>
        <pt x="574" y="709" on="0"/>
        <pt x="603" y="709" on="1"/>
        <pt x="677" y="709" on="0"/>
        <pt x="720" y="659" on="0"/>
        <pt x="720" y="598" on="1"/>
        <pt x="720" y="596" on="0"/>
        <pt x="694" y="124" on="0"/>
        <pt x="694" y="19" on="1"/>
        <pt x="656" y="0" on="0"/>
        <pt x="534" y="0" on="0"/>
        <pt x="532" y="61" on="1"/>
        <pt x="524" y="430" on="1"/>
        <pt x="451" y="41" on="0"/>
        <pt x="382" y="41" on="1"/>
        <pt x="368" y="41" on="1"/>
        <pt x="339" y="41" on="0"/>
        <pt x="318" y="70" on="1"/>
        <pt x="271" y="132" on="0"/>
        <pt x="215" y="437" on="1"/>
        <pt x="200" y="184" on="0"/>
        <pt x="200" y="19" on="1"/>
        <pt x="164" y="1" on="0"/>
        <pt x="122" y="1" on="1"/>
        <pt x="52" y="1" on="0"/>
        <pt x="49" y="61" on="1"/>
        <pt x="24" y="665" on="1"/>
        <pt x="27" y="671" on="0"/>
        <pt x="51" y="688" on="0"/>
      </contour>
    </TTGlyph>
    <TTGlyph name="N" xMin="34" yMin="1" xMax="628" yMax="717">
      <contour>
        <pt x="416" y="687" on="1"/>
        <pt x="445" y="717" on="0"/>
        <pt x="574" y="717" on="0"/>
        <pt x="628" y="661" on="0"/>
        <pt x="628" y="514" on="0"/>
        <pt x="595" y="118" on="0"/>
        <pt x="595" y="32" on="1"/>
        <pt x="555" y="1" on="0"/>
        <pt x="482" y="1" on="1"/>
        <pt x="448" y="1" on="0"/>
        <pt x="436" y="14" on="1"/>
        <pt x="345" y="32" on="0"/>
        <pt x="238" y="403" on="1"/>
        <pt x="231" y="195" on="0"/>
        <pt x="231" y="24" on="1"/>
        <pt x="212" y="1" on="0"/>
        <pt x="69" y="1" on="0"/>
        <pt x="66" y="61" on="1"/>
        <pt x="34" y="665" on="1"/>
        <pt x="107" y="709" on="0"/>
        <pt x="165" y="709" on="1"/>
        <pt x="194" y="709" on="0"/>
        <pt x="211" y="699" on="1"/>
        <pt x="225" y="703" on="0"/>
        <pt x="237" y="703" on="1"/>
        <pt x="280" y="703" on="0"/>
        <pt x="320" y="618" on="0"/>
        <pt x="374" y="410" on="0"/>
        <pt x="389" y="355" on="0"/>
        <pt x="415" y="257" on="0"/>
        <pt x="428" y="211" on="1"/>
        <pt x="430" y="298" on="0"/>
        <pt x="430" y="363" on="1"/>
        <pt x="430" y="544" on="0"/>
        <pt x="421" y="634" on="1"/>
      </contour>
    </TTGlyph>
    <TTGlyph name="Ntilde" xMin="34" yMin="1" xMax="628" yMax="856">
      <contour>
        <pt x="416" y="687" on="1"/>
        <pt x="445" y="717" on="0"/>
        <pt x="574" y="717" on="0"/>
        <pt x="628" y="661" on="0"/>
        <pt x="628" y="514" on="0"/>
        <pt x="595" y="118" on="0"/>
        <pt x="595" y="32" on="1"/>
        <pt x="555" y="1" on="0"/>
        <pt x="482" y="1" on="1"/>
        <pt x="448" y="1" on="0"/>
        <pt x="436" y="14" on="1"/>
        <pt x="345" y="32" on="0"/>
        <pt x="238" y="403" on="1"/>
        <pt x="231" y="195" on="0"/>
        <pt x="231" y="24" on="1"/>
        <pt x="212" y="1" on="0"/>
        <pt x="69" y="1" on="0"/>
        <pt x="66" y="61" on="1"/>
        <pt x="34" y="665" on="1"/>
        <pt x="107" y="709" on="0"/>
        <pt x="165" y="709" on="1"/>
        <pt x="194" y="709" on="0"/>
        <pt x="211" y="699" on="1"/>
        <pt x="225" y="703" on="0"/>
        <pt x="237" y="703" on="1"/>
        <pt x="280" y="703" on="0"/>
        <pt x="320" y="618" on="0"/>
        <pt x="374" y="410" on="0"/>
        <pt x="389" y="355" on="0"/>
        <pt x="415" y="257" on="0"/>
        <pt x="428" y="211" on="1"/>
        <pt x="430" y="298" on="0"/>
        <pt x="430" y="363" on="1"/>
        <pt x="430" y="544" on="0"/>
        <pt x="421" y="634" on="1"/>
      </contour>
      <contour>
        <pt x="382" y="722" on="0"/>
        <pt x="280" y="755" on="0"/>
        <pt x="232" y="755" on="0"/>
        <pt x="207" y="734" on="1"/>
        <pt x="178" y="750" on="0"/>
        <pt x="178" y="784" on="1"/>
        <pt x="178" y="856" on="0"/>
        <pt x="255" y="856" on="1"/>
        <pt x="279" y="856" on="0"/>
        <pt x="382" y="823" on="0"/>
        <pt x="431" y="823" on="0"/>
        <pt x="454" y="846" on="1"/>
        <pt x="482" y="825" on="0"/>
        <pt x="482" y="787" on="1"/>
        <pt x="482" y="722" on="0"/>
        <pt x="408" y="722" on="1"/>
      </contour>
    </TTGlyph>
    <TTGlyph name="O" xMin="19" yMin="-1" xMax="585" yMax="709">
      <contour>
        <pt x="19" y="308" on="1"/>
        <pt x="19" y="392" on="0"/>
        <pt x="59" y="525" on="0"/>
        <pt x="92" y="564" on="1"/>
        <pt x="155" y="640" on="0"/>
        <pt x="226" y="657" on="1"/>
        <pt x="267" y="709" on="0"/>
        <pt x="348" y="709" on="1"/>
        <pt x="459" y="709" on="0"/>
        <pt x="585" y="539" on="0"/>
        <pt x="585" y="200" on="0"/>
        <pt x="415" y="-1" on="0"/>
        <pt x="160" y="-1" on="0"/>
        <pt x="19" y="155" on="0"/>
      </contour>
      <contour>
        <pt x="351" y="116" on="0"/>
        <pt x="394" y="218" on="0"/>
        <pt x="394" y="410" on="0"/>
        <pt x="311" y="524" on="0"/>
        <pt x="254" y="551" on="1"/>
        <pt x="229" y="455" on="0"/>
        <pt x="229" y="344" on="1"/>
        <pt x="229" y="116" on="0"/>
        <pt x="313" y="116" on="1"/>
      </contour>
    </TTGlyph>
    <TTGlyph name="OE" xMin="19" yMin="-1" xMax="829" yMax="715">
      <contour>
        <pt x="807" y="360" on="1"/>
        <pt x="813" y="311" on="0"/>
        <pt x="813" y="284" on="0"/>
        <pt x="785" y="251" on="0"/>
        <pt x="752" y="251" on="1"/>
        <pt x="613" y="251" on="1"/>
        <pt x="621" y="178" on="0"/>
        <pt x="659" y="166" on="1"/>
        <pt x="668" y="163" on="0"/>
        <pt x="680" y="163" on="1"/>
        <pt x="721" y="163" on="0"/>
        <pt x="801" y="195" on="1"/>
        <pt x="824" y="184" on="0"/>
        <pt x="828" y="138" on="1"/>
        <pt x="829" y="133" on="0"/>
        <pt x="829" y="129" on="1"/>
        <pt x="829" y="87" on="0"/>
        <pt x="738" y="0" on="0"/>
        <pt x="522" y="0" on="0"/>
        <pt x="461" y="61" on="1"/>
        <pt x="387" y="-1" on="0"/>
        <pt x="284" y="-1" on="1"/>
        <pt x="160" y="-1" on="0"/>
        <pt x="19" y="155" on="0"/>
        <pt x="19" y="308" on="1"/>
        <pt x="19" y="392" on="0"/>
        <pt x="59" y="525" on="0"/>
        <pt x="92" y="564" on="1"/>
        <pt x="155" y="640" on="0"/>
        <pt x="226" y="657" on="1"/>
        <pt x="271" y="709" on="0"/>
        <pt x="348" y="709" on="1"/>
        <pt x="395" y="709" on="0"/>
        <pt x="430" y="695" on="1"/>
        <pt x="453" y="714" on="0"/>
        <pt x="494" y="714" on="1"/>
        <pt x="498" y="714" on="0"/>
        <pt x="551" y="714" on="0"/>
        <pt x="723" y="695" on="0"/>
        <pt x="817" y="695" on="1"/>
        <pt x="829" y="665" on="0"/>
        <pt x="829" y="534" on="0"/>
        <pt x="796" y="469" on="0"/>
        <pt x="757" y="469" on="1"/>
        <pt x="616" y="472" on="1"/>
        <pt x="608" y="422" on="0"/>
        <pt x="608" y="364" on="1"/>
        <pt x="608" y="357" on="1"/>
        <pt x="791" y="360" on="0"/>
      </contour>
      <contour>
        <pt x="229" y="344" on="1"/>
        <pt x="229" y="116" on="0"/>
        <pt x="313" y="116" on="1"/>
        <pt x="351" y="116" on="0"/>
        <pt x="394" y="218" on="0"/>
        <pt x="394" y="410" on="0"/>
        <pt x="311" y="524" on="0"/>
        <pt x="254" y="551" on="1"/>
        <pt x="229" y="455" on="0"/>
      </contour>
    </TTGlyph>
    <TTGlyph name="Oacute" xMin="19" yMin="-1" xMax="585" yMax="891">
      <contour>
        <pt x="19" y="308" on="1"/>
        <pt x="19" y="392" on="0"/>
        <pt x="59" y="525" on="0"/>
        <pt x="92" y="564" on="1"/>
        <pt x="155" y="640" on="0"/>
        <pt x="226" y="657" on="1"/>
        <pt x="267" y="709" on="0"/>
        <pt x="348" y="709" on="1"/>
        <pt x="459" y="709" on="0"/>
        <pt x="585" y="539" on="0"/>
        <pt x="585" y="200" on="0"/>
        <pt x="415" y="-1" on="0"/>
        <pt x="160" y="-1" on="0"/>
        <pt x="19" y="155" on="0"/>
      </contour>
      <contour>
        <pt x="351" y="116" on="0"/>
        <pt x="394" y="218" on="0"/>
        <pt x="394" y="410" on="0"/>
        <pt x="311" y="524" on="0"/>
        <pt x="254" y="551" on="1"/>
        <pt x="229" y="455" on="0"/>
        <pt x="229" y="344" on="1"/>
        <pt x="229" y="116" on="0"/>
        <pt x="313" y="116" on="1"/>
      </contour>
      <contour>
        <pt x="199" y="705" on="1"/>
        <pt x="183" y="725" on="0"/>
        <pt x="183" y="784" on="0"/>
        <pt x="288" y="854" on="0"/>
        <pt x="341" y="872" on="1"/>
        <pt x="394" y="891" on="1"/>
        <pt x="398" y="888" on="0"/>
        <pt x="410" y="878" on="0"/>
        <pt x="431" y="841" on="0"/>
        <pt x="431" y="820" on="1"/>
        <pt x="431" y="785" on="0"/>
        <pt x="315" y="728" on="0"/>
        <pt x="257" y="716" on="1"/>
      </contour>
    </TTGlyph>
    <TTGlyph name="Ocircumflex" xMin="19" yMin="-1" xMax="585" yMax="849">
      <contour>
        <pt x="19" y="308" on="1"/>
        <pt x="19" y="392" on="0"/>
        <pt x="59" y="525" on="0"/>
        <pt x="92" y="564" on="1"/>
        <pt x="155" y="640" on="0"/>
        <pt x="226" y="657" on="1"/>
        <pt x="267" y="709" on="0"/>
        <pt x="348" y="709" on="1"/>
        <pt x="459" y="709" on="0"/>
        <pt x="585" y="539" on="0"/>
        <pt x="585" y="200" on="0"/>
        <pt x="415" y="-1" on="0"/>
        <pt x="160" y="-1" on="0"/>
        <pt x="19" y="155" on="0"/>
      </contour>
      <contour>
        <pt x="351" y="116" on="0"/>
        <pt x="394" y="218" on="0"/>
        <pt x="394" y="410" on="0"/>
        <pt x="311" y="524" on="0"/>
        <pt x="254" y="551" on="1"/>
        <pt x="229" y="455" on="0"/>
        <pt x="229" y="344" on="1"/>
        <pt x="229" y="116" on="0"/>
        <pt x="313" y="116" on="1"/>
      </contour>
      <contour>
        <pt x="138" y="766" on="1"/>
        <pt x="138" y="783" on="0"/>
        <pt x="235" y="849" on="0"/>
        <pt x="275" y="849" on="1"/>
        <pt x="297" y="849" on="0"/>
        <pt x="365" y="816" on="0"/>
        <pt x="388" y="799" on="1"/>
        <pt x="412" y="782" on="1"/>
        <pt x="412" y="764" on="0"/>
        <pt x="407" y="740" on="0"/>
        <pt x="383" y="719" on="0"/>
        <pt x="339" y="719" on="0"/>
        <pt x="295" y="750" on="0"/>
        <pt x="284" y="766" on="1"/>
        <pt x="272" y="782" on="1"/>
        <pt x="193" y="719" on="1"/>
        <pt x="138" y="719" on="0"/>
      </contour>
    </TTGlyph>
    <TTGlyph name="Odieresis" xMin="19" yMin="-1" xMax="585" yMax="846">
      <contour>
        <pt x="19" y="308" on="1"/>
        <pt x="19" y="392" on="0"/>
        <pt x="59" y="525" on="0"/>
        <pt x="92" y="564" on="1"/>
        <pt x="155" y="640" on="0"/>
        <pt x="226" y="657" on="1"/>
        <pt x="267" y="709" on="0"/>
        <pt x="348" y="709" on="1"/>
        <pt x="459" y="709" on="0"/>
        <pt x="585" y="539" on="0"/>
        <pt x="585" y="200" on="0"/>
        <pt x="415" y="-1" on="0"/>
        <pt x="160" y="-1" on="0"/>
        <pt x="19" y="155" on="0"/>
      </contour>
      <contour>
        <pt x="351" y="116" on="0"/>
        <pt x="394" y="218" on="0"/>
        <pt x="394" y="410" on="0"/>
        <pt x="311" y="524" on="0"/>
        <pt x="254" y="551" on="1"/>
        <pt x="229" y="455" on="0"/>
        <pt x="229" y="344" on="1"/>
        <pt x="229" y="116" on="0"/>
        <pt x="313" y="116" on="1"/>
      </contour>
      <contour>
        <pt x="275" y="835" on="0"/>
        <pt x="275" y="714" on="0"/>
        <pt x="127" y="714" on="0"/>
        <pt x="127" y="835" on="0"/>
      </contour>
      <contour>
        <pt x="376" y="846" on="1"/>
        <pt x="450" y="846" on="0"/>
        <pt x="450" y="725" on="0"/>
        <pt x="302" y="725" on="0"/>
        <pt x="302" y="785" on="1"/>
        <pt x="302" y="818" on="0"/>
        <pt x="339" y="846" on="0"/>
      </contour>
    </TTGlyph>
    <TTGlyph name="Ograve" xMin="19" yMin="-1" xMax="585" yMax="900">
      <contour>
        <pt x="19" y="308" on="1"/>
        <pt x="19" y="392" on="0"/>
        <pt x="59" y="525" on="0"/>
        <pt x="92" y="564" on="1"/>
        <pt x="155" y="640" on="0"/>
        <pt x="226" y="657" on="1"/>
        <pt x="267" y="709" on="0"/>
        <pt x="348" y="709" on="1"/>
        <pt x="459" y="709" on="0"/>
        <pt x="585" y="539" on="0"/>
        <pt x="585" y="200" on="0"/>
        <pt x="415" y="-1" on="0"/>
        <pt x="160" y="-1" on="0"/>
        <pt x="19" y="155" on="0"/>
      </contour>
      <contour>
        <pt x="351" y="116" on="0"/>
        <pt x="394" y="218" on="0"/>
        <pt x="394" y="410" on="0"/>
        <pt x="311" y="524" on="0"/>
        <pt x="254" y="551" on="1"/>
        <pt x="229" y="455" on="0"/>
        <pt x="229" y="344" on="1"/>
        <pt x="229" y="116" on="0"/>
        <pt x="313" y="116" on="1"/>
      </contour>
      <contour>
        <pt x="214" y="767" on="0"/>
        <pt x="164" y="807" on="0"/>
        <pt x="164" y="850" on="0"/>
        <pt x="182" y="886" on="0"/>
        <pt x="192" y="893" on="1"/>
        <pt x="201" y="900" on="1"/>
        <pt x="210" y="897" on="0"/>
        <pt x="238" y="888" on="0"/>
        <pt x="311" y="857" on="0"/>
        <pt x="366" y="826" on="0"/>
        <pt x="412" y="781" on="0"/>
        <pt x="412" y="765" on="1"/>
        <pt x="412" y="738" on="0"/>
        <pt x="396" y="714" on="1"/>
        <pt x="387" y="716" on="0"/>
        <pt x="355" y="721" on="0"/>
        <pt x="275" y="743" on="0"/>
      </contour>
    </TTGlyph>
    <TTGlyph name="Omega" xMin="35" yMin="-15" xMax="620" yMax="709">
      <contour>
        <pt x="40" y="544" on="0"/>
        <pt x="192" y="709" on="0"/>
        <pt x="478" y="709" on="0"/>
        <pt x="615" y="542" on="0"/>
        <pt x="615" y="410" on="1"/>
        <pt x="615" y="363" on="0"/>
        <pt x="588" y="275" on="0"/>
        <pt x="569" y="246" on="1"/>
        <pt x="529" y="184" on="0"/>
        <pt x="498" y="162" on="1"/>
        <pt x="485" y="152" on="1"/>
        <pt x="583" y="151" on="1"/>
        <pt x="587" y="149" on="0"/>
        <pt x="599" y="141" on="0"/>
        <pt x="620" y="107" on="0"/>
        <pt x="620" y="84" on="1"/>
        <pt x="620" y="36" on="0"/>
        <pt x="562" y="-15" on="0"/>
        <pt x="504" y="-15" on="1"/>
        <pt x="399" y="-15" on="0"/>
        <pt x="382" y="2" on="1"/>
        <pt x="376" y="8" on="1"/>
        <pt x="373" y="41" on="0"/>
        <pt x="373" y="103" on="0"/>
        <pt x="384" y="182" on="0"/>
        <pt x="396" y="207" on="1"/>
        <pt x="431" y="276" on="0"/>
        <pt x="431" y="374" on="1"/>
        <pt x="431" y="434" on="0"/>
        <pt x="378" y="499" on="0"/>
        <pt x="288" y="499" on="0"/>
        <pt x="238" y="435" on="0"/>
        <pt x="238" y="320" on="0"/>
        <pt x="261" y="232" on="0"/>
        <pt x="286" y="183" on="0"/>
        <pt x="298" y="105" on="0"/>
        <pt x="298" y="44" on="0"/>
        <pt x="294" y="8" on="1"/>
        <pt x="267" y="-15" on="0"/>
        <pt x="93" y="-15" on="0"/>
        <pt x="35" y="36" on="0"/>
        <pt x="35" y="84" on="1"/>
        <pt x="35" y="107" on="0"/>
        <pt x="53" y="140" on="0"/>
        <pt x="62" y="146" on="1"/>
        <pt x="71" y="151" on="1"/>
        <pt x="165" y="151" on="1"/>
        <pt x="85" y="215" on="0"/>
        <pt x="54" y="320" on="1"/>
        <pt x="40" y="364" on="0"/>
        <pt x="40" y="411" on="1"/>
      </contour>
    </TTGlyph>
    <TTGlyph name="Oslash" xMin="19" yMin="-103" xMax="585" yMax="808">
      <contour>
        <pt x="19" y="308" on="1"/>
        <pt x="19" y="392" on="0"/>
        <pt x="59" y="525" on="0"/>
        <pt x="92" y="564" on="1"/>
        <pt x="155" y="640" on="0"/>
        <pt x="226" y="657" on="1"/>
        <pt x="267" y="709" on="0"/>
        <pt x="348" y="709" on="1"/>
        <pt x="371" y="709" on="0"/>
        <pt x="396" y="704" on="1"/>
        <pt x="401" y="720" on="1"/>
        <pt x="418" y="773" on="0"/>
        <pt x="445" y="808" on="0"/>
        <pt x="459" y="808" on="1"/>
        <pt x="482" y="808" on="0"/>
        <pt x="491" y="794" on="1"/>
        <pt x="494" y="790" on="1"/>
        <pt x="458" y="682" on="1"/>
        <pt x="585" y="611" on="0"/>
        <pt x="585" y="366" on="1"/>
        <pt x="585" y="200" on="0"/>
        <pt x="415" y="-1" on="0"/>
        <pt x="284" y="-1" on="1"/>
        <pt x="253" y="-1" on="0"/>
        <pt x="230" y="3" on="1"/>
        <pt x="225" y="-14" on="1"/>
        <pt x="196" y="-103" on="0"/>
        <pt x="165" y="-103" on="1"/>
        <pt x="153" y="-103" on="0"/>
        <pt x="142" y="-95" on="0"/>
        <pt x="142" y="-91" on="1"/>
        <pt x="142" y="-87" on="1"/>
        <pt x="156" y="-44" on="0"/>
        <pt x="176" y="17" on="1"/>
        <pt x="19" y="78" on="0"/>
      </contour>
      <contour>
        <pt x="351" y="116" on="0"/>
        <pt x="394" y="218" on="0"/>
        <pt x="394" y="379" on="0"/>
        <pt x="373" y="429" on="1"/>
        <pt x="274" y="133" on="1"/>
        <pt x="291" y="116" on="0"/>
        <pt x="313" y="116" on="1"/>
      </contour>
      <contour>
        <pt x="254" y="551" on="1"/>
        <pt x="229" y="455" on="0"/>
        <pt x="229" y="261" on="0"/>
        <pt x="239" y="214" on="1"/>
        <pt x="329" y="496" on="1"/>
        <pt x="299" y="529" on="0"/>
      </contour>
    </TTGlyph>
    <TTGlyph name="Otilde" xMin="19" yMin="-1" xMax="585" yMax="856">
      <contour>
        <pt x="19" y="308" on="1"/>
        <pt x="19" y="392" on="0"/>
        <pt x="59" y="525" on="0"/>
        <pt x="92" y="564" on="1"/>
        <pt x="155" y="640" on="0"/>
        <pt x="226" y="657" on="1"/>
        <pt x="267" y="709" on="0"/>
        <pt x="348" y="709" on="1"/>
        <pt x="459" y="709" on="0"/>
        <pt x="585" y="539" on="0"/>
        <pt x="585" y="200" on="0"/>
        <pt x="415" y="-1" on="0"/>
        <pt x="160" y="-1" on="0"/>
        <pt x="19" y="155" on="0"/>
      </contour>
      <contour>
        <pt x="351" y="116" on="0"/>
        <pt x="394" y="218" on="0"/>
        <pt x="394" y="410" on="0"/>
        <pt x="311" y="524" on="0"/>
        <pt x="254" y="551" on="1"/>
        <pt x="229" y="455" on="0"/>
        <pt x="229" y="344" on="1"/>
        <pt x="229" y="116" on="0"/>
        <pt x="313" y="116" on="1"/>
      </contour>
      <contour>
        <pt x="346" y="722" on="0"/>
        <pt x="244" y="755" on="0"/>
        <pt x="196" y="755" on="0"/>
        <pt x="171" y="734" on="1"/>
        <pt x="142" y="750" on="0"/>
        <pt x="142" y="784" on="1"/>
        <pt x="142" y="856" on="0"/>
        <pt x="219" y="856" on="1"/>
        <pt x="243" y="856" on="0"/>
        <pt x="346" y="823" on="0"/>
        <pt x="395" y="823" on="0"/>
        <pt x="418" y="846" on="1"/>
        <pt x="446" y="825" on="0"/>
        <pt x="446" y="787" on="1"/>
        <pt x="446" y="722" on="0"/>
        <pt x="372" y="722" on="1"/>
      </contour>
    </TTGlyph>
    <TTGlyph name="P" xMin="29" yMin="0" xMax="554" yMax="715">
      <contour>
        <pt x="124" y="709" on="1"/>
        <pt x="158" y="709" on="0"/>
        <pt x="208" y="678" on="0"/>
        <pt x="226" y="634" on="1"/>
        <pt x="271" y="715" on="0"/>
        <pt x="352" y="715" on="1"/>
        <pt x="456" y="715" on="0"/>
        <pt x="554" y="594" on="0"/>
        <pt x="554" y="330" on="0"/>
        <pt x="420" y="146" on="0"/>
        <pt x="306" y="146" on="1"/>
        <pt x="264" y="146" on="0"/>
        <pt x="243" y="154" on="1"/>
        <pt x="231" y="69" on="0"/>
        <pt x="180" y="0" on="0"/>
        <pt x="134" y="0" on="1"/>
        <pt x="108" y="0" on="0"/>
        <pt x="56" y="21" on="0"/>
        <pt x="43" y="32" on="1"/>
        <pt x="30" y="42" on="1"/>
        <pt x="40" y="86" on="0"/>
        <pt x="40" y="246" on="1"/>
        <pt x="40" y="487" on="0"/>
        <pt x="32" y="633" on="1"/>
        <pt x="29" y="676" on="1"/>
        <pt x="59" y="709" on="0"/>
      </contour>
      <contour>
        <pt x="250" y="506" on="1"/>
        <pt x="254" y="446" on="0"/>
        <pt x="254" y="296" on="0"/>
        <pt x="250" y="231" on="1"/>
        <pt x="302" y="244" on="0"/>
        <pt x="360" y="327" on="0"/>
        <pt x="360" y="453" on="0"/>
        <pt x="295" y="506" on="0"/>
        <pt x="251" y="506" on="1"/>
      </contour>
    </TTGlyph>
    <TTGlyph name="Q" xMin="19" yMin="-122" xMax="585" yMax="709">
      <contour>
        <pt x="284" y="-1" on="1"/>
        <pt x="160" y="-1" on="0"/>
        <pt x="19" y="155" on="0"/>
        <pt x="19" y="308" on="1"/>
        <pt x="19" y="392" on="0"/>
        <pt x="59" y="525" on="0"/>
        <pt x="92" y="564" on="1"/>
        <pt x="155" y="640" on="0"/>
        <pt x="226" y="657" on="1"/>
        <pt x="267" y="709" on="0"/>
        <pt x="348" y="709" on="1"/>
        <pt x="459" y="709" on="0"/>
        <pt x="585" y="539" on="0"/>
        <pt x="585" y="366" on="1"/>
        <pt x="585" y="168" on="0"/>
        <pt x="469" y="68" on="1"/>
        <pt x="478" y="49" on="0"/>
        <pt x="546" y="-27" on="0"/>
        <pt x="562" y="-42" on="1"/>
        <pt x="561" y="-45" on="0"/>
        <pt x="558" y="-56" on="0"/>
        <pt x="544" y="-84" on="0"/>
        <pt x="534" y="-94" on="1"/>
        <pt x="508" y="-122" on="0"/>
        <pt x="404" y="-122" on="0"/>
        <pt x="379" y="-73" on="1"/>
        <pt x="340" y="4" on="1"/>
        <pt x="318" y="-1" on="0"/>
      </contour>
      <contour>
        <pt x="351" y="116" on="0"/>
        <pt x="394" y="218" on="0"/>
        <pt x="394" y="410" on="0"/>
        <pt x="311" y="524" on="0"/>
        <pt x="254" y="551" on="1"/>
        <pt x="229" y="455" on="0"/>
        <pt x="229" y="344" on="1"/>
        <pt x="229" y="116" on="0"/>
        <pt x="313" y="116" on="1"/>
      </contour>
    </TTGlyph>
    <TTGlyph name="R" xMin="29" yMin="0" xMax="562" yMax="715">
      <contour>
        <pt x="124" y="709" on="1"/>
        <pt x="158" y="709" on="0"/>
        <pt x="207" y="679" on="0"/>
        <pt x="225" y="636" on="1"/>
        <pt x="275" y="715" on="0"/>
        <pt x="377" y="715" on="1"/>
        <pt x="456" y="715" on="0"/>
        <pt x="554" y="597" on="0"/>
        <pt x="554" y="489" on="1"/>
        <pt x="554" y="411" on="0"/>
        <pt x="503" y="277" on="0"/>
        <pt x="456" y="235" on="1"/>
        <pt x="462" y="229" on="0"/>
        <pt x="523" y="133" on="0"/>
        <pt x="562" y="96" on="1"/>
        <pt x="562" y="85" on="0"/>
        <pt x="542" y="46" on="0"/>
        <pt x="518" y="21" on="0"/>
        <pt x="468" y="0" on="0"/>
        <pt x="436" y="0" on="1"/>
        <pt x="371" y="0" on="0"/>
        <pt x="341" y="56" on="1"/>
        <pt x="281" y="180" on="1"/>
        <pt x="269" y="181" on="0"/>
        <pt x="246" y="185" on="1"/>
        <pt x="236" y="83" on="0"/>
        <pt x="184" y="0" on="0"/>
        <pt x="134" y="0" on="1"/>
        <pt x="108" y="0" on="0"/>
        <pt x="56" y="21" on="0"/>
        <pt x="43" y="32" on="1"/>
        <pt x="30" y="42" on="1"/>
        <pt x="40" y="86" on="0"/>
        <pt x="40" y="246" on="1"/>
        <pt x="40" y="487" on="0"/>
        <pt x="32" y="633" on="1"/>
        <pt x="29" y="676" on="1"/>
        <pt x="59" y="709" on="0"/>
      </contour>
      <contour>
        <pt x="251" y="501" on="1"/>
        <pt x="254" y="459" on="0"/>
        <pt x="254" y="324" on="0"/>
        <pt x="251" y="263" on="1"/>
        <pt x="363" y="279" on="0"/>
        <pt x="363" y="409" on="1"/>
        <pt x="363" y="469" on="0"/>
        <pt x="313" y="501" on="0"/>
      </contour>
    </TTGlyph>
    <TTGlyph name="S" xMin="30" yMin="0" xMax="499" yMax="713">
      <contour>
        <pt x="488" y="210" on="1"/>
        <pt x="488" y="118" on="0"/>
        <pt x="362" y="0" on="0"/>
        <pt x="126" y="0" on="0"/>
        <pt x="30" y="69" on="0"/>
        <pt x="30" y="111" on="1"/>
        <pt x="30" y="149" on="0"/>
        <pt x="40" y="166" on="1"/>
        <pt x="57" y="195" on="0"/>
        <pt x="73" y="205" on="1"/>
        <pt x="112" y="176" on="0"/>
        <pt x="213" y="128" on="0"/>
        <pt x="265" y="128" on="0"/>
        <pt x="287" y="138" on="0"/>
        <pt x="291" y="149" on="0"/>
        <pt x="291" y="159" on="1"/>
        <pt x="291" y="178" on="0"/>
        <pt x="237" y="213" on="0"/>
        <pt x="160" y="250" on="0"/>
        <pt x="84" y="297" on="0"/>
        <pt x="30" y="379" on="0"/>
        <pt x="30" y="478" on="0"/>
        <pt x="76" y="562" on="0"/>
        <pt x="111" y="589" on="1"/>
        <pt x="113" y="637" on="0"/>
        <pt x="224" y="713" on="0"/>
        <pt x="321" y="713" on="1"/>
        <pt x="499" y="713" on="0"/>
        <pt x="499" y="564" on="1"/>
        <pt x="499" y="473" on="0"/>
        <pt x="419" y="440" on="1"/>
        <pt x="364" y="500" on="0"/>
        <pt x="214" y="528" on="1"/>
        <pt x="218" y="470" on="0"/>
        <pt x="272" y="432" on="1"/>
        <pt x="297" y="415" on="0"/>
        <pt x="355" y="384" on="0"/>
        <pt x="412" y="350" on="0"/>
        <pt x="436" y="330" on="1"/>
        <pt x="488" y="285" on="0"/>
      </contour>
    </TTGlyph>
    <TTGlyph name="Scaron" xMin="30" yMin="0" xMax="499" yMax="713">
      <contour>
        <pt x="488" y="210" on="1"/>
        <pt x="488" y="118" on="0"/>
        <pt x="362" y="0" on="0"/>
        <pt x="126" y="0" on="0"/>
        <pt x="30" y="69" on="0"/>
        <pt x="30" y="111" on="1"/>
        <pt x="30" y="149" on="0"/>
        <pt x="40" y="166" on="1"/>
        <pt x="57" y="195" on="0"/>
        <pt x="73" y="205" on="1"/>
        <pt x="112" y="176" on="0"/>
        <pt x="213" y="128" on="0"/>
        <pt x="265" y="128" on="0"/>
        <pt x="287" y="138" on="0"/>
        <pt x="291" y="149" on="0"/>
        <pt x="291" y="159" on="1"/>
        <pt x="291" y="178" on="0"/>
        <pt x="237" y="213" on="0"/>
        <pt x="160" y="250" on="0"/>
        <pt x="84" y="297" on="0"/>
        <pt x="30" y="379" on="0"/>
        <pt x="30" y="478" on="0"/>
        <pt x="76" y="562" on="0"/>
        <pt x="111" y="589" on="1"/>
        <pt x="111" y="603" on="0"/>
        <pt x="117" y="618" on="1"/>
        <pt x="103" y="628" on="1"/>
        <pt x="103" y="675" on="0"/>
        <pt x="129" y="686" on="1"/>
        <pt x="141" y="692" on="0"/>
        <pt x="174" y="692" on="0"/>
        <pt x="188" y="686" on="1"/>
        <pt x="245" y="713" on="0"/>
        <pt x="321" y="713" on="1"/>
        <pt x="499" y="713" on="0"/>
        <pt x="499" y="564" on="1"/>
        <pt x="499" y="473" on="0"/>
        <pt x="419" y="440" on="1"/>
        <pt x="364" y="500" on="0"/>
        <pt x="214" y="528" on="1"/>
        <pt x="218" y="470" on="0"/>
        <pt x="272" y="432" on="1"/>
        <pt x="297" y="415" on="0"/>
        <pt x="355" y="384" on="0"/>
        <pt x="412" y="350" on="0"/>
        <pt x="436" y="330" on="1"/>
        <pt x="488" y="285" on="0"/>
      </contour>
    </TTGlyph>
    <TTGlyph name="T" xMin="12" yMin="0" xMax="430" yMax="705">
      <contour>
        <pt x="419" y="685" on="1"/>
        <pt x="430" y="664" on="0"/>
        <pt x="430" y="523" on="0"/>
        <pt x="397" y="458" on="0"/>
        <pt x="358" y="458" on="1"/>
        <pt x="314" y="458" on="1"/>
        <pt x="317" y="174" on="0"/>
        <pt x="337" y="29" on="1"/>
        <pt x="288" y="0" on="0"/>
        <pt x="215" y="0" on="1"/>
        <pt x="173" y="0" on="0"/>
        <pt x="118" y="34" on="0"/>
        <pt x="119" y="61" on="1"/>
        <pt x="119" y="207" on="0"/>
        <pt x="135" y="463" on="1"/>
        <pt x="70" y="461" on="0"/>
        <pt x="38" y="458" on="1"/>
        <pt x="12" y="482" on="0"/>
        <pt x="12" y="629" on="0"/>
        <pt x="62" y="704" on="0"/>
        <pt x="116" y="704" on="1"/>
        <pt x="121" y="704" on="0"/>
        <pt x="148" y="704" on="1"/>
        <pt x="216" y="704" on="0"/>
        <pt x="370" y="690" on="1"/>
      </contour>
    </TTGlyph>
    <TTGlyph name="Thorn" xMin="29" yMin="0" xMax="546" yMax="709">
      <contour>
        <pt x="124" y="709" on="1"/>
        <pt x="167" y="709" on="0"/>
        <pt x="225" y="657" on="0"/>
        <pt x="241" y="581" on="1"/>
        <pt x="284" y="617" on="0"/>
        <pt x="437" y="617" on="0"/>
        <pt x="546" y="504" on="0"/>
        <pt x="546" y="280" on="0"/>
        <pt x="416" y="134" on="0"/>
        <pt x="303" y="134" on="1"/>
        <pt x="262" y="134" on="0"/>
        <pt x="241" y="140" on="1"/>
        <pt x="229" y="63" on="0"/>
        <pt x="178" y="0" on="0"/>
        <pt x="134" y="0" on="1"/>
        <pt x="108" y="0" on="0"/>
        <pt x="56" y="21" on="0"/>
        <pt x="43" y="32" on="1"/>
        <pt x="30" y="42" on="1"/>
        <pt x="40" y="86" on="0"/>
        <pt x="40" y="246" on="1"/>
        <pt x="40" y="487" on="0"/>
        <pt x="32" y="633" on="1"/>
        <pt x="29" y="676" on="1"/>
        <pt x="59" y="709" on="0"/>
      </contour>
      <contour>
        <pt x="253" y="448" on="1"/>
        <pt x="254" y="435" on="0"/>
        <pt x="254" y="288" on="0"/>
        <pt x="248" y="208" on="1"/>
        <pt x="299" y="219" on="0"/>
        <pt x="356" y="292" on="0"/>
        <pt x="356" y="400" on="0"/>
        <pt x="295" y="446" on="0"/>
      </contour>
    </TTGlyph>
    <TTGlyph name="U" xMin="19" yMin="-6" xMax="588" yMax="706">
      <contour>
        <pt x="19" y="357" on="1"/>
        <pt x="19" y="405" on="0"/>
        <pt x="35" y="498" on="0"/>
        <pt x="43" y="520" on="1"/>
        <pt x="51" y="543" on="1"/>
        <pt x="34" y="619" on="1"/>
        <pt x="41" y="640" on="0"/>
        <pt x="68" y="660" on="1"/>
        <pt x="98" y="681" on="0"/>
        <pt x="224" y="681" on="0"/>
        <pt x="275" y="639" on="0"/>
        <pt x="275" y="599" on="1"/>
        <pt x="275" y="578" on="0"/>
        <pt x="241" y="410" on="0"/>
        <pt x="241" y="222" on="0"/>
        <pt x="280" y="116" on="0"/>
        <pt x="351" y="116" on="0"/>
        <pt x="394" y="218" on="0"/>
        <pt x="394" y="416" on="0"/>
        <pt x="365" y="589" on="0"/>
        <pt x="350" y="627" on="1"/>
        <pt x="336" y="665" on="1"/>
        <pt x="336" y="668" on="0"/>
        <pt x="351" y="686" on="0"/>
        <pt x="360" y="692" on="1"/>
        <pt x="384" y="706" on="0"/>
        <pt x="423" y="706" on="1"/>
        <pt x="588" y="706" on="0"/>
        <pt x="588" y="410" on="1"/>
        <pt x="588" y="282" on="0"/>
        <pt x="530" y="101" on="0"/>
        <pt x="393" y="-6" on="0"/>
        <pt x="287" y="-6" on="1"/>
        <pt x="148" y="-6" on="0"/>
        <pt x="19" y="190" on="0"/>
      </contour>
    </TTGlyph>
    <TTGlyph name="Uacute" xMin="19" yMin="-6" xMax="588" yMax="872">
      <contour>
        <pt x="19" y="357" on="1"/>
        <pt x="19" y="405" on="0"/>
        <pt x="35" y="498" on="0"/>
        <pt x="43" y="520" on="1"/>
        <pt x="51" y="543" on="1"/>
        <pt x="34" y="619" on="1"/>
        <pt x="41" y="640" on="0"/>
        <pt x="68" y="660" on="1"/>
        <pt x="98" y="681" on="0"/>
        <pt x="224" y="681" on="0"/>
        <pt x="275" y="639" on="0"/>
        <pt x="275" y="599" on="1"/>
        <pt x="275" y="578" on="0"/>
        <pt x="241" y="410" on="0"/>
        <pt x="241" y="222" on="0"/>
        <pt x="280" y="116" on="0"/>
        <pt x="351" y="116" on="0"/>
        <pt x="394" y="218" on="0"/>
        <pt x="394" y="416" on="0"/>
        <pt x="365" y="589" on="0"/>
        <pt x="350" y="627" on="1"/>
        <pt x="336" y="665" on="1"/>
        <pt x="336" y="668" on="0"/>
        <pt x="351" y="686" on="0"/>
        <pt x="360" y="692" on="1"/>
        <pt x="384" y="706" on="0"/>
        <pt x="423" y="706" on="1"/>
        <pt x="588" y="706" on="0"/>
        <pt x="588" y="410" on="1"/>
        <pt x="588" y="282" on="0"/>
        <pt x="530" y="101" on="0"/>
        <pt x="393" y="-6" on="0"/>
        <pt x="287" y="-6" on="1"/>
        <pt x="148" y="-6" on="0"/>
        <pt x="19" y="190" on="0"/>
      </contour>
      <contour>
        <pt x="246" y="686" on="1"/>
        <pt x="230" y="706" on="0"/>
        <pt x="230" y="765" on="0"/>
        <pt x="336" y="835" on="0"/>
        <pt x="388" y="854" on="1"/>
        <pt x="441" y="872" on="1"/>
        <pt x="445" y="869" on="0"/>
        <pt x="457" y="859" on="0"/>
        <pt x="478" y="822" on="0"/>
        <pt x="478" y="801" on="1"/>
        <pt x="478" y="766" on="0"/>
        <pt x="362" y="709" on="0"/>
        <pt x="304" y="698" on="1"/>
      </contour>
    </TTGlyph>
    <TTGlyph name="Ucircumflex" xMin="19" yMin="-6" xMax="588" yMax="848">
      <contour>
        <pt x="19" y="357" on="1"/>
        <pt x="19" y="405" on="0"/>
        <pt x="35" y="498" on="0"/>
        <pt x="43" y="520" on="1"/>
        <pt x="51" y="543" on="1"/>
        <pt x="34" y="619" on="1"/>
        <pt x="41" y="640" on="0"/>
        <pt x="68" y="660" on="1"/>
        <pt x="98" y="681" on="0"/>
        <pt x="224" y="681" on="0"/>
        <pt x="275" y="639" on="0"/>
        <pt x="275" y="599" on="1"/>
        <pt x="275" y="578" on="0"/>
        <pt x="241" y="410" on="0"/>
        <pt x="241" y="222" on="0"/>
        <pt x="280" y="116" on="0"/>
        <pt x="351" y="116" on="0"/>
        <pt x="394" y="218" on="0"/>
        <pt x="394" y="416" on="0"/>
        <pt x="365" y="589" on="0"/>
        <pt x="350" y="627" on="1"/>
        <pt x="336" y="665" on="1"/>
        <pt x="336" y="668" on="0"/>
        <pt x="351" y="686" on="0"/>
        <pt x="360" y="692" on="1"/>
        <pt x="384" y="706" on="0"/>
        <pt x="423" y="706" on="1"/>
        <pt x="588" y="706" on="0"/>
        <pt x="588" y="410" on="1"/>
        <pt x="588" y="282" on="0"/>
        <pt x="530" y="101" on="0"/>
        <pt x="393" y="-6" on="0"/>
        <pt x="287" y="-6" on="1"/>
        <pt x="148" y="-6" on="0"/>
        <pt x="19" y="190" on="0"/>
      </contour>
      <contour>
        <pt x="152" y="764" on="1"/>
        <pt x="152" y="782" on="0"/>
        <pt x="249" y="848" on="0"/>
        <pt x="289" y="848" on="1"/>
        <pt x="311" y="848" on="0"/>
        <pt x="379" y="814" on="0"/>
        <pt x="402" y="798" on="1"/>
        <pt x="426" y="781" on="1"/>
        <pt x="426" y="763" on="0"/>
        <pt x="421" y="739" on="0"/>
        <pt x="397" y="718" on="0"/>
        <pt x="353" y="718" on="0"/>
        <pt x="309" y="750" on="0"/>
        <pt x="298" y="766" on="1"/>
        <pt x="286" y="781" on="1"/>
        <pt x="207" y="718" on="1"/>
        <pt x="152" y="718" on="0"/>
      </contour>
    </TTGlyph>
    <TTGlyph name="Udieresis" xMin="19" yMin="-6" xMax="588" yMax="846">
      <contour>
        <pt x="19" y="357" on="1"/>
        <pt x="19" y="405" on="0"/>
        <pt x="35" y="498" on="0"/>
        <pt x="43" y="520" on="1"/>
        <pt x="51" y="543" on="1"/>
        <pt x="34" y="619" on="1"/>
        <pt x="41" y="640" on="0"/>
        <pt x="68" y="660" on="1"/>
        <pt x="98" y="681" on="0"/>
        <pt x="224" y="681" on="0"/>
        <pt x="275" y="639" on="0"/>
        <pt x="275" y="599" on="1"/>
        <pt x="275" y="578" on="0"/>
        <pt x="241" y="410" on="0"/>
        <pt x="241" y="222" on="0"/>
        <pt x="280" y="116" on="0"/>
        <pt x="351" y="116" on="0"/>
        <pt x="394" y="218" on="0"/>
        <pt x="394" y="416" on="0"/>
        <pt x="365" y="589" on="0"/>
        <pt x="350" y="627" on="1"/>
        <pt x="336" y="665" on="1"/>
        <pt x="336" y="668" on="0"/>
        <pt x="351" y="686" on="0"/>
        <pt x="360" y="692" on="1"/>
        <pt x="384" y="706" on="0"/>
        <pt x="423" y="706" on="1"/>
        <pt x="588" y="706" on="0"/>
        <pt x="588" y="410" on="1"/>
        <pt x="588" y="282" on="0"/>
        <pt x="530" y="101" on="0"/>
        <pt x="393" y="-6" on="0"/>
        <pt x="287" y="-6" on="1"/>
        <pt x="148" y="-6" on="0"/>
        <pt x="19" y="190" on="0"/>
      </contour>
      <contour>
        <pt x="287" y="835" on="0"/>
        <pt x="287" y="714" on="0"/>
        <pt x="139" y="714" on="0"/>
        <pt x="139" y="835" on="0"/>
      </contour>
      <contour>
        <pt x="388" y="846" on="1"/>
        <pt x="462" y="846" on="0"/>
        <pt x="462" y="725" on="0"/>
        <pt x="314" y="725" on="0"/>
        <pt x="314" y="785" on="1"/>
        <pt x="314" y="818" on="0"/>
        <pt x="351" y="846" on="0"/>
      </contour>
    </TTGlyph>
    <TTGlyph name="Ugrave" xMin="19" yMin="-6" xMax="588" yMax="864">
      <contour>
        <pt x="19" y="357" on="1"/>
        <pt x="19" y="405" on="0"/>
        <pt x="35" y="498" on="0"/>
        <pt x="43" y="520" on="1"/>
        <pt x="51" y="543" on="1"/>
        <pt x="34" y="619" on="1"/>
        <pt x="41" y="640" on="0"/>
        <pt x="68" y="660" on="1"/>
        <pt x="98" y="681" on="0"/>
        <pt x="224" y="681" on="0"/>
        <pt x="275" y="639" on="0"/>
        <pt x="275" y="599" on="1"/>
        <pt x="275" y="578" on="0"/>
        <pt x="241" y="410" on="0"/>
        <pt x="241" y="222" on="0"/>
        <pt x="280" y="116" on="0"/>
        <pt x="351" y="116" on="0"/>
        <pt x="394" y="218" on="0"/>
        <pt x="394" y="416" on="0"/>
        <pt x="365" y="589" on="0"/>
        <pt x="350" y="627" on="1"/>
        <pt x="336" y="665" on="1"/>
        <pt x="336" y="668" on="0"/>
        <pt x="351" y="686" on="0"/>
        <pt x="360" y="692" on="1"/>
        <pt x="384" y="706" on="0"/>
        <pt x="423" y="706" on="1"/>
        <pt x="588" y="706" on="0"/>
        <pt x="588" y="410" on="1"/>
        <pt x="588" y="282" on="0"/>
        <pt x="530" y="101" on="0"/>
        <pt x="393" y="-6" on="0"/>
        <pt x="287" y="-6" on="1"/>
        <pt x="148" y="-6" on="0"/>
        <pt x="19" y="190" on="0"/>
      </contour>
      <contour>
        <pt x="129" y="731" on="0"/>
        <pt x="79" y="771" on="0"/>
        <pt x="79" y="814" on="0"/>
        <pt x="98" y="850" on="0"/>
        <pt x="107" y="857" on="1"/>
        <pt x="116" y="864" on="1"/>
        <pt x="125" y="861" on="0"/>
        <pt x="153" y="852" on="0"/>
        <pt x="226" y="821" on="0"/>
        <pt x="281" y="790" on="0"/>
        <pt x="327" y="745" on="0"/>
        <pt x="327" y="729" on="1"/>
        <pt x="327" y="702" on="0"/>
        <pt x="311" y="678" on="1"/>
        <pt x="302" y="680" on="0"/>
        <pt x="270" y="685" on="0"/>
        <pt x="190" y="707" on="0"/>
      </contour>
    </TTGlyph>
    <TTGlyph name="V" xMin="14" yMin="0" xMax="553" yMax="722">
      <contour>
        <pt x="138" y="709" on="1"/>
        <pt x="198" y="709" on="0"/>
        <pt x="261" y="630" on="0"/>
        <pt x="272" y="523" on="1"/>
        <pt x="272" y="472" on="0"/>
        <pt x="308" y="238" on="0"/>
        <pt x="327" y="163" on="0"/>
        <pt x="339" y="131" on="1"/>
        <pt x="399" y="483" on="0"/>
        <pt x="399" y="702" on="1"/>
        <pt x="445" y="722" on="0"/>
        <pt x="477" y="722" on="1"/>
        <pt x="553" y="722" on="0"/>
        <pt x="553" y="611" on="1"/>
        <pt x="553" y="487" on="0"/>
        <pt x="512" y="272" on="1"/>
        <pt x="492" y="167" on="0"/>
        <pt x="414" y="18" on="0"/>
        <pt x="366" y="18" on="1"/>
        <pt x="360" y="18" on="1"/>
        <pt x="331" y="0" on="0"/>
        <pt x="247" y="0" on="0"/>
        <pt x="210" y="6" on="0"/>
        <pt x="163" y="34" on="0"/>
        <pt x="134" y="93" on="0"/>
        <pt x="118" y="144" on="1"/>
        <pt x="90" y="232" on="0"/>
        <pt x="69" y="465" on="1"/>
        <pt x="68" y="501" on="0"/>
        <pt x="41" y="558" on="0"/>
        <pt x="28" y="568" on="1"/>
        <pt x="16" y="578" on="1"/>
        <pt x="18" y="579" on="0"/>
        <pt x="15" y="595" on="0"/>
        <pt x="15" y="610" on="0"/>
        <pt x="26" y="644" on="0"/>
        <pt x="45" y="682" on="0"/>
        <pt x="99" y="709" on="0"/>
      </contour>
    </TTGlyph>
    <TTGlyph name="W" xMin="16" yMin="0" xMax="877" yMax="710">
      <contour>
        <pt x="664" y="18" on="1"/>
        <pt x="660" y="18" on="1"/>
        <pt x="635" y="0" on="0"/>
        <pt x="595" y="0" on="1"/>
        <pt x="540" y="0" on="0"/>
        <pt x="483" y="128" on="0"/>
        <pt x="461" y="297" on="1"/>
        <pt x="414" y="18" on="0"/>
        <pt x="325" y="18" on="1"/>
        <pt x="316" y="18" on="0"/>
        <pt x="312" y="19" on="1"/>
        <pt x="279" y="0" on="0"/>
        <pt x="182" y="0" on="0"/>
        <pt x="120" y="75" on="0"/>
        <pt x="81" y="273" on="0"/>
        <pt x="69" y="465" on="1"/>
        <pt x="68" y="501" on="0"/>
        <pt x="41" y="558" on="0"/>
        <pt x="28" y="568" on="1"/>
        <pt x="16" y="578" on="1"/>
        <pt x="16" y="595" on="0"/>
        <pt x="32" y="646" on="0"/>
        <pt x="56" y="681" on="0"/>
        <pt x="107" y="709" on="0"/>
        <pt x="141" y="709" on="1"/>
        <pt x="251" y="709" on="0"/>
        <pt x="268" y="567" on="1"/>
        <pt x="275" y="501" on="0"/>
        <pt x="276" y="430" on="1"/>
        <pt x="277" y="222" on="0"/>
        <pt x="307" y="132" on="1"/>
        <pt x="373" y="388" on="0"/>
        <pt x="386" y="607" on="1"/>
        <pt x="382" y="621" on="0"/>
        <pt x="382" y="655" on="0"/>
        <pt x="394" y="674" on="1"/>
        <pt x="413" y="704" on="0"/>
        <pt x="522" y="704" on="0"/>
        <pt x="577" y="646" on="0"/>
        <pt x="589" y="569" on="1"/>
        <pt x="611" y="290" on="0"/>
        <pt x="653" y="131" on="1"/>
        <pt x="696" y="281" on="0"/>
        <pt x="696" y="462" on="1"/>
        <pt x="696" y="569" on="0"/>
        <pt x="681" y="688" on="1"/>
        <pt x="709" y="709" on="0"/>
        <pt x="765" y="709" on="1"/>
        <pt x="791" y="709" on="0"/>
        <pt x="840" y="693" on="0"/>
        <pt x="877" y="631" on="0"/>
        <pt x="877" y="579" on="1"/>
        <pt x="877" y="460" on="0"/>
        <pt x="837" y="246" on="0"/>
        <pt x="775" y="102" on="0"/>
        <pt x="700" y="18" on="0"/>
      </contour>
    </TTGlyph>
    <TTGlyph name="X" xMin="14" yMin="0" xMax="550" yMax="709">
      <contour>
        <pt x="550" y="569" on="0"/>
        <pt x="477" y="384" on="0"/>
        <pt x="428" y="328" on="1"/>
        <pt x="547" y="69" on="1"/>
        <pt x="545" y="63" on="0"/>
        <pt x="519" y="33" on="0"/>
        <pt x="506" y="24" on="1"/>
        <pt x="471" y="0" on="0"/>
        <pt x="427" y="0" on="1"/>
        <pt x="363" y="0" on="0"/>
        <pt x="299" y="92" on="0"/>
        <pt x="253" y="249" on="1"/>
        <pt x="218" y="20" on="1"/>
        <pt x="194" y="0" on="0"/>
        <pt x="142" y="0" on="1"/>
        <pt x="40" y="0" on="0"/>
        <pt x="40" y="83" on="1"/>
        <pt x="40" y="105" on="0"/>
        <pt x="95" y="259" on="0"/>
        <pt x="131" y="325" on="1"/>
        <pt x="14" y="624" on="1"/>
        <pt x="17" y="634" on="0"/>
        <pt x="39" y="666" on="0"/>
        <pt x="52" y="676" on="1"/>
        <pt x="89" y="705" on="0"/>
        <pt x="211" y="705" on="0"/>
        <pt x="235" y="660" on="1"/>
        <pt x="266" y="601" on="0"/>
        <pt x="316" y="375" on="1"/>
        <pt x="373" y="689" on="1"/>
        <pt x="401" y="709" on="0"/>
        <pt x="465" y="709" on="1"/>
        <pt x="522" y="709" on="0"/>
        <pt x="538" y="683" on="1"/>
        <pt x="550" y="664" on="0"/>
      </contour>
    </TTGlyph>
    <TTGlyph name="Y" xMin="14" yMin="0" xMax="550" yMax="709">
      <contour>
        <pt x="518" y="486" on="1"/>
        <pt x="443" y="262" on="0"/>
        <pt x="385" y="206" on="1"/>
        <pt x="392" y="96" on="0"/>
        <pt x="402" y="29" on="1"/>
        <pt x="353" y="0" on="0"/>
        <pt x="280" y="0" on="1"/>
        <pt x="238" y="0" on="0"/>
        <pt x="182" y="34" on="0"/>
        <pt x="183" y="61" on="1"/>
        <pt x="183" y="140" on="0"/>
        <pt x="187" y="205" on="1"/>
        <pt x="170" y="221" on="0"/>
        <pt x="161" y="245" on="1"/>
        <pt x="14" y="624" on="1"/>
        <pt x="17" y="634" on="0"/>
        <pt x="39" y="666" on="0"/>
        <pt x="52" y="676" on="1"/>
        <pt x="89" y="705" on="0"/>
        <pt x="146" y="705" on="1"/>
        <pt x="190" y="705" on="0"/>
        <pt x="212" y="672" on="1"/>
        <pt x="236" y="635" on="0"/>
        <pt x="259" y="538" on="0"/>
        <pt x="272" y="474" on="0"/>
        <pt x="294" y="364" on="0"/>
        <pt x="304" y="320" on="1"/>
        <pt x="373" y="689" on="1"/>
        <pt x="401" y="709" on="0"/>
        <pt x="465" y="709" on="1"/>
        <pt x="522" y="709" on="0"/>
        <pt x="538" y="683" on="1"/>
        <pt x="550" y="664" on="0"/>
        <pt x="550" y="581" on="0"/>
      </contour>
    </TTGlyph>
    <TTGlyph name="Yacute" xMin="14" yMin="0" xMax="550" yMax="875">
      <contour>
        <pt x="518" y="486" on="1"/>
        <pt x="443" y="262" on="0"/>
        <pt x="385" y="206" on="1"/>
        <pt x="392" y="96" on="0"/>
        <pt x="402" y="29" on="1"/>
        <pt x="353" y="0" on="0"/>
        <pt x="280" y="0" on="1"/>
        <pt x="238" y="0" on="0"/>
        <pt x="182" y="34" on="0"/>
        <pt x="183" y="61" on="1"/>
        <pt x="183" y="140" on="0"/>
        <pt x="187" y="205" on="1"/>
        <pt x="170" y="221" on="0"/>
        <pt x="161" y="245" on="1"/>
        <pt x="14" y="624" on="1"/>
        <pt x="17" y="634" on="0"/>
        <pt x="39" y="666" on="0"/>
        <pt x="52" y="676" on="1"/>
        <pt x="89" y="705" on="0"/>
        <pt x="146" y="705" on="1"/>
        <pt x="190" y="705" on="0"/>
        <pt x="212" y="672" on="1"/>
        <pt x="236" y="635" on="0"/>
        <pt x="259" y="538" on="0"/>
        <pt x="272" y="474" on="0"/>
        <pt x="294" y="364" on="0"/>
        <pt x="304" y="320" on="1"/>
        <pt x="373" y="689" on="1"/>
        <pt x="401" y="709" on="0"/>
        <pt x="465" y="709" on="1"/>
        <pt x="522" y="709" on="0"/>
        <pt x="538" y="683" on="1"/>
        <pt x="550" y="664" on="0"/>
        <pt x="550" y="581" on="0"/>
      </contour>
      <contour>
        <pt x="227" y="689" on="1"/>
        <pt x="211" y="709" on="0"/>
        <pt x="211" y="768" on="0"/>
        <pt x="316" y="838" on="0"/>
        <pt x="369" y="856" on="1"/>
        <pt x="422" y="875" on="1"/>
        <pt x="426" y="872" on="0"/>
        <pt x="438" y="862" on="0"/>
        <pt x="459" y="825" on="0"/>
        <pt x="459" y="804" on="1"/>
        <pt x="459" y="769" on="0"/>
        <pt x="343" y="712" on="0"/>
        <pt x="285" y="700" on="1"/>
      </contour>
    </TTGlyph>
    <TTGlyph name="Ydieresis" xMin="14" yMin="0" xMax="550" yMax="850">
      <contour>
        <pt x="518" y="486" on="1"/>
        <pt x="443" y="262" on="0"/>
        <pt x="385" y="206" on="1"/>
        <pt x="392" y="96" on="0"/>
        <pt x="402" y="29" on="1"/>
        <pt x="353" y="0" on="0"/>
        <pt x="280" y="0" on="1"/>
        <pt x="238" y="0" on="0"/>
        <pt x="182" y="34" on="0"/>
        <pt x="183" y="61" on="1"/>
        <pt x="183" y="140" on="0"/>
        <pt x="187" y="205" on="1"/>
        <pt x="170" y="221" on="0"/>
        <pt x="161" y="245" on="1"/>
        <pt x="14" y="624" on="1"/>
        <pt x="17" y="634" on="0"/>
        <pt x="39" y="666" on="0"/>
        <pt x="52" y="676" on="1"/>
        <pt x="89" y="705" on="0"/>
        <pt x="146" y="705" on="1"/>
        <pt x="190" y="705" on="0"/>
        <pt x="212" y="672" on="1"/>
        <pt x="236" y="635" on="0"/>
        <pt x="259" y="538" on="0"/>
        <pt x="272" y="474" on="0"/>
        <pt x="294" y="364" on="0"/>
        <pt x="304" y="320" on="1"/>
        <pt x="373" y="689" on="1"/>
        <pt x="401" y="709" on="0"/>
        <pt x="465" y="709" on="1"/>
        <pt x="522" y="709" on="0"/>
        <pt x="538" y="683" on="1"/>
        <pt x="550" y="664" on="0"/>
        <pt x="550" y="581" on="0"/>
      </contour>
      <contour>
        <pt x="288" y="839" on="0"/>
        <pt x="288" y="718" on="0"/>
        <pt x="140" y="718" on="0"/>
        <pt x="140" y="839" on="0"/>
      </contour>
      <contour>
        <pt x="389" y="850" on="1"/>
        <pt x="463" y="850" on="0"/>
        <pt x="463" y="729" on="0"/>
        <pt x="315" y="729" on="0"/>
        <pt x="315" y="789" on="1"/>
        <pt x="315" y="822" on="0"/>
        <pt x="352" y="850" on="0"/>
      </contour>
    </TTGlyph>
    <TTGlyph name="Z" xMin="25" yMin="0" xMax="471" yMax="714">
      <contour>
        <pt x="220" y="470" on="1"/>
        <pt x="214" y="470" on="0"/>
        <pt x="176" y="472" on="0"/>
        <pt x="101" y="472" on="0"/>
        <pt x="50" y="461" on="1"/>
        <pt x="25" y="505" on="0"/>
        <pt x="25" y="573" on="1"/>
        <pt x="25" y="714" on="0"/>
        <pt x="148" y="714" on="1"/>
        <pt x="215" y="714" on="0"/>
        <pt x="408" y="703" on="0"/>
        <pt x="437" y="703" on="1"/>
        <pt x="441" y="700" on="0"/>
        <pt x="452" y="686" on="0"/>
        <pt x="471" y="622" on="0"/>
        <pt x="471" y="517" on="0"/>
        <pt x="432" y="487" on="1"/>
        <pt x="425" y="449" on="0"/>
        <pt x="372" y="363" on="0"/>
        <pt x="324" y="310" on="0"/>
        <pt x="223" y="209" on="0"/>
        <pt x="204" y="188" on="1"/>
        <pt x="302" y="176" on="0"/>
        <pt x="311" y="176" on="1"/>
        <pt x="365" y="176" on="0"/>
        <pt x="444" y="190" on="1"/>
        <pt x="457" y="133" on="0"/>
        <pt x="457" y="76" on="0"/>
        <pt x="443" y="47" on="0"/>
        <pt x="428" y="31" on="1"/>
        <pt x="400" y="0" on="0"/>
        <pt x="255" y="0" on="0"/>
        <pt x="160" y="13" on="0"/>
        <pt x="144" y="20" on="1"/>
        <pt x="128" y="26" on="1"/>
        <pt x="119" y="0" on="0"/>
        <pt x="57" y="0" on="0"/>
        <pt x="26" y="50" on="0"/>
        <pt x="26" y="68" on="1"/>
        <pt x="26" y="126" on="0"/>
        <pt x="60" y="159" on="1"/>
        <pt x="73" y="208" on="0"/>
        <pt x="144" y="298" on="1"/>
        <pt x="169" y="329" on="0"/>
        <pt x="263" y="442" on="0"/>
        <pt x="282" y="465" on="1"/>
        <pt x="279" y="465" on="0"/>
        <pt x="253" y="467" on="1"/>
      </contour>
    </TTGlyph>
    <TTGlyph name="Zcaron" xMin="25" yMin="0" xMax="471" yMax="714">
      <contour>
        <pt x="220" y="470" on="1"/>
        <pt x="214" y="470" on="0"/>
        <pt x="176" y="472" on="0"/>
        <pt x="101" y="472" on="0"/>
        <pt x="50" y="461" on="1"/>
        <pt x="25" y="505" on="0"/>
        <pt x="25" y="573" on="1"/>
        <pt x="25" y="714" on="0"/>
        <pt x="148" y="714" on="1"/>
        <pt x="215" y="714" on="0"/>
        <pt x="408" y="703" on="0"/>
        <pt x="437" y="703" on="1"/>
        <pt x="441" y="700" on="0"/>
        <pt x="452" y="686" on="0"/>
        <pt x="471" y="622" on="0"/>
        <pt x="471" y="517" on="0"/>
        <pt x="432" y="487" on="1"/>
        <pt x="425" y="449" on="0"/>
        <pt x="372" y="363" on="0"/>
        <pt x="324" y="310" on="0"/>
        <pt x="223" y="209" on="0"/>
        <pt x="204" y="188" on="1"/>
        <pt x="302" y="176" on="0"/>
        <pt x="311" y="176" on="1"/>
        <pt x="365" y="176" on="0"/>
        <pt x="444" y="190" on="1"/>
        <pt x="457" y="133" on="0"/>
        <pt x="457" y="76" on="0"/>
        <pt x="443" y="47" on="0"/>
        <pt x="428" y="31" on="1"/>
        <pt x="400" y="0" on="0"/>
        <pt x="255" y="0" on="0"/>
        <pt x="160" y="13" on="0"/>
        <pt x="144" y="20" on="1"/>
        <pt x="128" y="26" on="1"/>
        <pt x="119" y="0" on="0"/>
        <pt x="57" y="0" on="0"/>
        <pt x="26" y="50" on="0"/>
        <pt x="26" y="68" on="1"/>
        <pt x="26" y="126" on="0"/>
        <pt x="60" y="159" on="1"/>
        <pt x="73" y="208" on="0"/>
        <pt x="144" y="298" on="1"/>
        <pt x="169" y="329" on="0"/>
        <pt x="263" y="442" on="0"/>
        <pt x="282" y="465" on="1"/>
        <pt x="279" y="465" on="0"/>
        <pt x="253" y="467" on="1"/>
      </contour>
    </TTGlyph>
    <TTGlyph name="a" xMin="30" yMin="0" xMax="412" yMax="530">
      <contour>
        <pt x="236" y="301" on="1"/>
        <pt x="236" y="372" on="0"/>
        <pt x="157" y="372" on="1"/>
        <pt x="112" y="372" on="0"/>
        <pt x="63" y="343" on="1"/>
        <pt x="47" y="359" on="0"/>
        <pt x="47" y="406" on="0"/>
        <pt x="74" y="456" on="0"/>
        <pt x="119" y="501" on="0"/>
        <pt x="189" y="530" on="0"/>
        <pt x="228" y="530" on="1"/>
        <pt x="306" y="530" on="0"/>
        <pt x="390" y="432" on="0"/>
        <pt x="390" y="341" on="1"/>
        <pt x="390" y="112" on="1"/>
        <pt x="412" y="61" on="1"/>
        <pt x="408" y="54" on="0"/>
        <pt x="394" y="34" on="0"/>
        <pt x="346" y="0" on="0"/>
        <pt x="320" y="0" on="1"/>
        <pt x="255" y="0" on="0"/>
        <pt x="241" y="72" on="1"/>
        <pt x="208" y="0" on="0"/>
        <pt x="91" y="0" on="0"/>
        <pt x="30" y="73" on="0"/>
        <pt x="30" y="132" on="1"/>
        <pt x="30" y="285" on="0"/>
        <pt x="236" y="294" on="1"/>
      </contour>
      <contour>
        <pt x="155" y="169" on="1"/>
        <pt x="155" y="130" on="0"/>
        <pt x="182" y="119" on="1"/>
        <pt x="188" y="116" on="0"/>
        <pt x="195" y="116" on="1"/>
        <pt x="215" y="116" on="0"/>
        <pt x="236" y="139" on="1"/>
        <pt x="236" y="249" on="1"/>
        <pt x="155" y="230" on="0"/>
      </contour>
    </TTGlyph>
    <TTGlyph name="aacute" xMin="30" yMin="0" xMax="412" yMax="732">
      <contour>
        <pt x="236" y="301" on="1"/>
        <pt x="236" y="372" on="0"/>
        <pt x="157" y="372" on="1"/>
        <pt x="112" y="372" on="0"/>
        <pt x="63" y="343" on="1"/>
        <pt x="47" y="359" on="0"/>
        <pt x="47" y="406" on="0"/>
        <pt x="74" y="456" on="0"/>
        <pt x="119" y="501" on="0"/>
        <pt x="189" y="530" on="0"/>
        <pt x="228" y="530" on="1"/>
        <pt x="306" y="530" on="0"/>
        <pt x="390" y="432" on="0"/>
        <pt x="390" y="341" on="1"/>
        <pt x="390" y="112" on="1"/>
        <pt x="412" y="61" on="1"/>
        <pt x="408" y="54" on="0"/>
        <pt x="394" y="34" on="0"/>
        <pt x="346" y="0" on="0"/>
        <pt x="320" y="0" on="1"/>
        <pt x="255" y="0" on="0"/>
        <pt x="241" y="72" on="1"/>
        <pt x="208" y="0" on="0"/>
        <pt x="91" y="0" on="0"/>
        <pt x="30" y="73" on="0"/>
        <pt x="30" y="132" on="1"/>
        <pt x="30" y="285" on="0"/>
        <pt x="236" y="294" on="1"/>
      </contour>
      <contour>
        <pt x="155" y="169" on="1"/>
        <pt x="155" y="130" on="0"/>
        <pt x="182" y="119" on="1"/>
        <pt x="188" y="116" on="0"/>
        <pt x="195" y="116" on="1"/>
        <pt x="215" y="116" on="0"/>
        <pt x="236" y="139" on="1"/>
        <pt x="236" y="249" on="1"/>
        <pt x="155" y="230" on="0"/>
      </contour>
      <contour>
        <pt x="121" y="546" on="1"/>
        <pt x="105" y="566" on="0"/>
        <pt x="105" y="625" on="0"/>
        <pt x="210" y="695" on="0"/>
        <pt x="263" y="714" on="1"/>
        <pt x="316" y="732" on="1"/>
        <pt x="320" y="729" on="0"/>
        <pt x="332" y="719" on="0"/>
        <pt x="353" y="682" on="0"/>
        <pt x="353" y="661" on="1"/>
        <pt x="353" y="626" on="0"/>
        <pt x="237" y="569" on="0"/>
        <pt x="179" y="558" on="1"/>
      </contour>
    </TTGlyph>
    <TTGlyph name="acircumflex" xMin="30" yMin="0" xMax="412" yMax="677">
      <contour>
        <pt x="236" y="301" on="1"/>
        <pt x="236" y="372" on="0"/>
        <pt x="157" y="372" on="1"/>
        <pt x="112" y="372" on="0"/>
        <pt x="63" y="343" on="1"/>
        <pt x="47" y="359" on="0"/>
        <pt x="47" y="406" on="0"/>
        <pt x="74" y="456" on="0"/>
        <pt x="119" y="501" on="0"/>
        <pt x="189" y="530" on="0"/>
        <pt x="228" y="530" on="1"/>
        <pt x="306" y="530" on="0"/>
        <pt x="390" y="432" on="0"/>
        <pt x="390" y="341" on="1"/>
        <pt x="390" y="112" on="1"/>
        <pt x="412" y="61" on="1"/>
        <pt x="408" y="54" on="0"/>
        <pt x="394" y="34" on="0"/>
        <pt x="346" y="0" on="0"/>
        <pt x="320" y="0" on="1"/>
        <pt x="255" y="0" on="0"/>
        <pt x="241" y="72" on="1"/>
        <pt x="208" y="0" on="0"/>
        <pt x="91" y="0" on="0"/>
        <pt x="30" y="73" on="0"/>
        <pt x="30" y="132" on="1"/>
        <pt x="30" y="285" on="0"/>
        <pt x="236" y="294" on="1"/>
      </contour>
      <contour>
        <pt x="155" y="169" on="1"/>
        <pt x="155" y="130" on="0"/>
        <pt x="182" y="119" on="1"/>
        <pt x="188" y="116" on="0"/>
        <pt x="195" y="116" on="1"/>
        <pt x="215" y="116" on="0"/>
        <pt x="236" y="139" on="1"/>
        <pt x="236" y="249" on="1"/>
        <pt x="155" y="230" on="0"/>
      </contour>
      <contour>
        <pt x="68" y="594" on="1"/>
        <pt x="68" y="611" on="0"/>
        <pt x="165" y="677" on="0"/>
        <pt x="205" y="677" on="1"/>
        <pt x="227" y="677" on="0"/>
        <pt x="295" y="644" on="0"/>
        <pt x="318" y="627" on="1"/>
        <pt x="342" y="610" on="1"/>
        <pt x="342" y="592" on="0"/>
        <pt x="337" y="568" on="0"/>
        <pt x="313" y="547" on="0"/>
        <pt x="269" y="547" on="0"/>
        <pt x="225" y="578" on="0"/>
        <pt x="214" y="594" on="1"/>
        <pt x="202" y="610" on="1"/>
        <pt x="123" y="547" on="1"/>
        <pt x="68" y="547" on="0"/>
      </contour>
    </TTGlyph>
    <TTGlyph name="acute" xMin="70" yMin="728" xMax="318" yMax="914">
      <contour>
        <pt x="86" y="728" on="1"/>
        <pt x="70" y="748" on="0"/>
        <pt x="70" y="807" on="0"/>
        <pt x="176" y="877" on="0"/>
        <pt x="228" y="896" on="1"/>
        <pt x="281" y="914" on="1"/>
        <pt x="285" y="911" on="0"/>
        <pt x="297" y="901" on="0"/>
        <pt x="318" y="864" on="0"/>
        <pt x="318" y="843" on="1"/>
        <pt x="318" y="808" on="0"/>
        <pt x="202" y="751" on="0"/>
        <pt x="144" y="740" on="1"/>
      </contour>
    </TTGlyph>
    <TTGlyph name="adieresis" xMin="30" yMin="0" xMax="412" yMax="678">
      <contour>
        <pt x="236" y="301" on="1"/>
        <pt x="236" y="372" on="0"/>
        <pt x="157" y="372" on="1"/>
        <pt x="112" y="372" on="0"/>
        <pt x="63" y="343" on="1"/>
        <pt x="47" y="359" on="0"/>
        <pt x="47" y="406" on="0"/>
        <pt x="74" y="456" on="0"/>
        <pt x="119" y="501" on="0"/>
        <pt x="189" y="530" on="0"/>
        <pt x="228" y="530" on="1"/>
        <pt x="306" y="530" on="0"/>
        <pt x="390" y="432" on="0"/>
        <pt x="390" y="341" on="1"/>
        <pt x="390" y="112" on="1"/>
        <pt x="412" y="61" on="1"/>
        <pt x="408" y="54" on="0"/>
        <pt x="394" y="34" on="0"/>
        <pt x="346" y="0" on="0"/>
        <pt x="320" y="0" on="1"/>
        <pt x="255" y="0" on="0"/>
        <pt x="241" y="72" on="1"/>
        <pt x="208" y="0" on="0"/>
        <pt x="91" y="0" on="0"/>
        <pt x="30" y="73" on="0"/>
        <pt x="30" y="132" on="1"/>
        <pt x="30" y="285" on="0"/>
        <pt x="236" y="294" on="1"/>
      </contour>
      <contour>
        <pt x="155" y="169" on="1"/>
        <pt x="155" y="130" on="0"/>
        <pt x="182" y="119" on="1"/>
        <pt x="188" y="116" on="0"/>
        <pt x="195" y="116" on="1"/>
        <pt x="215" y="116" on="0"/>
        <pt x="236" y="139" on="1"/>
        <pt x="236" y="249" on="1"/>
        <pt x="155" y="230" on="0"/>
      </contour>
      <contour>
        <pt x="211" y="667" on="0"/>
        <pt x="211" y="546" on="0"/>
        <pt x="63" y="546" on="0"/>
        <pt x="63" y="667" on="0"/>
      </contour>
      <contour>
        <pt x="312" y="678" on="1"/>
        <pt x="386" y="678" on="0"/>
        <pt x="386" y="557" on="0"/>
        <pt x="238" y="557" on="0"/>
        <pt x="238" y="617" on="1"/>
        <pt x="238" y="650" on="0"/>
        <pt x="275" y="678" on="0"/>
      </contour>
    </TTGlyph>
    <TTGlyph name="ae" xMin="24" yMin="0" xMax="598" yMax="530">
      <contour>
        <pt x="230" y="301" on="1"/>
        <pt x="230" y="372" on="0"/>
        <pt x="151" y="372" on="1"/>
        <pt x="106" y="372" on="0"/>
        <pt x="57" y="343" on="1"/>
        <pt x="41" y="359" on="0"/>
        <pt x="41" y="406" on="0"/>
        <pt x="68" y="456" on="0"/>
        <pt x="113" y="501" on="0"/>
        <pt x="183" y="530" on="0"/>
        <pt x="222" y="530" on="1"/>
        <pt x="303" y="530" on="0"/>
        <pt x="346" y="476" on="1"/>
        <pt x="360" y="501" on="0"/>
        <pt x="432" y="530" on="0"/>
        <pt x="470" y="530" on="1"/>
        <pt x="527" y="530" on="0"/>
        <pt x="598" y="448" on="0"/>
        <pt x="598" y="377" on="1"/>
        <pt x="598" y="294" on="0"/>
        <pt x="536" y="246" on="1"/>
        <pt x="487" y="206" on="0"/>
        <pt x="417" y="185" on="1"/>
        <pt x="453" y="140" on="0"/>
        <pt x="535" y="140" on="1"/>
        <pt x="557" y="140" on="0"/>
        <pt x="583" y="143" on="1"/>
        <pt x="594" y="132" on="0"/>
        <pt x="594" y="96" on="0"/>
        <pt x="575" y="59" on="0"/>
        <pt x="539" y="24" on="0"/>
        <pt x="471" y="0" on="0"/>
        <pt x="428" y="0" on="1"/>
        <pt x="324" y="0" on="0"/>
        <pt x="273" y="76" on="1"/>
        <pt x="224" y="0" on="0"/>
        <pt x="143" y="0" on="1"/>
        <pt x="85" y="0" on="0"/>
        <pt x="24" y="73" on="0"/>
        <pt x="24" y="132" on="1"/>
        <pt x="24" y="287" on="0"/>
        <pt x="230" y="296" on="1"/>
      </contour>
      <contour>
        <pt x="149" y="169" on="1"/>
        <pt x="149" y="146" on="0"/>
        <pt x="175" y="118" on="0"/>
        <pt x="227" y="118" on="0"/>
        <pt x="246" y="136" on="1"/>
        <pt x="234" y="178" on="0"/>
        <pt x="234" y="238" on="1"/>
        <pt x="234" y="250" on="1"/>
        <pt x="149" y="231" on="0"/>
      </contour>
      <contour>
        <pt x="459" y="328" on="1"/>
        <pt x="459" y="389" on="0"/>
        <pt x="384" y="395" on="1"/>
        <pt x="384" y="305" on="1"/>
        <pt x="384" y="259" on="0"/>
        <pt x="393" y="233" on="1"/>
        <pt x="459" y="271" on="0"/>
      </contour>
    </TTGlyph>
    <TTGlyph name="agrave" xMin="30" yMin="0" xMax="412" yMax="732">
      <contour>
        <pt x="236" y="301" on="1"/>
        <pt x="236" y="372" on="0"/>
        <pt x="157" y="372" on="1"/>
        <pt x="112" y="372" on="0"/>
        <pt x="63" y="343" on="1"/>
        <pt x="47" y="359" on="0"/>
        <pt x="47" y="406" on="0"/>
        <pt x="74" y="456" on="0"/>
        <pt x="119" y="501" on="0"/>
        <pt x="189" y="530" on="0"/>
        <pt x="228" y="530" on="1"/>
        <pt x="306" y="530" on="0"/>
        <pt x="390" y="432" on="0"/>
        <pt x="390" y="341" on="1"/>
        <pt x="390" y="112" on="1"/>
        <pt x="412" y="61" on="1"/>
        <pt x="408" y="54" on="0"/>
        <pt x="394" y="34" on="0"/>
        <pt x="346" y="0" on="0"/>
        <pt x="320" y="0" on="1"/>
        <pt x="255" y="0" on="0"/>
        <pt x="241" y="72" on="1"/>
        <pt x="208" y="0" on="0"/>
        <pt x="91" y="0" on="0"/>
        <pt x="30" y="73" on="0"/>
        <pt x="30" y="132" on="1"/>
        <pt x="30" y="285" on="0"/>
        <pt x="236" y="294" on="1"/>
      </contour>
      <contour>
        <pt x="155" y="169" on="1"/>
        <pt x="155" y="130" on="0"/>
        <pt x="182" y="119" on="1"/>
        <pt x="188" y="116" on="0"/>
        <pt x="195" y="116" on="1"/>
        <pt x="215" y="116" on="0"/>
        <pt x="236" y="139" on="1"/>
        <pt x="236" y="249" on="1"/>
        <pt x="155" y="230" on="0"/>
      </contour>
      <contour>
        <pt x="127" y="599" on="0"/>
        <pt x="77" y="639" on="0"/>
        <pt x="77" y="682" on="0"/>
        <pt x="96" y="718" on="0"/>
        <pt x="105" y="725" on="1"/>
        <pt x="114" y="732" on="1"/>
        <pt x="123" y="729" on="0"/>
        <pt x="151" y="720" on="0"/>
        <pt x="224" y="689" on="0"/>
        <pt x="279" y="658" on="0"/>
        <pt x="325" y="613" on="0"/>
        <pt x="325" y="597" on="1"/>
        <pt x="325" y="570" on="0"/>
        <pt x="309" y="546" on="1"/>
        <pt x="300" y="548" on="0"/>
        <pt x="268" y="553" on="0"/>
        <pt x="188" y="575" on="0"/>
      </contour>
    </TTGlyph>
    <TTGlyph name="ampersand" xMin="32" yMin="0" xMax="630" yMax="721">
      <contour>
        <pt x="408" y="253" on="1"/>
        <pt x="418" y="296" on="0"/>
        <pt x="566" y="296" on="0"/>
        <pt x="588" y="307" on="1"/>
        <pt x="600" y="301" on="0"/>
        <pt x="620" y="264" on="0"/>
        <pt x="620" y="243" on="1"/>
        <pt x="620" y="167" on="0"/>
        <pt x="499" y="167" on="1"/>
        <pt x="496" y="167" on="0"/>
        <pt x="493" y="167" on="1"/>
        <pt x="548" y="117" on="0"/>
        <pt x="612" y="71" on="1"/>
        <pt x="630" y="58" on="1"/>
        <pt x="629" y="56" on="0"/>
        <pt x="626" y="48" on="0"/>
        <pt x="613" y="28" on="0"/>
        <pt x="604" y="20" on="1"/>
        <pt x="579" y="0" on="0"/>
        <pt x="541" y="0" on="1"/>
        <pt x="480" y="0" on="0"/>
        <pt x="405" y="68" on="1"/>
        <pt x="357" y="0" on="0"/>
        <pt x="141" y="0" on="0"/>
        <pt x="32" y="109" on="0"/>
        <pt x="32" y="266" on="0"/>
        <pt x="102" y="354" on="0"/>
        <pt x="153" y="370" on="1"/>
        <pt x="110" y="453" on="0"/>
        <pt x="110" y="612" on="0"/>
        <pt x="207" y="721" on="0"/>
        <pt x="307" y="721" on="1"/>
        <pt x="505" y="721" on="0"/>
        <pt x="505" y="530" on="1"/>
        <pt x="505" y="421" on="0"/>
        <pt x="453" y="370" on="1"/>
        <pt x="411" y="328" on="0"/>
        <pt x="369" y="328" on="1"/>
        <pt x="358" y="328" on="0"/>
        <pt x="347" y="331" on="1"/>
        <pt x="371" y="295" on="0"/>
      </contour>
      <contour>
        <pt x="288" y="490" on="1"/>
        <pt x="288" y="429" on="0"/>
        <pt x="330" y="358" on="1"/>
        <pt x="370" y="400" on="0"/>
        <pt x="370" y="491" on="1"/>
        <pt x="370" y="531" on="0"/>
        <pt x="347" y="571" on="0"/>
        <pt x="329" y="571" on="1"/>
        <pt x="288" y="571" on="0"/>
      </contour>
      <contour>
        <pt x="205" y="217" on="1"/>
        <pt x="205" y="118" on="0"/>
        <pt x="308" y="118" on="1"/>
        <pt x="330" y="118" on="0"/>
        <pt x="350" y="121" on="1"/>
        <pt x="307" y="166" on="1"/>
        <pt x="251" y="223" on="0"/>
        <pt x="210" y="280" on="1"/>
        <pt x="205" y="259" on="0"/>
      </contour>
    </TTGlyph>
    <TTGlyph name="apple" xMin="212" yMin="77" xMax="1513" yMax="806">
      <contour>
        <pt x="238" y="190" on="1"/>
        <pt x="241" y="277" on="1"/>
        <pt x="212" y="277" on="1"/>
        <pt x="212" y="365" on="1"/>
        <pt x="340" y="407" on="1"/>
        <pt x="344" y="376" on="1"/>
        <pt x="519" y="376" on="1"/>
        <pt x="517" y="268" on="0"/>
        <pt x="517" y="264" on="1"/>
        <pt x="517" y="236" on="0"/>
        <pt x="550" y="236" on="0"/>
        <pt x="550" y="264" on="1"/>
        <pt x="548" y="376" on="1"/>
        <pt x="660" y="376" on="1"/>
        <pt x="667" y="315" on="0"/>
        <pt x="667" y="147" on="0"/>
        <pt x="590" y="77" on="0"/>
        <pt x="508" y="77" on="1"/>
        <pt x="475" y="77" on="0"/>
        <pt x="426" y="88" on="0"/>
        <pt x="418" y="94" on="1"/>
        <pt x="409" y="100" on="1"/>
        <pt x="409" y="188" on="1"/>
        <pt x="436" y="167" on="0"/>
        <pt x="549" y="167" on="0"/>
        <pt x="562" y="205" on="1"/>
        <pt x="547" y="190" on="0"/>
        <pt x="501" y="190" on="1"/>
        <pt x="403" y="190" on="0"/>
        <pt x="403" y="268" on="1"/>
        <pt x="403" y="277" on="1"/>
        <pt x="357" y="277" on="1"/>
        <pt x="357" y="212" on="1"/>
        <pt x="373" y="212" on="0"/>
        <pt x="387" y="218" on="1"/>
        <pt x="387" y="140" on="1"/>
        <pt x="368" y="122" on="0"/>
        <pt x="316" y="122" on="1"/>
        <pt x="238" y="122" on="0"/>
      </contour>
      <contour>
        <pt x="775" y="501" on="1"/>
        <pt x="793" y="501" on="0"/>
        <pt x="805" y="508" on="1"/>
        <pt x="805" y="429" on="1"/>
        <pt x="785" y="411" on="0"/>
        <pt x="734" y="411" on="1"/>
        <pt x="656" y="411" on="0"/>
        <pt x="656" y="479" on="1"/>
        <pt x="656" y="495" on="0"/>
        <pt x="657" y="532" on="1"/>
        <pt x="658" y="570" on="1"/>
        <pt x="634" y="570" on="1"/>
        <pt x="634" y="658" on="1"/>
        <pt x="757" y="696" on="1"/>
        <pt x="761" y="665" on="1"/>
        <pt x="943" y="665" on="1"/>
        <pt x="952" y="598" on="0"/>
        <pt x="952" y="418" on="1"/>
        <pt x="831" y="418" on="1"/>
        <pt x="831" y="534" on="0"/>
        <pt x="833" y="570" on="1"/>
        <pt x="775" y="570" on="1"/>
      </contour>
      <contour>
        <pt x="821" y="77" on="1"/>
        <pt x="687" y="77" on="1"/>
        <pt x="687" y="238" on="0"/>
        <pt x="696" y="342" on="1"/>
        <pt x="699" y="376" on="1"/>
        <pt x="781" y="376" on="1"/>
        <pt x="789" y="322" on="0"/>
        <pt x="789" y="297" on="1"/>
        <pt x="803" y="385" on="0"/>
        <pt x="871" y="385" on="1"/>
        <pt x="908" y="385" on="0"/>
        <pt x="954" y="322" on="0"/>
        <pt x="954" y="196" on="0"/>
        <pt x="884" y="122" on="0"/>
        <pt x="819" y="122" on="1"/>
        <pt x="821" y="106" on="0"/>
      </contour>
      <contour>
        <pt x="620" y="418" on="1"/>
        <pt x="540" y="418" on="1"/>
        <pt x="530" y="479" on="1"/>
        <pt x="517" y="411" on="0"/>
        <pt x="452" y="411" on="1"/>
        <pt x="357" y="411" on="0"/>
        <pt x="357" y="530" on="1"/>
        <pt x="357" y="599" on="0"/>
        <pt x="423" y="669" on="0"/>
        <pt x="497" y="669" on="1"/>
        <pt x="620" y="669" on="0"/>
        <pt x="620" y="550" on="1"/>
      </contour>
      <contour>
        <pt x="1091" y="517" on="1"/>
        <pt x="1096" y="418" on="1"/>
        <pt x="976" y="418" on="1"/>
        <pt x="976" y="579" on="0"/>
        <pt x="985" y="644" on="1"/>
        <pt x="988" y="665" on="1"/>
        <pt x="1068" y="665" on="1"/>
        <pt x="1075" y="626" on="0"/>
        <pt x="1075" y="592" on="1"/>
        <pt x="1077" y="611" on="0"/>
        <pt x="1090" y="632" on="1"/>
        <pt x="1115" y="669" on="0"/>
        <pt x="1201" y="669" on="0"/>
        <pt x="1234" y="616" on="0"/>
        <pt x="1238" y="548" on="1"/>
        <pt x="1245" y="418" on="1"/>
        <pt x="1123" y="418" on="1"/>
        <pt x="1125" y="517" on="1"/>
        <pt x="1125" y="544" on="0"/>
        <pt x="1109" y="544" on="1"/>
        <pt x="1091" y="544" on="0"/>
      </contour>
      <contour>
        <pt x="1457" y="669" on="0"/>
        <pt x="1513" y="598" on="0"/>
        <pt x="1513" y="479" on="0"/>
        <pt x="1448" y="411" on="0"/>
        <pt x="1321" y="411" on="0"/>
        <pt x="1257" y="479" on="0"/>
        <pt x="1257" y="537" on="1"/>
        <pt x="1257" y="669" on="0"/>
        <pt x="1384" y="669" on="1"/>
      </contour>
      <contour>
        <pt x="1115" y="200" on="0"/>
        <pt x="1169" y="200" on="0"/>
        <pt x="1189" y="216" on="1"/>
        <pt x="1189" y="139" on="1"/>
        <pt x="1167" y="122" on="0"/>
        <pt x="1041" y="122" on="0"/>
        <pt x="972" y="190" on="0"/>
        <pt x="972" y="250" on="1"/>
        <pt x="972" y="385" on="0"/>
        <pt x="1102" y="385" on="1"/>
        <pt x="1157" y="385" on="0"/>
        <pt x="1221" y="320" on="0"/>
        <pt x="1221" y="264" on="1"/>
        <pt x="1216" y="226" on="1"/>
        <pt x="1089" y="226" on="1"/>
        <pt x="1089" y="216" on="0"/>
      </contour>
      <contour>
        <pt x="337" y="418" on="1"/>
        <pt x="214" y="418" on="1"/>
        <pt x="214" y="579" on="0"/>
        <pt x="223" y="702" on="1"/>
        <pt x="226" y="743" on="1"/>
        <pt x="326" y="743" on="1"/>
        <pt x="337" y="598" on="0"/>
      </contour>
      <contour>
        <pt x="918" y="678" on="0"/>
        <pt x="864" y="678" on="0"/>
        <pt x="829" y="716" on="0"/>
        <pt x="829" y="769" on="0"/>
        <pt x="864" y="806" on="0"/>
        <pt x="918" y="806" on="0"/>
        <pt x="954" y="769" on="0"/>
        <pt x="954" y="716" on="0"/>
      </contour>
      <contour>
        <pt x="1301" y="300" on="0"/>
        <pt x="1269" y="300" on="0"/>
        <pt x="1245" y="323" on="0"/>
        <pt x="1245" y="355" on="0"/>
        <pt x="1269" y="378" on="0"/>
        <pt x="1301" y="378" on="0"/>
        <pt x="1324" y="355" on="0"/>
        <pt x="1324" y="323" on="0"/>
      </contour>
      <contour>
        <pt x="1317" y="326" on="0"/>
        <pt x="1317" y="352" on="0"/>
        <pt x="1298" y="371" on="0"/>
        <pt x="1272" y="371" on="0"/>
        <pt x="1253" y="352" on="0"/>
        <pt x="1253" y="326" on="0"/>
        <pt x="1272" y="307" on="0"/>
        <pt x="1298" y="307" on="0"/>
      </contour>
      <contour>
        <pt x="1384" y="494" on="1"/>
        <pt x="1410" y="494" on="0"/>
        <pt x="1410" y="554" on="0"/>
        <pt x="1384" y="554" on="1"/>
        <pt x="1360" y="554" on="0"/>
        <pt x="1360" y="494" on="0"/>
      </contour>
      <contour>
        <pt x="492" y="494" on="1"/>
        <pt x="517" y="494" on="0"/>
        <pt x="517" y="554" on="0"/>
        <pt x="492" y="554" on="1"/>
        <pt x="470" y="554" on="0"/>
        <pt x="470" y="494" on="0"/>
      </contour>
      <contour>
        <pt x="844" y="246" on="1"/>
        <pt x="844" y="268" on="0"/>
        <pt x="824" y="268" on="1"/>
        <pt x="799" y="268" on="0"/>
        <pt x="799" y="236" on="1"/>
        <pt x="803" y="208" on="1"/>
        <pt x="817" y="208" on="0"/>
        <pt x="844" y="230" on="0"/>
      </contour>
      <contour>
        <pt x="1082" y="252" on="1"/>
        <pt x="1124" y="252" on="1"/>
        <pt x="1125" y="255" on="0"/>
        <pt x="1125" y="261" on="1"/>
        <pt x="1125" y="281" on="0"/>
        <pt x="1106" y="281" on="1"/>
        <pt x="1082" y="281" on="0"/>
      </contour>
      <contour>
        <pt x="1278" y="332" on="1"/>
        <pt x="1278" y="320" on="1"/>
        <pt x="1270" y="320" on="1"/>
        <pt x="1270" y="359" on="1"/>
        <pt x="1287" y="359" on="1"/>
        <pt x="1303" y="359" on="0"/>
        <pt x="1303" y="337" on="0"/>
        <pt x="1294" y="334" on="1"/>
        <pt x="1303" y="320" on="1"/>
        <pt x="1293" y="320" on="1"/>
        <pt x="1286" y="332" on="1"/>
      </contour>
      <contour>
        <pt x="1278" y="339" on="1"/>
        <pt x="1287" y="339" on="1"/>
        <pt x="1294" y="339" on="0"/>
        <pt x="1294" y="352" on="0"/>
        <pt x="1287" y="352" on="1"/>
        <pt x="1278" y="352" on="1"/>
      </contour>
    </TTGlyph>
    <TTGlyph name="approxequal" xMin="23" yMin="151" xMax="409" yMax="455">
      <contour>
        <pt x="388" y="434" on="0"/>
        <pt x="409" y="402" on="0"/>
        <pt x="409" y="343" on="0"/>
        <pt x="353" y="297" on="0"/>
        <pt x="293" y="297" on="1"/>
        <pt x="260" y="297" on="0"/>
        <pt x="167" y="330" on="0"/>
        <pt x="146" y="330" on="1"/>
        <pt x="102" y="330" on="0"/>
        <pt x="70" y="318" on="1"/>
        <pt x="59" y="313" on="1"/>
        <pt x="55" y="314" on="0"/>
        <pt x="43" y="319" on="0"/>
        <pt x="23" y="349" on="0"/>
        <pt x="23" y="409" on="0"/>
        <pt x="78" y="455" on="0"/>
        <pt x="138" y="455" on="1"/>
        <pt x="169" y="455" on="0"/>
        <pt x="269" y="423" on="0"/>
        <pt x="289" y="422" on="1"/>
        <pt x="325" y="422" on="0"/>
        <pt x="361" y="436" on="1"/>
        <pt x="372" y="441" on="1"/>
        <pt x="376" y="440" on="0"/>
      </contour>
      <contour>
        <pt x="171" y="280" on="0"/>
        <pt x="271" y="253" on="0"/>
        <pt x="290" y="253" on="1"/>
        <pt x="331" y="253" on="0"/>
        <pt x="361" y="264" on="1"/>
        <pt x="372" y="268" on="1"/>
        <pt x="376" y="267" on="0"/>
        <pt x="388" y="263" on="0"/>
        <pt x="408" y="237" on="0"/>
        <pt x="408" y="188" on="0"/>
        <pt x="353" y="151" on="0"/>
        <pt x="262" y="151" on="0"/>
        <pt x="169" y="177" on="0"/>
        <pt x="148" y="177" on="1"/>
        <pt x="110" y="177" on="0"/>
        <pt x="76" y="166" on="1"/>
        <pt x="64" y="163" on="1"/>
        <pt x="60" y="164" on="0"/>
        <pt x="48" y="168" on="0"/>
        <pt x="29" y="194" on="0"/>
        <pt x="29" y="213" on="1"/>
        <pt x="29" y="280" on="0"/>
        <pt x="141" y="280" on="1"/>
      </contour>
    </TTGlyph>
    <TTGlyph name="aring" xMin="30" yMin="0" xMax="412" yMax="760">
      <contour>
        <pt x="236" y="301" on="1"/>
        <pt x="236" y="372" on="0"/>
        <pt x="157" y="372" on="1"/>
        <pt x="112" y="372" on="0"/>
        <pt x="63" y="343" on="1"/>
        <pt x="47" y="359" on="0"/>
        <pt x="47" y="406" on="0"/>
        <pt x="74" y="456" on="0"/>
        <pt x="119" y="501" on="0"/>
        <pt x="189" y="530" on="0"/>
        <pt x="228" y="530" on="1"/>
        <pt x="306" y="530" on="0"/>
        <pt x="390" y="432" on="0"/>
        <pt x="390" y="341" on="1"/>
        <pt x="390" y="112" on="1"/>
        <pt x="412" y="61" on="1"/>
        <pt x="408" y="54" on="0"/>
        <pt x="394" y="34" on="0"/>
        <pt x="346" y="0" on="0"/>
        <pt x="320" y="0" on="1"/>
        <pt x="255" y="0" on="0"/>
        <pt x="241" y="72" on="1"/>
        <pt x="208" y="0" on="0"/>
        <pt x="91" y="0" on="0"/>
        <pt x="30" y="73" on="0"/>
        <pt x="30" y="132" on="1"/>
        <pt x="30" y="285" on="0"/>
        <pt x="236" y="294" on="1"/>
      </contour>
      <contour>
        <pt x="155" y="169" on="1"/>
        <pt x="155" y="130" on="0"/>
        <pt x="182" y="119" on="1"/>
        <pt x="188" y="116" on="0"/>
        <pt x="195" y="116" on="1"/>
        <pt x="215" y="116" on="0"/>
        <pt x="236" y="139" on="1"/>
        <pt x="236" y="249" on="1"/>
        <pt x="155" y="230" on="0"/>
      </contour>
      <contour>
        <pt x="354" y="652" on="1"/>
        <pt x="354" y="546" on="0"/>
        <pt x="92" y="546" on="0"/>
        <pt x="92" y="652" on="1"/>
        <pt x="92" y="760" on="0"/>
        <pt x="221" y="760" on="1"/>
        <pt x="286" y="760" on="0"/>
        <pt x="354" y="711" on="0"/>
      </contour>
      <contour>
        <pt x="260" y="619" on="0"/>
        <pt x="260" y="681" on="0"/>
        <pt x="184" y="681" on="0"/>
        <pt x="184" y="619" on="0"/>
      </contour>
    </TTGlyph>
    <TTGlyph name="asciicircum" xMin="35" yMin="448" xMax="376" yMax="747">
      <contour>
        <pt x="143" y="469" on="0"/>
        <pt x="117" y="450" on="0"/>
        <pt x="75" y="450" on="0"/>
        <pt x="41" y="484" on="0"/>
        <pt x="38" y="500" on="1"/>
        <pt x="35" y="517" on="1"/>
        <pt x="53" y="547" on="0"/>
        <pt x="123" y="688" on="0"/>
        <pt x="171" y="747" on="0"/>
        <pt x="242" y="747" on="0"/>
        <pt x="326" y="662" on="0"/>
        <pt x="376" y="554" on="0"/>
        <pt x="376" y="490" on="0"/>
        <pt x="338" y="448" on="0"/>
        <pt x="277" y="448" on="0"/>
        <pt x="246" y="462" on="1"/>
        <pt x="246" y="493" on="0"/>
        <pt x="221" y="576" on="0"/>
        <pt x="208" y="602" on="1"/>
        <pt x="196" y="629" on="1"/>
        <pt x="194" y="617" on="1"/>
        <pt x="184" y="554" on="0"/>
        <pt x="161" y="500" on="0"/>
      </contour>
    </TTGlyph>
    <TTGlyph name="asciitilde" xMin="17" yMin="207" xMax="337" yMax="396">
      <contour>
        <pt x="278" y="396" on="1"/>
        <pt x="337" y="396" on="0"/>
        <pt x="337" y="333" on="1"/>
        <pt x="337" y="283" on="0"/>
        <pt x="278" y="207" on="0"/>
        <pt x="220" y="207" on="1"/>
        <pt x="190" y="207" on="0"/>
        <pt x="136" y="236" on="0"/>
        <pt x="124" y="250" on="1"/>
        <pt x="112" y="265" on="1"/>
        <pt x="111" y="262" on="0"/>
        <pt x="110" y="256" on="1"/>
        <pt x="107" y="238" on="1"/>
        <pt x="105" y="226" on="0"/>
        <pt x="101" y="211" on="1"/>
        <pt x="90" y="208" on="0"/>
        <pt x="76" y="208" on="1"/>
        <pt x="17" y="208" on="0"/>
        <pt x="17" y="277" on="1"/>
        <pt x="17" y="316" on="0"/>
        <pt x="68" y="384" on="0"/>
        <pt x="141" y="384" on="0"/>
        <pt x="202" y="355" on="0"/>
        <pt x="216" y="340" on="1"/>
        <pt x="231" y="326" on="1"/>
        <pt x="252" y="393" on="1"/>
        <pt x="263" y="396" on="0"/>
      </contour>
    </TTGlyph>
    <TTGlyph name="asterisk" xMin="21" yMin="418" xMax="330" yMax="724">
      <contour>
        <pt x="330" y="583" on="1"/>
        <pt x="330" y="526" on="0"/>
        <pt x="246" y="526" on="1"/>
        <pt x="291" y="466" on="1"/>
        <pt x="291" y="454" on="0"/>
        <pt x="280" y="441" on="1"/>
        <pt x="261" y="418" on="0"/>
        <pt x="232" y="418" on="1"/>
        <pt x="184" y="418" on="0"/>
        <pt x="160" y="480" on="1"/>
        <pt x="116" y="422" on="1"/>
        <pt x="92" y="422" on="0"/>
        <pt x="53" y="452" on="0"/>
        <pt x="53" y="515" on="0"/>
        <pt x="93" y="545" on="1"/>
        <pt x="26" y="560" on="1"/>
        <pt x="21" y="572" on="0"/>
        <pt x="21" y="615" on="0"/>
        <pt x="50" y="642" on="0"/>
        <pt x="105" y="642" on="0"/>
        <pt x="130" y="628" on="1"/>
        <pt x="135" y="713" on="1"/>
        <pt x="151" y="724" on="0"/>
        <pt x="176" y="724" on="1"/>
        <pt x="236" y="724" on="0"/>
        <pt x="236" y="661" on="1"/>
        <pt x="236" y="648" on="0"/>
        <pt x="231" y="621" on="1"/>
        <pt x="299" y="637" on="1"/>
        <pt x="310" y="633" on="0"/>
        <pt x="330" y="601" on="0"/>
      </contour>
    </TTGlyph>
    <TTGlyph name="at" xMin="18" yMin="-127" xMax="618" yMax="564">
      <contour>
        <pt x="445" y="41" on="1"/>
        <pt x="418" y="41" on="0"/>
        <pt x="398" y="50" on="1"/>
        <pt x="370" y="64" on="0"/>
        <pt x="367" y="81" on="1"/>
        <pt x="363" y="74" on="0"/>
        <pt x="348" y="57" on="0"/>
        <pt x="299" y="32" on="0"/>
        <pt x="269" y="32" on="1"/>
        <pt x="216" y="32" on="0"/>
        <pt x="157" y="100" on="0"/>
        <pt x="157" y="169" on="1"/>
        <pt x="157" y="269" on="0"/>
        <pt x="265" y="404" on="0"/>
        <pt x="357" y="404" on="1"/>
        <pt x="469" y="404" on="0"/>
        <pt x="469" y="291" on="1"/>
        <pt x="469" y="266" on="0"/>
        <pt x="452" y="192" on="0"/>
        <pt x="448" y="155" on="0"/>
        <pt x="456" y="134" on="0"/>
        <pt x="480" y="134" on="0"/>
        <pt x="506" y="163" on="0"/>
        <pt x="526" y="236" on="0"/>
        <pt x="526" y="288" on="1"/>
        <pt x="526" y="452" on="0"/>
        <pt x="355" y="452" on="1"/>
        <pt x="248" y="452" on="0"/>
        <pt x="109" y="298" on="0"/>
        <pt x="109" y="158" on="1"/>
        <pt x="109" y="61" on="0"/>
        <pt x="205" y="-25" on="0"/>
        <pt x="266" y="-25" on="1"/>
        <pt x="299" y="-25" on="0"/>
        <pt x="347" y="-5" on="0"/>
        <pt x="354" y="5" on="1"/>
        <pt x="362" y="15" on="1"/>
        <pt x="390" y="3" on="0"/>
        <pt x="390" y="-74" on="0"/>
        <pt x="332" y="-127" on="0"/>
        <pt x="260" y="-127" on="1"/>
        <pt x="146" y="-127" on="0"/>
        <pt x="18" y="29" on="0"/>
        <pt x="18" y="162" on="1"/>
        <pt x="18" y="331" on="0"/>
        <pt x="102" y="444" on="1"/>
        <pt x="143" y="500" on="0"/>
        <pt x="282" y="564" on="0"/>
        <pt x="371" y="564" on="1"/>
        <pt x="499" y="564" on="0"/>
        <pt x="618" y="426" on="0"/>
        <pt x="618" y="183" on="0"/>
        <pt x="529" y="41" on="0"/>
      </contour>
      <contour>
        <pt x="356" y="274" on="1"/>
        <pt x="356" y="291" on="0"/>
        <pt x="312" y="291" on="0"/>
        <pt x="279" y="224" on="0"/>
        <pt x="279" y="119" on="0"/>
        <pt x="310" y="119" on="1"/>
        <pt x="318" y="119" on="0"/>
        <pt x="336" y="124" on="1"/>
        <pt x="335" y="128" on="0"/>
        <pt x="335" y="166" on="0"/>
        <pt x="344" y="221" on="0"/>
        <pt x="348" y="237" on="1"/>
        <pt x="356" y="262" on="0"/>
      </contour>
    </TTGlyph>
    <TTGlyph name="atilde" xMin="30" yMin="0" xMax="412" yMax="680">
      <contour>
        <pt x="236" y="301" on="1"/>
        <pt x="236" y="372" on="0"/>
        <pt x="157" y="372" on="1"/>
        <pt x="112" y="372" on="0"/>
        <pt x="63" y="343" on="1"/>
        <pt x="47" y="359" on="0"/>
        <pt x="47" y="406" on="0"/>
        <pt x="74" y="456" on="0"/>
        <pt x="119" y="501" on="0"/>
        <pt x="189" y="530" on="0"/>
        <pt x="228" y="530" on="1"/>
        <pt x="306" y="530" on="0"/>
        <pt x="390" y="432" on="0"/>
        <pt x="390" y="341" on="1"/>
        <pt x="390" y="112" on="1"/>
        <pt x="412" y="61" on="1"/>
        <pt x="408" y="54" on="0"/>
        <pt x="394" y="34" on="0"/>
        <pt x="346" y="0" on="0"/>
        <pt x="320" y="0" on="1"/>
        <pt x="255" y="0" on="0"/>
        <pt x="241" y="72" on="1"/>
        <pt x="208" y="0" on="0"/>
        <pt x="91" y="0" on="0"/>
        <pt x="30" y="73" on="0"/>
        <pt x="30" y="132" on="1"/>
        <pt x="30" y="285" on="0"/>
        <pt x="236" y="294" on="1"/>
      </contour>
      <contour>
        <pt x="155" y="169" on="1"/>
        <pt x="155" y="130" on="0"/>
        <pt x="182" y="119" on="1"/>
        <pt x="188" y="116" on="0"/>
        <pt x="195" y="116" on="1"/>
        <pt x="215" y="116" on="0"/>
        <pt x="236" y="139" on="1"/>
        <pt x="236" y="249" on="1"/>
        <pt x="155" y="230" on="0"/>
      </contour>
      <contour>
        <pt x="276" y="546" on="0"/>
        <pt x="174" y="579" on="0"/>
        <pt x="126" y="579" on="0"/>
        <pt x="101" y="558" on="1"/>
        <pt x="72" y="574" on="0"/>
        <pt x="72" y="608" on="1"/>
        <pt x="72" y="680" on="0"/>
        <pt x="149" y="680" on="1"/>
        <pt x="173" y="680" on="0"/>
        <pt x="276" y="647" on="0"/>
        <pt x="325" y="647" on="0"/>
        <pt x="348" y="670" on="1"/>
        <pt x="376" y="649" on="0"/>
        <pt x="376" y="611" on="1"/>
        <pt x="376" y="546" on="0"/>
        <pt x="302" y="546" on="1"/>
      </contour>
    </TTGlyph>
    <TTGlyph name="b" xMin="10" yMin="0" xMax="421" yMax="703">
      <contour>
        <pt x="185" y="578" on="1"/>
        <pt x="185" y="480" on="1"/>
        <pt x="226" y="530" on="0"/>
        <pt x="349" y="530" on="0"/>
        <pt x="421" y="451" on="0"/>
        <pt x="421" y="382" on="1"/>
        <pt x="421" y="226" on="1"/>
        <pt x="421" y="136" on="0"/>
        <pt x="289" y="0" on="0"/>
        <pt x="199" y="0" on="1"/>
        <pt x="125" y="0" on="0"/>
        <pt x="32" y="89" on="0"/>
        <pt x="32" y="144" on="1"/>
        <pt x="32" y="498" on="1"/>
        <pt x="32" y="581" on="0"/>
        <pt x="16" y="636" on="1"/>
        <pt x="10" y="655" on="1"/>
        <pt x="14" y="660" on="0"/>
        <pt x="29" y="676" on="0"/>
        <pt x="79" y="703" on="0"/>
        <pt x="106" y="703" on="1"/>
        <pt x="185" y="703" on="0"/>
      </contour>
      <contour>
        <pt x="267" y="127" on="1"/>
        <pt x="267" y="311" on="1"/>
        <pt x="267" y="366" on="0"/>
        <pt x="231" y="403" on="0"/>
        <pt x="185" y="403" on="1"/>
        <pt x="185" y="196" on="1"/>
        <pt x="185" y="127" on="0"/>
      </contour>
    </TTGlyph>
    <TTGlyph name="backslash" xMin="-5" yMin="-21" xMax="366" yMax="710">
      <contour>
        <pt x="74" y="710" on="1"/>
        <pt x="120" y="710" on="0"/>
        <pt x="164" y="659" on="0"/>
        <pt x="187" y="593" on="1"/>
        <pt x="366" y="17" on="1"/>
        <pt x="364" y="13" on="0"/>
        <pt x="356" y="0" on="0"/>
        <pt x="316" y="-21" on="0"/>
        <pt x="250" y="-21" on="0"/>
        <pt x="206" y="34" on="0"/>
        <pt x="184" y="95" on="1"/>
        <pt x="-5" y="638" on="1"/>
        <pt x="-5" y="646" on="0"/>
        <pt x="7" y="675" on="0"/>
        <pt x="22" y="694" on="0"/>
        <pt x="54" y="710" on="0"/>
      </contour>
    </TTGlyph>
    <TTGlyph name="bar" xMin="58" yMin="-64" xMax="202" yMax="717">
      <contour>
        <pt x="58" y="672" on="0"/>
        <pt x="108" y="717" on="0"/>
        <pt x="178" y="717" on="0"/>
        <pt x="202" y="697" on="1"/>
        <pt x="202" y="123" on="1"/>
        <pt x="200" y="19" on="0"/>
        <pt x="163" y="-64" on="0"/>
        <pt x="118" y="-64" on="1"/>
        <pt x="93" y="-64" on="0"/>
        <pt x="79" y="-54" on="1"/>
        <pt x="79" y="25" on="0"/>
        <pt x="58" y="609" on="0"/>
        <pt x="58" y="626" on="1"/>
      </contour>
    </TTGlyph>
    <TTGlyph name="braceleft" xMin="23" yMin="-48" xMax="355" yMax="742">
      <contour>
        <pt x="305" y="742" on="0"/>
        <pt x="355" y="709" on="0"/>
        <pt x="355" y="640" on="0"/>
        <pt x="343" y="612" on="1"/>
        <pt x="273" y="612" on="0"/>
        <pt x="231" y="559" on="0"/>
        <pt x="231" y="387" on="0"/>
        <pt x="219" y="340" on="1"/>
        <pt x="244" y="319" on="0"/>
        <pt x="244" y="259" on="0"/>
        <pt x="231" y="195" on="0"/>
        <pt x="231" y="174" on="1"/>
        <pt x="231" y="130" on="0"/>
        <pt x="277" y="102" on="0"/>
        <pt x="337" y="102" on="1"/>
        <pt x="349" y="84" on="0"/>
        <pt x="349" y="3" on="0"/>
        <pt x="300" y="-48" on="0"/>
        <pt x="225" y="-48" on="1"/>
        <pt x="72" y="-48" on="0"/>
        <pt x="72" y="102" on="1"/>
        <pt x="72" y="170" on="0"/>
        <pt x="99" y="265" on="1"/>
        <pt x="56" y="269" on="0"/>
        <pt x="23" y="298" on="0"/>
        <pt x="23" y="317" on="1"/>
        <pt x="23" y="348" on="0"/>
        <pt x="31" y="366" on="1"/>
        <pt x="99" y="385" on="0"/>
        <pt x="99" y="435" on="1"/>
        <pt x="99" y="451" on="0"/>
        <pt x="72" y="554" on="0"/>
        <pt x="72" y="589" on="1"/>
        <pt x="72" y="668" on="0"/>
        <pt x="157" y="742" on="0"/>
        <pt x="245" y="742" on="1"/>
      </contour>
    </TTGlyph>
    <TTGlyph name="braceright" xMin="23" yMin="-48" xMax="355" yMax="742">
      <contour>
        <pt x="23" y="24" on="1"/>
        <pt x="23" y="55" on="0"/>
        <pt x="35" y="83" on="1"/>
        <pt x="105" y="83" on="0"/>
        <pt x="147" y="136" on="0"/>
        <pt x="147" y="282" on="0"/>
        <pt x="159" y="334" on="1"/>
        <pt x="135" y="356" on="0"/>
        <pt x="135" y="415" on="0"/>
        <pt x="147" y="499" on="0"/>
        <pt x="147" y="520" on="1"/>
        <pt x="147" y="564" on="0"/>
        <pt x="101" y="593" on="0"/>
        <pt x="41" y="593" on="1"/>
        <pt x="30" y="611" on="0"/>
        <pt x="30" y="692" on="0"/>
        <pt x="78" y="742" on="0"/>
        <pt x="154" y="742" on="1"/>
        <pt x="306" y="742" on="0"/>
        <pt x="306" y="593" on="1"/>
        <pt x="306" y="500" on="0"/>
        <pt x="280" y="409" on="1"/>
        <pt x="322" y="405" on="0"/>
        <pt x="355" y="376" on="0"/>
        <pt x="355" y="357" on="1"/>
        <pt x="355" y="324" on="0"/>
        <pt x="348" y="308" on="1"/>
        <pt x="280" y="290" on="0"/>
        <pt x="280" y="240" on="1"/>
        <pt x="280" y="223" on="0"/>
        <pt x="301" y="121" on="0"/>
        <pt x="301" y="87" on="1"/>
        <pt x="301" y="24" on="0"/>
        <pt x="223" y="-48" on="0"/>
        <pt x="144" y="-48" on="1"/>
        <pt x="23" y="-48" on="0"/>
      </contour>
    </TTGlyph>
    <TTGlyph name="bracketleft" xMin="58" yMin="-117" xMax="337" yMax="774">
      <contour>
        <pt x="207" y="547" on="1"/>
        <pt x="207" y="127" on="1"/>
        <pt x="207" y="83" on="0"/>
        <pt x="253" y="35" on="0"/>
        <pt x="316" y="35" on="1"/>
        <pt x="328" y="-10" on="0"/>
        <pt x="328" y="-94" on="1"/>
        <pt x="304" y="-117" on="0"/>
        <pt x="133" y="-117" on="0"/>
        <pt x="58" y="-18" on="0"/>
        <pt x="58" y="99" on="1"/>
        <pt x="58" y="559" on="1"/>
        <pt x="58" y="676" on="0"/>
        <pt x="133" y="774" on="0"/>
        <pt x="293" y="774" on="0"/>
        <pt x="326" y="766" on="1"/>
        <pt x="337" y="764" on="1"/>
        <pt x="337" y="691" on="0"/>
        <pt x="321" y="638" on="1"/>
        <pt x="316" y="622" on="1"/>
        <pt x="251" y="622" on="0"/>
        <pt x="207" y="588" on="0"/>
      </contour>
    </TTGlyph>
    <TTGlyph name="bracketright" xMin="58" yMin="-117" xMax="337" yMax="774">
      <contour>
        <pt x="189" y="110" on="1"/>
        <pt x="189" y="530" on="1"/>
        <pt x="189" y="574" on="0"/>
        <pt x="142" y="622" on="0"/>
        <pt x="79" y="622" on="1"/>
        <pt x="68" y="667" on="0"/>
        <pt x="68" y="752" on="1"/>
        <pt x="91" y="774" on="0"/>
        <pt x="262" y="774" on="0"/>
        <pt x="337" y="676" on="0"/>
        <pt x="337" y="559" on="1"/>
        <pt x="337" y="99" on="1"/>
        <pt x="337" y="-18" on="0"/>
        <pt x="262" y="-117" on="0"/>
        <pt x="102" y="-117" on="0"/>
        <pt x="69" y="-110" on="1"/>
        <pt x="58" y="-107" on="1"/>
        <pt x="58" y="-28" on="0"/>
        <pt x="74" y="18" on="1"/>
        <pt x="79" y="35" on="1"/>
        <pt x="144" y="35" on="0"/>
        <pt x="189" y="69" on="0"/>
      </contour>
    </TTGlyph>
    <TTGlyph name="breve" xMin="70" yMin="742" xMax="375" yMax="914">
      <contour>
        <pt x="225" y="847" on="1"/>
        <pt x="281" y="847" on="0"/>
        <pt x="310" y="901" on="1"/>
        <pt x="331" y="901" on="0"/>
        <pt x="346" y="890" on="1"/>
        <pt x="375" y="870" on="0"/>
        <pt x="375" y="800" on="0"/>
        <pt x="304" y="742" on="0"/>
        <pt x="158" y="742" on="0"/>
        <pt x="70" y="809" on="0"/>
        <pt x="70" y="854" on="1"/>
        <pt x="70" y="877" on="0"/>
        <pt x="99" y="914" on="0"/>
        <pt x="129" y="914" on="1"/>
        <pt x="143" y="871" on="0"/>
        <pt x="186" y="854" on="1"/>
        <pt x="203" y="847" on="0"/>
      </contour>
    </TTGlyph>
    <TTGlyph name="brokenbar" xMin="58" yMin="-66" xMax="204" yMax="719">
      <contour>
        <pt x="136" y="289" on="1"/>
        <pt x="174" y="289" on="0"/>
        <pt x="197" y="270" on="1"/>
        <pt x="189" y="49" on="0"/>
        <pt x="181" y="4" on="1"/>
        <pt x="164" y="-63" on="0"/>
        <pt x="129" y="-66" on="1"/>
        <pt x="99" y="-66" on="0"/>
        <pt x="78" y="-47" on="1"/>
        <pt x="69" y="68" on="0"/>
        <pt x="69" y="199" on="1"/>
        <pt x="69" y="289" on="0"/>
      </contour>
      <contour>
        <pt x="58" y="675" on="0"/>
        <pt x="108" y="719" on="0"/>
        <pt x="185" y="719" on="0"/>
        <pt x="204" y="700" on="1"/>
        <pt x="204" y="439" on="0"/>
        <pt x="168" y="376" on="1"/>
        <pt x="150" y="346" on="0"/>
        <pt x="119" y="346" on="1"/>
        <pt x="89" y="346" on="0"/>
        <pt x="68" y="365" on="1"/>
        <pt x="58" y="498" on="0"/>
        <pt x="58" y="629" on="1"/>
      </contour>
    </TTGlyph>
    <TTGlyph name="bullet" xMin="33" yMin="132" xMax="300" yMax="406">
      <contour>
        <pt x="104" y="132" on="0"/>
        <pt x="33" y="209" on="0"/>
        <pt x="33" y="327" on="0"/>
        <pt x="105" y="406" on="0"/>
        <pt x="228" y="406" on="0"/>
        <pt x="300" y="327" on="0"/>
        <pt x="300" y="209" on="0"/>
        <pt x="228" y="132" on="0"/>
      </contour>
    </TTGlyph>
    <TTGlyph name="c" xMin="24" yMin="0" xMax="361" yMax="530">
      <contour>
        <pt x="348" y="139" on="1"/>
        <pt x="359" y="128" on="0"/>
        <pt x="359" y="92" on="0"/>
        <pt x="345" y="57" on="0"/>
        <pt x="314" y="23" on="0"/>
        <pt x="255" y="0" on="0"/>
        <pt x="180" y="0" on="0"/>
        <pt x="116" y="23" on="0"/>
        <pt x="87" y="48" on="1"/>
        <pt x="24" y="104" on="0"/>
        <pt x="24" y="359" on="0"/>
        <pt x="111" y="482" on="0"/>
        <pt x="166" y="487" on="1"/>
        <pt x="211" y="530" on="0"/>
        <pt x="261" y="530" on="1"/>
        <pt x="295" y="530" on="0"/>
        <pt x="361" y="476" on="0"/>
        <pt x="361" y="406" on="0"/>
        <pt x="312" y="342" on="0"/>
        <pt x="273" y="329" on="1"/>
        <pt x="229" y="376" on="0"/>
        <pt x="175" y="399" on="1"/>
        <pt x="175" y="305" on="1"/>
        <pt x="175" y="210" on="0"/>
        <pt x="220" y="168" on="1"/>
        <pt x="254" y="136" on="0"/>
        <pt x="312" y="136" on="1"/>
        <pt x="329" y="136" on="0"/>
      </contour>
    </TTGlyph>
    <TTGlyph name="caron" xMin="101" yMin="554" xMax="405" yMax="688">
      <contour>
        <pt x="405" y="642" on="1"/>
        <pt x="405" y="621" on="0"/>
        <pt x="298" y="554" on="0"/>
        <pt x="254" y="554" on="1"/>
        <pt x="230" y="554" on="0"/>
        <pt x="153" y="589" on="0"/>
        <pt x="127" y="606" on="1"/>
        <pt x="101" y="624" on="1"/>
        <pt x="101" y="671" on="0"/>
        <pt x="127" y="682" on="1"/>
        <pt x="139" y="688" on="0"/>
        <pt x="182" y="688" on="0"/>
        <pt x="231" y="656" on="0"/>
        <pt x="244" y="640" on="1"/>
        <pt x="257" y="624" on="1"/>
        <pt x="345" y="688" on="1"/>
        <pt x="381" y="688" on="0"/>
        <pt x="396" y="668" on="1"/>
        <pt x="405" y="658" on="0"/>
      </contour>
    </TTGlyph>
    <TTGlyph name="ccedilla" xMin="24" yMin="-179" xMax="361" yMax="530">
      <contour>
        <pt x="348" y="139" on="1"/>
        <pt x="359" y="128" on="0"/>
        <pt x="359" y="95" on="0"/>
        <pt x="346" y="60" on="0"/>
        <pt x="332" y="43" on="1"/>
        <pt x="300" y="4" on="0"/>
        <pt x="231" y="0" on="1"/>
        <pt x="231" y="-11" on="0"/>
        <pt x="280" y="-29" on="0"/>
        <pt x="330" y="-61" on="0"/>
        <pt x="330" y="-133" on="0"/>
        <pt x="273" y="-179" on="0"/>
        <pt x="205" y="-179" on="1"/>
        <pt x="147" y="-179" on="0"/>
        <pt x="110" y="-163" on="1"/>
        <pt x="99" y="-158" on="1"/>
        <pt x="101" y="-156" on="0"/>
        <pt x="98" y="-139" on="0"/>
        <pt x="98" y="-125" on="0"/>
        <pt x="117" y="-96" on="0"/>
        <pt x="149" y="-96" on="0"/>
        <pt x="174" y="-101" on="0"/>
        <pt x="195" y="-106" on="0"/>
        <pt x="204" y="-107" on="1"/>
        <pt x="225" y="-109" on="0"/>
        <pt x="225" y="-97" on="1"/>
        <pt x="225" y="-88" on="0"/>
        <pt x="194" y="-80" on="0"/>
        <pt x="162" y="-58" on="0"/>
        <pt x="162" y="-10" on="0"/>
        <pt x="173" y="4" on="1"/>
        <pt x="107" y="18" on="0"/>
        <pt x="24" y="129" on="0"/>
        <pt x="24" y="359" on="0"/>
        <pt x="111" y="482" on="0"/>
        <pt x="166" y="487" on="1"/>
        <pt x="211" y="530" on="0"/>
        <pt x="261" y="530" on="1"/>
        <pt x="295" y="530" on="0"/>
        <pt x="361" y="476" on="0"/>
        <pt x="361" y="406" on="0"/>
        <pt x="312" y="342" on="0"/>
        <pt x="273" y="329" on="1"/>
        <pt x="229" y="376" on="0"/>
        <pt x="175" y="399" on="1"/>
        <pt x="175" y="305" on="1"/>
        <pt x="175" y="210" on="0"/>
        <pt x="220" y="168" on="1"/>
        <pt x="254" y="136" on="0"/>
        <pt x="312" y="136" on="1"/>
        <pt x="329" y="136" on="0"/>
      </contour>
    </TTGlyph>
    <TTGlyph name="cedilla" xMin="206" yMin="-230" xMax="438" yMax="12">
      <contour>
        <pt x="312" y="-156" on="1"/>
        <pt x="333" y="-156" on="0"/>
        <pt x="333" y="-133" on="1"/>
        <pt x="333" y="-117" on="0"/>
        <pt x="295" y="-103" on="1"/>
        <pt x="281" y="-98" on="0"/>
        <pt x="257" y="-73" on="0"/>
        <pt x="257" y="-32" on="0"/>
        <pt x="282" y="1" on="0"/>
        <pt x="294" y="6" on="1"/>
        <pt x="306" y="12" on="1"/>
        <pt x="315" y="-14" on="0"/>
        <pt x="360" y="-46" on="0"/>
        <pt x="404" y="-58" on="0"/>
        <pt x="438" y="-93" on="0"/>
        <pt x="438" y="-123" on="1"/>
        <pt x="438" y="-176" on="0"/>
        <pt x="360" y="-230" on="0"/>
        <pt x="304" y="-230" on="1"/>
        <pt x="243" y="-230" on="0"/>
        <pt x="216" y="-214" on="1"/>
        <pt x="207" y="-209" on="1"/>
        <pt x="209" y="-207" on="0"/>
        <pt x="206" y="-190" on="0"/>
        <pt x="206" y="-176" on="0"/>
        <pt x="225" y="-147" on="0"/>
        <pt x="248" y="-147" on="1"/>
      </contour>
    </TTGlyph>
    <TTGlyph name="cent" xMin="24" yMin="-122" xMax="361" yMax="648">
      <contour>
        <pt x="146" y="610" on="0"/>
        <pt x="173" y="648" on="0"/>
        <pt x="230" y="648" on="0"/>
        <pt x="248" y="628" on="1"/>
        <pt x="244" y="582" on="0"/>
        <pt x="242" y="528" on="1"/>
        <pt x="254" y="530" on="0"/>
        <pt x="261" y="530" on="1"/>
        <pt x="295" y="530" on="0"/>
        <pt x="361" y="476" on="0"/>
        <pt x="361" y="406" on="0"/>
        <pt x="312" y="342" on="0"/>
        <pt x="273" y="329" on="1"/>
        <pt x="229" y="376" on="0"/>
        <pt x="175" y="399" on="1"/>
        <pt x="175" y="305" on="1"/>
        <pt x="175" y="210" on="0"/>
        <pt x="220" y="168" on="1"/>
        <pt x="254" y="136" on="0"/>
        <pt x="312" y="136" on="1"/>
        <pt x="329" y="136" on="0"/>
        <pt x="348" y="139" on="1"/>
        <pt x="359" y="128" on="0"/>
        <pt x="359" y="87" on="0"/>
        <pt x="337" y="43" on="0"/>
        <pt x="283" y="6" on="0"/>
        <pt x="245" y="1" on="1"/>
        <pt x="248" y="-20" on="0"/>
        <pt x="248" y="-87" on="0"/>
        <pt x="227" y="-122" on="0"/>
        <pt x="197" y="-122" on="1"/>
        <pt x="174" y="-122" on="0"/>
        <pt x="154" y="-102" on="1"/>
        <pt x="159" y="-58" on="0"/>
        <pt x="161" y="6" on="1"/>
        <pt x="24" y="44" on="0"/>
        <pt x="24" y="238" on="1"/>
        <pt x="24" y="352" on="0"/>
        <pt x="101" y="473" on="0"/>
        <pt x="154" y="484" on="1"/>
        <pt x="146" y="526" on="0"/>
      </contour>
    </TTGlyph>
    <TTGlyph name="circumflex" xMin="107" yMin="728" xMax="381" yMax="858">
      <contour>
        <pt x="107" y="774" on="1"/>
        <pt x="107" y="792" on="0"/>
        <pt x="204" y="858" on="0"/>
        <pt x="244" y="858" on="1"/>
        <pt x="266" y="858" on="0"/>
        <pt x="334" y="824" on="0"/>
        <pt x="358" y="808" on="1"/>
        <pt x="381" y="791" on="1"/>
        <pt x="381" y="773" on="0"/>
        <pt x="376" y="749" on="0"/>
        <pt x="352" y="728" on="0"/>
        <pt x="308" y="728" on="0"/>
        <pt x="264" y="760" on="0"/>
        <pt x="252" y="776" on="1"/>
        <pt x="241" y="791" on="1"/>
        <pt x="162" y="728" on="1"/>
        <pt x="107" y="728" on="0"/>
      </contour>
    </TTGlyph>
    <TTGlyph name="colon" xMin="23" yMin="0" xMax="215" yMax="530">
      <contour>
        <pt x="215" y="77" on="1"/>
        <pt x="215" y="0" on="0"/>
        <pt x="23" y="0" on="0"/>
        <pt x="23" y="77" on="1"/>
        <pt x="23" y="156" on="0"/>
        <pt x="215" y="156" on="0"/>
      </contour>
      <contour>
        <pt x="215" y="530" on="0"/>
        <pt x="215" y="374" on="0"/>
        <pt x="23" y="374" on="0"/>
        <pt x="23" y="530" on="0"/>
      </contour>
    </TTGlyph>
    <TTGlyph name="comma" xMin="23" yMin="-100" xMax="215" yMax="154">
      <contour>
        <pt x="215" y="41" on="1"/>
        <pt x="215" y="-20" on="0"/>
        <pt x="155" y="-100" on="0"/>
        <pt x="107" y="-100" on="1"/>
        <pt x="88" y="-100" on="0"/>
        <pt x="61" y="-88" on="0"/>
        <pt x="58" y="-82" on="1"/>
        <pt x="54" y="-75" on="1"/>
        <pt x="69" y="-48" on="0"/>
        <pt x="69" y="13" on="0"/>
        <pt x="46" y="57" on="0"/>
        <pt x="34" y="66" on="1"/>
        <pt x="23" y="75" on="1"/>
        <pt x="23" y="112" on="0"/>
        <pt x="74" y="154" on="0"/>
        <pt x="119" y="154" on="1"/>
        <pt x="215" y="154" on="0"/>
      </contour>
    </TTGlyph>
    <TTGlyph name="copyright" xMin="32" yMin="-16" xMax="752" yMax="736">
      <contour>
        <pt x="752" y="178" on="0"/>
        <pt x="555" y="-16" on="0"/>
        <pt x="220" y="-16" on="0"/>
        <pt x="32" y="176" on="0"/>
        <pt x="32" y="347" on="1"/>
        <pt x="32" y="542" on="0"/>
        <pt x="230" y="736" on="0"/>
        <pt x="560" y="736" on="0"/>
        <pt x="752" y="546" on="0"/>
        <pt x="752" y="374" on="1"/>
      </contour>
      <contour>
        <pt x="147" y="232" on="0"/>
        <pt x="277" y="100" on="0"/>
        <pt x="507" y="100" on="0"/>
        <pt x="641" y="232" on="0"/>
        <pt x="641" y="486" on="0"/>
        <pt x="510" y="616" on="0"/>
        <pt x="284" y="616" on="0"/>
        <pt x="147" y="482" on="0"/>
      </contour>
      <contour>
        <pt x="541" y="305" on="1"/>
        <pt x="543" y="294" on="0"/>
        <pt x="543" y="278" on="0"/>
        <pt x="537" y="238" on="0"/>
        <pt x="515" y="205" on="0"/>
        <pt x="454" y="177" on="0"/>
        <pt x="408" y="177" on="1"/>
        <pt x="325" y="177" on="0"/>
        <pt x="231" y="271" on="0"/>
        <pt x="231" y="445" on="0"/>
        <pt x="301" y="493" on="1"/>
        <pt x="288" y="506" on="1"/>
        <pt x="290" y="511" on="0"/>
        <pt x="301" y="527" on="0"/>
        <pt x="346" y="553" on="0"/>
        <pt x="413" y="553" on="0"/>
        <pt x="503" y="517" on="0"/>
        <pt x="535" y="517" on="1"/>
        <pt x="540" y="491" on="0"/>
        <pt x="540" y="453" on="0"/>
        <pt x="533" y="432" on="1"/>
        <pt x="518" y="389" on="0"/>
        <pt x="444" y="389" on="1"/>
        <pt x="404" y="389" on="0"/>
        <pt x="379" y="406" on="1"/>
        <pt x="378" y="397" on="0"/>
        <pt x="378" y="382" on="1"/>
        <pt x="378" y="317" on="0"/>
        <pt x="412" y="298" on="1"/>
        <pt x="427" y="289" on="0"/>
        <pt x="486" y="289" on="0"/>
      </contour>
    </TTGlyph>
    <TTGlyph name="currency" xMin="20" yMin="8" xMax="447" yMax="534">
      <contour>
        <pt x="383" y="533" on="1"/>
        <pt x="447" y="533" on="0"/>
        <pt x="447" y="475" on="1"/>
        <pt x="447" y="435" on="0"/>
        <pt x="415" y="383" on="1"/>
        <pt x="441" y="341" on="0"/>
        <pt x="441" y="185" on="0"/>
        <pt x="398" y="136" on="1"/>
        <pt x="441" y="65" on="1"/>
        <pt x="441" y="63" on="0"/>
        <pt x="442" y="55" on="0"/>
        <pt x="439" y="36" on="0"/>
        <pt x="434" y="29" on="1"/>
        <pt x="420" y="10" on="0"/>
        <pt x="388" y="10" on="1"/>
        <pt x="339" y="10" on="0"/>
        <pt x="280" y="72" on="1"/>
        <pt x="260" y="68" on="0"/>
        <pt x="197" y="68" on="0"/>
        <pt x="170" y="74" on="1"/>
        <pt x="126" y="32" on="0"/>
        <pt x="102" y="16" on="1"/>
        <pt x="92" y="9" on="1"/>
        <pt x="89" y="11" on="0"/>
        <pt x="71" y="9" on="0"/>
        <pt x="55" y="9" on="0"/>
        <pt x="20" y="34" on="0"/>
        <pt x="20" y="92" on="0"/>
        <pt x="56" y="147" on="1"/>
        <pt x="26" y="197" on="0"/>
        <pt x="26" y="352" on="0"/>
        <pt x="66" y="399" on="1"/>
        <pt x="27" y="483" on="1"/>
        <pt x="27" y="501" on="0"/>
        <pt x="63" y="534" on="0"/>
        <pt x="122" y="534" on="0"/>
        <pt x="161" y="508" on="0"/>
        <pt x="189" y="465" on="1"/>
        <pt x="210" y="469" on="0"/>
        <pt x="269" y="469" on="0"/>
        <pt x="294" y="464" on="1"/>
        <pt x="349" y="529" on="1"/>
        <pt x="365" y="533" on="0"/>
      </contour>
      <contour>
        <pt x="242" y="173" on="1"/>
        <pt x="290" y="173" on="0"/>
        <pt x="290" y="356" on="0"/>
        <pt x="240" y="356" on="1"/>
        <pt x="188" y="356" on="0"/>
        <pt x="188" y="268" on="1"/>
        <pt x="188" y="213" on="0"/>
        <pt x="217" y="173" on="0"/>
      </contour>
    </TTGlyph>
    <TTGlyph name="d" xMin="32" yMin="0" xMax="431" yMax="703">
      <contour>
        <pt x="410" y="578" on="1"/>
        <pt x="410" y="112" on="1"/>
        <pt x="431" y="61" on="1"/>
        <pt x="427" y="54" on="0"/>
        <pt x="413" y="34" on="0"/>
        <pt x="366" y="0" on="0"/>
        <pt x="339" y="0" on="1"/>
        <pt x="283" y="0" on="0"/>
        <pt x="264" y="56" on="1"/>
        <pt x="232" y="0" on="0"/>
        <pt x="108" y="0" on="0"/>
        <pt x="32" y="81" on="0"/>
        <pt x="32" y="140" on="1"/>
        <pt x="32" y="294" on="1"/>
        <pt x="32" y="393" on="0"/>
        <pt x="146" y="510" on="0"/>
        <pt x="229" y="510" on="1"/>
        <pt x="242" y="510" on="0"/>
        <pt x="257" y="507" on="1"/>
        <pt x="255" y="570" on="0"/>
        <pt x="239" y="635" on="1"/>
        <pt x="234" y="655" on="1"/>
        <pt x="238" y="660" on="0"/>
        <pt x="253" y="676" on="0"/>
        <pt x="303" y="703" on="0"/>
        <pt x="331" y="703" on="1"/>
        <pt x="410" y="703" on="0"/>
      </contour>
      <contour>
        <pt x="175" y="196" on="1"/>
        <pt x="175" y="157" on="0"/>
        <pt x="210" y="120" on="0"/>
        <pt x="257" y="117" on="1"/>
        <pt x="257" y="335" on="1"/>
        <pt x="254" y="362" on="0"/>
        <pt x="215" y="389" on="0"/>
        <pt x="175" y="397" on="1"/>
      </contour>
    </TTGlyph>
    <TTGlyph name="dagger" xMin="23" yMin="-1" xMax="428" yMax="696">
      <contour>
        <pt x="231" y="696" on="1"/>
        <pt x="281" y="696" on="0"/>
        <pt x="308" y="671" on="1"/>
        <pt x="308" y="555" on="0"/>
        <pt x="307" y="505" on="1"/>
        <pt x="329" y="506" on="0"/>
        <pt x="378" y="506" on="1"/>
        <pt x="409" y="490" on="0"/>
        <pt x="422" y="462" on="1"/>
        <pt x="428" y="451" on="0"/>
        <pt x="428" y="438" on="1"/>
        <pt x="428" y="398" on="0"/>
        <pt x="384" y="361" on="0"/>
        <pt x="335" y="361" on="1"/>
        <pt x="305" y="361" on="1"/>
        <pt x="301" y="59" on="0"/>
        <pt x="266" y="18" on="1"/>
        <pt x="249" y="-1" on="0"/>
        <pt x="212" y="-1" on="1"/>
        <pt x="179" y="-1" on="0"/>
        <pt x="165" y="12" on="1"/>
        <pt x="160" y="16" on="1"/>
        <pt x="147" y="138" on="0"/>
        <pt x="141" y="363" on="1"/>
        <pt x="53" y="365" on="1"/>
        <pt x="42" y="369" on="0"/>
        <pt x="23" y="404" on="0"/>
        <pt x="23" y="454" on="0"/>
        <pt x="71" y="486" on="0"/>
        <pt x="139" y="495" on="1"/>
        <pt x="139" y="590" on="1"/>
        <pt x="139" y="696" on="0"/>
      </contour>
    </TTGlyph>
    <TTGlyph name="daggerdbl" xMin="23" yMin="-1" xMax="427" yMax="696">
      <contour>
        <pt x="377" y="538" on="1"/>
        <pt x="427" y="513" on="0"/>
        <pt x="427" y="431" on="0"/>
        <pt x="383" y="394" on="0"/>
        <pt x="334" y="394" on="1"/>
        <pt x="306" y="394" on="1"/>
        <pt x="304" y="322" on="1"/>
        <pt x="360" y="322" on="1"/>
        <pt x="377" y="316" on="0"/>
        <pt x="410" y="275" on="0"/>
        <pt x="410" y="254" on="1"/>
        <pt x="410" y="213" on="0"/>
        <pt x="373" y="178" on="0"/>
        <pt x="325" y="178" on="1"/>
        <pt x="299" y="178" on="1"/>
        <pt x="288" y="30" on="0"/>
        <pt x="254" y="8" on="1"/>
        <pt x="240" y="-1" on="0"/>
        <pt x="218" y="-1" on="1"/>
        <pt x="177" y="-1" on="0"/>
        <pt x="164" y="12" on="1"/>
        <pt x="160" y="16" on="1"/>
        <pt x="154" y="73" on="0"/>
        <pt x="148" y="180" on="1"/>
        <pt x="69" y="182" on="1"/>
        <pt x="58" y="186" on="0"/>
        <pt x="39" y="222" on="0"/>
        <pt x="39" y="276" on="0"/>
        <pt x="75" y="307" on="0"/>
        <pt x="142" y="315" on="1"/>
        <pt x="140" y="395" on="1"/>
        <pt x="52" y="399" on="1"/>
        <pt x="41" y="403" on="0"/>
        <pt x="23" y="438" on="0"/>
        <pt x="23" y="488" on="0"/>
        <pt x="70" y="520" on="0"/>
        <pt x="138" y="529" on="1"/>
        <pt x="138" y="590" on="1"/>
        <pt x="138" y="696" on="0"/>
        <pt x="230" y="696" on="1"/>
        <pt x="280" y="696" on="0"/>
        <pt x="307" y="671" on="1"/>
        <pt x="307" y="537" on="1"/>
        <pt x="330" y="538" on="0"/>
      </contour>
    </TTGlyph>
    <TTGlyph name="degree" xMin="23" yMin="450" xMax="270" yMax="687">
      <contour>
        <pt x="270" y="511" on="0"/>
        <pt x="202" y="450" on="0"/>
        <pt x="88" y="450" on="0"/>
        <pt x="23" y="512" on="0"/>
        <pt x="23" y="624" on="0"/>
        <pt x="92" y="687" on="0"/>
        <pt x="204" y="687" on="0"/>
        <pt x="270" y="626" on="0"/>
      </contour>
      <contour>
        <pt x="103" y="541" on="0"/>
        <pt x="127" y="514" on="0"/>
        <pt x="165" y="514" on="0"/>
        <pt x="191" y="542" on="0"/>
        <pt x="191" y="593" on="0"/>
        <pt x="167" y="618" on="0"/>
        <pt x="130" y="618" on="0"/>
        <pt x="103" y="591" on="0"/>
      </contour>
    </TTGlyph>
    <TTGlyph name="dieresis" xMin="70" yMin="714" xMax="393" yMax="846">
      <contour>
        <pt x="218" y="835" on="0"/>
        <pt x="218" y="714" on="0"/>
        <pt x="70" y="714" on="0"/>
        <pt x="70" y="835" on="0"/>
      </contour>
      <contour>
        <pt x="319" y="846" on="1"/>
        <pt x="393" y="846" on="0"/>
        <pt x="393" y="725" on="0"/>
        <pt x="245" y="725" on="0"/>
        <pt x="245" y="785" on="1"/>
        <pt x="245" y="818" on="0"/>
        <pt x="282" y="846" on="0"/>
      </contour>
    </TTGlyph>
    <TTGlyph name="divide" xMin="23" yMin="0" xMax="426" yMax="536">
      <contour>
        <pt x="128" y="208" on="1"/>
        <pt x="70" y="208" on="0"/>
        <pt x="23" y="238" on="0"/>
        <pt x="23" y="279" on="1"/>
        <pt x="23" y="314" on="0"/>
        <pt x="43" y="342" on="1"/>
        <pt x="95" y="329" on="0"/>
        <pt x="284" y="329" on="1"/>
        <pt x="398" y="329" on="0"/>
        <pt x="418" y="298" on="1"/>
        <pt x="426" y="285" on="0"/>
        <pt x="426" y="268" on="1"/>
        <pt x="426" y="243" on="0"/>
        <pt x="420" y="229" on="1"/>
        <pt x="342" y="208" on="0"/>
      </contour>
      <contour>
        <pt x="319" y="77" on="1"/>
        <pt x="319" y="0" on="0"/>
        <pt x="127" y="0" on="0"/>
        <pt x="127" y="77" on="1"/>
        <pt x="127" y="156" on="0"/>
        <pt x="319" y="156" on="0"/>
      </contour>
      <contour>
        <pt x="127" y="536" on="0"/>
        <pt x="319" y="536" on="0"/>
        <pt x="319" y="381" on="0"/>
        <pt x="127" y="381" on="0"/>
      </contour>
    </TTGlyph>
    <TTGlyph name="dollar" xMin="8" yMin="-122" xMax="358" yMax="658">
      <contour>
        <pt x="223" y="5" on="1"/>
        <pt x="227" y="-25" on="0"/>
        <pt x="227" y="-55" on="1"/>
        <pt x="227" y="-122" on="0"/>
        <pt x="169" y="-122" on="1"/>
        <pt x="145" y="-122" on="0"/>
        <pt x="125" y="-102" on="1"/>
        <pt x="130" y="-59" on="0"/>
        <pt x="132" y="3" on="1"/>
        <pt x="71" y="13" on="0"/>
        <pt x="8" y="75" on="0"/>
        <pt x="8" y="133" on="0"/>
        <pt x="33" y="174" on="0"/>
        <pt x="46" y="181" on="1"/>
        <pt x="58" y="188" on="1"/>
        <pt x="64" y="179" on="0"/>
        <pt x="87" y="152" on="0"/>
        <pt x="155" y="108" on="0"/>
        <pt x="204" y="108" on="0"/>
        <pt x="223" y="123" on="0"/>
        <pt x="223" y="132" on="1"/>
        <pt x="223" y="149" on="0"/>
        <pt x="160" y="187" on="0"/>
        <pt x="86" y="220" on="0"/>
        <pt x="23" y="284" on="0"/>
        <pt x="23" y="366" on="0"/>
        <pt x="72" y="440" on="0"/>
        <pt x="105" y="455" on="1"/>
        <pt x="108" y="480" on="0"/>
        <pt x="134" y="501" on="1"/>
        <pt x="125" y="539" on="0"/>
        <pt x="125" y="621" on="0"/>
        <pt x="152" y="658" on="0"/>
        <pt x="183" y="658" on="1"/>
        <pt x="207" y="658" on="0"/>
        <pt x="227" y="638" on="1"/>
        <pt x="222" y="596" on="0"/>
        <pt x="218" y="534" on="1"/>
        <pt x="225" y="535" on="0"/>
        <pt x="236" y="535" on="1"/>
        <pt x="289" y="535" on="0"/>
        <pt x="355" y="485" on="0"/>
        <pt x="355" y="401" on="0"/>
        <pt x="331" y="363" on="0"/>
        <pt x="305" y="352" on="1"/>
        <pt x="261" y="401" on="0"/>
        <pt x="156" y="411" on="1"/>
        <pt x="156" y="402" on="1"/>
        <pt x="156" y="362" on="0"/>
        <pt x="228" y="330" on="1"/>
        <pt x="257" y="316" on="0"/>
        <pt x="316" y="283" on="0"/>
        <pt x="358" y="220" on="0"/>
        <pt x="358" y="175" on="1"/>
        <pt x="358" y="109" on="0"/>
        <pt x="282" y="18" on="0"/>
      </contour>
    </TTGlyph>
    <TTGlyph name="dotaccent" xMin="105" yMin="742" xMax="303" yMax="903">
      <contour>
        <pt x="303" y="821" on="1"/>
        <pt x="303" y="742" on="0"/>
        <pt x="105" y="742" on="0"/>
        <pt x="105" y="821" on="1"/>
        <pt x="105" y="903" on="0"/>
        <pt x="303" y="903" on="0"/>
      </contour>
    </TTGlyph>
    <TTGlyph name="dotlessi" xMin="32" yMin="0" xMax="207" yMax="534">
      <contour>
        <pt x="114" y="0" on="1"/>
        <pt x="32" y="0" on="0"/>
        <pt x="32" y="118" on="1"/>
        <pt x="32" y="418" on="0"/>
        <pt x="39" y="513" on="1"/>
        <pt x="60" y="534" on="0"/>
        <pt x="106" y="534" on="1"/>
        <pt x="185" y="534" on="0"/>
        <pt x="185" y="409" on="1"/>
        <pt x="185" y="112" on="1"/>
        <pt x="207" y="61" on="1"/>
        <pt x="203" y="54" on="0"/>
        <pt x="189" y="34" on="0"/>
        <pt x="141" y="0" on="0"/>
      </contour>
    </TTGlyph>
    <TTGlyph name="e" xMin="24" yMin="0" xMax="389" yMax="530">
      <contour>
        <pt x="374" y="143" on="1"/>
        <pt x="385" y="132" on="0"/>
        <pt x="385" y="96" on="0"/>
        <pt x="366" y="59" on="0"/>
        <pt x="329" y="24" on="0"/>
        <pt x="261" y="0" on="0"/>
        <pt x="180" y="0" on="0"/>
        <pt x="116" y="23" on="0"/>
        <pt x="87" y="48" on="1"/>
        <pt x="24" y="104" on="0"/>
        <pt x="24" y="358" on="0"/>
        <pt x="110" y="481" on="0"/>
        <pt x="165" y="487" on="1"/>
        <pt x="205" y="530" on="0"/>
        <pt x="318" y="530" on="0"/>
        <pt x="389" y="448" on="0"/>
        <pt x="389" y="377" on="1"/>
        <pt x="389" y="294" on="0"/>
        <pt x="328" y="246" on="1"/>
        <pt x="278" y="206" on="0"/>
        <pt x="208" y="185" on="1"/>
        <pt x="243" y="139" on="0"/>
        <pt x="324" y="139" on="1"/>
        <pt x="347" y="139" on="0"/>
      </contour>
      <contour>
        <pt x="250" y="328" on="1"/>
        <pt x="250" y="389" on="0"/>
        <pt x="175" y="395" on="1"/>
        <pt x="175" y="305" on="1"/>
        <pt x="175" y="260" on="0"/>
        <pt x="183" y="233" on="1"/>
        <pt x="250" y="270" on="0"/>
      </contour>
    </TTGlyph>
    <TTGlyph name="eacute" xMin="24" yMin="0" xMax="389" yMax="714">
      <contour>
        <pt x="374" y="143" on="1"/>
        <pt x="385" y="132" on="0"/>
        <pt x="385" y="96" on="0"/>
        <pt x="366" y="59" on="0"/>
        <pt x="329" y="24" on="0"/>
        <pt x="261" y="0" on="0"/>
        <pt x="180" y="0" on="0"/>
        <pt x="116" y="23" on="0"/>
        <pt x="87" y="48" on="1"/>
        <pt x="24" y="104" on="0"/>
        <pt x="24" y="358" on="0"/>
        <pt x="110" y="481" on="0"/>
        <pt x="165" y="487" on="1"/>
        <pt x="205" y="530" on="0"/>
        <pt x="318" y="530" on="0"/>
        <pt x="389" y="448" on="0"/>
        <pt x="389" y="377" on="1"/>
        <pt x="389" y="294" on="0"/>
        <pt x="328" y="246" on="1"/>
        <pt x="278" y="206" on="0"/>
        <pt x="208" y="185" on="1"/>
        <pt x="243" y="139" on="0"/>
        <pt x="324" y="139" on="1"/>
        <pt x="347" y="139" on="0"/>
      </contour>
      <contour>
        <pt x="250" y="328" on="1"/>
        <pt x="250" y="389" on="0"/>
        <pt x="175" y="395" on="1"/>
        <pt x="175" y="305" on="1"/>
        <pt x="175" y="260" on="0"/>
        <pt x="183" y="233" on="1"/>
        <pt x="250" y="270" on="0"/>
      </contour>
      <contour>
        <pt x="114" y="528" on="1"/>
        <pt x="98" y="548" on="0"/>
        <pt x="98" y="607" on="0"/>
        <pt x="204" y="677" on="0"/>
        <pt x="256" y="696" on="1"/>
        <pt x="309" y="714" on="1"/>
        <pt x="313" y="711" on="0"/>
        <pt x="325" y="701" on="0"/>
        <pt x="346" y="664" on="0"/>
        <pt x="346" y="643" on="1"/>
        <pt x="346" y="608" on="0"/>
        <pt x="230" y="551" on="0"/>
        <pt x="172" y="540" on="1"/>
      </contour>
    </TTGlyph>
    <TTGlyph name="ecircumflex" xMin="24" yMin="0" xMax="389" yMax="677">
      <contour>
        <pt x="374" y="143" on="1"/>
        <pt x="385" y="132" on="0"/>
        <pt x="385" y="96" on="0"/>
        <pt x="366" y="59" on="0"/>
        <pt x="329" y="24" on="0"/>
        <pt x="261" y="0" on="0"/>
        <pt x="180" y="0" on="0"/>
        <pt x="116" y="23" on="0"/>
        <pt x="87" y="48" on="1"/>
        <pt x="24" y="104" on="0"/>
        <pt x="24" y="358" on="0"/>
        <pt x="110" y="481" on="0"/>
        <pt x="165" y="487" on="1"/>
        <pt x="205" y="530" on="0"/>
        <pt x="318" y="530" on="0"/>
        <pt x="389" y="448" on="0"/>
        <pt x="389" y="377" on="1"/>
        <pt x="389" y="294" on="0"/>
        <pt x="328" y="246" on="1"/>
        <pt x="278" y="206" on="0"/>
        <pt x="208" y="185" on="1"/>
        <pt x="243" y="139" on="0"/>
        <pt x="324" y="139" on="1"/>
        <pt x="347" y="139" on="0"/>
      </contour>
      <contour>
        <pt x="250" y="328" on="1"/>
        <pt x="250" y="389" on="0"/>
        <pt x="175" y="395" on="1"/>
        <pt x="175" y="305" on="1"/>
        <pt x="175" y="260" on="0"/>
        <pt x="183" y="233" on="1"/>
        <pt x="250" y="270" on="0"/>
      </contour>
      <contour>
        <pt x="75" y="594" on="1"/>
        <pt x="75" y="611" on="0"/>
        <pt x="172" y="677" on="0"/>
        <pt x="212" y="677" on="1"/>
        <pt x="234" y="677" on="0"/>
        <pt x="302" y="644" on="0"/>
        <pt x="326" y="627" on="1"/>
        <pt x="349" y="610" on="1"/>
        <pt x="349" y="592" on="0"/>
        <pt x="344" y="568" on="0"/>
        <pt x="320" y="547" on="0"/>
        <pt x="276" y="547" on="0"/>
        <pt x="232" y="578" on="0"/>
        <pt x="220" y="594" on="1"/>
        <pt x="209" y="610" on="1"/>
        <pt x="130" y="547" on="1"/>
        <pt x="75" y="547" on="0"/>
      </contour>
    </TTGlyph>
    <TTGlyph name="edieresis" xMin="24" yMin="0" xMax="389" yMax="667">
      <contour>
        <pt x="374" y="143" on="1"/>
        <pt x="385" y="132" on="0"/>
        <pt x="385" y="96" on="0"/>
        <pt x="366" y="59" on="0"/>
        <pt x="329" y="24" on="0"/>
        <pt x="261" y="0" on="0"/>
        <pt x="180" y="0" on="0"/>
        <pt x="116" y="23" on="0"/>
        <pt x="87" y="48" on="1"/>
        <pt x="24" y="104" on="0"/>
        <pt x="24" y="358" on="0"/>
        <pt x="110" y="481" on="0"/>
        <pt x="165" y="487" on="1"/>
        <pt x="205" y="530" on="0"/>
        <pt x="318" y="530" on="0"/>
        <pt x="389" y="448" on="0"/>
        <pt x="389" y="377" on="1"/>
        <pt x="389" y="294" on="0"/>
        <pt x="328" y="246" on="1"/>
        <pt x="278" y="206" on="0"/>
        <pt x="208" y="185" on="1"/>
        <pt x="243" y="139" on="0"/>
        <pt x="324" y="139" on="1"/>
        <pt x="347" y="139" on="0"/>
      </contour>
      <contour>
        <pt x="250" y="328" on="1"/>
        <pt x="250" y="389" on="0"/>
        <pt x="175" y="395" on="1"/>
        <pt x="175" y="305" on="1"/>
        <pt x="175" y="260" on="0"/>
        <pt x="183" y="233" on="1"/>
        <pt x="250" y="270" on="0"/>
      </contour>
      <contour>
        <pt x="201" y="656" on="0"/>
        <pt x="201" y="535" on="0"/>
        <pt x="53" y="535" on="0"/>
        <pt x="53" y="656" on="0"/>
      </contour>
      <contour>
        <pt x="302" y="667" on="1"/>
        <pt x="376" y="667" on="0"/>
        <pt x="376" y="546" on="0"/>
        <pt x="228" y="546" on="0"/>
        <pt x="228" y="606" on="1"/>
        <pt x="228" y="639" on="0"/>
        <pt x="265" y="667" on="0"/>
      </contour>
    </TTGlyph>
    <TTGlyph name="egrave" xMin="24" yMin="0" xMax="389" yMax="724">
      <contour>
        <pt x="374" y="143" on="1"/>
        <pt x="385" y="132" on="0"/>
        <pt x="385" y="96" on="0"/>
        <pt x="366" y="59" on="0"/>
        <pt x="329" y="24" on="0"/>
        <pt x="261" y="0" on="0"/>
        <pt x="180" y="0" on="0"/>
        <pt x="116" y="23" on="0"/>
        <pt x="87" y="48" on="1"/>
        <pt x="24" y="104" on="0"/>
        <pt x="24" y="358" on="0"/>
        <pt x="110" y="481" on="0"/>
        <pt x="165" y="487" on="1"/>
        <pt x="205" y="530" on="0"/>
        <pt x="318" y="530" on="0"/>
        <pt x="389" y="448" on="0"/>
        <pt x="389" y="377" on="1"/>
        <pt x="389" y="294" on="0"/>
        <pt x="328" y="246" on="1"/>
        <pt x="278" y="206" on="0"/>
        <pt x="208" y="185" on="1"/>
        <pt x="243" y="139" on="0"/>
        <pt x="324" y="139" on="1"/>
        <pt x="347" y="139" on="0"/>
      </contour>
      <contour>
        <pt x="250" y="328" on="1"/>
        <pt x="250" y="389" on="0"/>
        <pt x="175" y="395" on="1"/>
        <pt x="175" y="305" on="1"/>
        <pt x="175" y="260" on="0"/>
        <pt x="183" y="233" on="1"/>
        <pt x="250" y="270" on="0"/>
      </contour>
      <contour>
        <pt x="133" y="591" on="0"/>
        <pt x="83" y="631" on="0"/>
        <pt x="83" y="674" on="0"/>
        <pt x="102" y="710" on="0"/>
        <pt x="111" y="717" on="1"/>
        <pt x="120" y="724" on="1"/>
        <pt x="129" y="721" on="0"/>
        <pt x="157" y="712" on="0"/>
        <pt x="230" y="681" on="0"/>
        <pt x="285" y="650" on="0"/>
        <pt x="331" y="605" on="0"/>
        <pt x="331" y="589" on="1"/>
        <pt x="331" y="562" on="0"/>
        <pt x="315" y="538" on="1"/>
        <pt x="306" y="540" on="0"/>
        <pt x="274" y="545" on="0"/>
        <pt x="194" y="567" on="0"/>
      </contour>
    </TTGlyph>
    <TTGlyph name="eight" xMin="18" yMin="0" xMax="372" yMax="596">
      <contour>
        <pt x="372" y="430" on="1"/>
        <pt x="372" y="383" on="0"/>
        <pt x="335" y="297" on="0"/>
        <pt x="307" y="277" on="1"/>
        <pt x="371" y="231" on="0"/>
        <pt x="371" y="146" on="1"/>
        <pt x="371" y="82" on="0"/>
        <pt x="282" y="0" on="0"/>
        <pt x="107" y="0" on="0"/>
        <pt x="24" y="83" on="0"/>
        <pt x="24" y="143" on="1"/>
        <pt x="24" y="229" on="0"/>
        <pt x="95" y="278" on="1"/>
        <pt x="18" y="335" on="0"/>
        <pt x="18" y="427" on="1"/>
        <pt x="18" y="505" on="0"/>
        <pt x="108" y="596" on="0"/>
        <pt x="281" y="596" on="0"/>
        <pt x="372" y="501" on="0"/>
      </contour>
      <contour>
        <pt x="231" y="154" on="1"/>
        <pt x="231" y="178" on="0"/>
        <pt x="202" y="214" on="0"/>
        <pt x="172" y="238" on="1"/>
        <pt x="146" y="196" on="0"/>
        <pt x="146" y="157" on="1"/>
        <pt x="146" y="100" on="0"/>
        <pt x="190" y="100" on="1"/>
        <pt x="231" y="100" on="0"/>
      </contour>
      <contour>
        <pt x="194" y="446" on="1"/>
        <pt x="158" y="446" on="0"/>
        <pt x="158" y="335" on="0"/>
        <pt x="216" y="288" on="1"/>
        <pt x="233" y="334" on="0"/>
        <pt x="233" y="446" on="0"/>
      </contour>
    </TTGlyph>
    <TTGlyph name="ellipsis" xMin="23" yMin="-1" xMax="692" yMax="155">
      <contour>
        <pt x="215" y="76" on="1"/>
        <pt x="215" y="-1" on="0"/>
        <pt x="23" y="-1" on="0"/>
        <pt x="23" y="76" on="1"/>
        <pt x="23" y="155" on="0"/>
        <pt x="215" y="155" on="0"/>
      </contour>
      <contour>
        <pt x="454" y="76" on="1"/>
        <pt x="454" y="-1" on="0"/>
        <pt x="262" y="-1" on="0"/>
        <pt x="262" y="76" on="1"/>
        <pt x="262" y="155" on="0"/>
        <pt x="454" y="155" on="0"/>
      </contour>
      <contour>
        <pt x="692" y="76" on="1"/>
        <pt x="692" y="-1" on="0"/>
        <pt x="500" y="-1" on="0"/>
        <pt x="500" y="76" on="1"/>
        <pt x="500" y="155" on="0"/>
        <pt x="692" y="155" on="0"/>
      </contour>
    </TTGlyph>
    <TTGlyph name="emdash" xMin="23" yMin="203" xMax="503" yMax="332">
      <contour>
        <pt x="78" y="204" on="1"/>
        <pt x="52" y="204" on="0"/>
        <pt x="23" y="239" on="0"/>
        <pt x="23" y="304" on="0"/>
        <pt x="43" y="332" on="1"/>
        <pt x="448" y="332" on="1"/>
        <pt x="503" y="332" on="0"/>
        <pt x="503" y="266" on="1"/>
        <pt x="503" y="234" on="0"/>
        <pt x="491" y="220" on="1"/>
        <pt x="159" y="204" on="0"/>
        <pt x="81" y="204" on="0"/>
      </contour>
    </TTGlyph>
    <TTGlyph name="endash" xMin="23" yMin="203" xMax="400" yMax="332">
      <contour>
        <pt x="78" y="204" on="1"/>
        <pt x="52" y="204" on="0"/>
        <pt x="23" y="239" on="0"/>
        <pt x="23" y="304" on="0"/>
        <pt x="43" y="332" on="1"/>
        <pt x="344" y="332" on="1"/>
        <pt x="400" y="332" on="0"/>
        <pt x="400" y="266" on="1"/>
        <pt x="400" y="233" on="0"/>
        <pt x="387" y="220" on="1"/>
        <pt x="159" y="204" on="0"/>
        <pt x="81" y="204" on="0"/>
      </contour>
    </TTGlyph>
    <TTGlyph name="equal" xMin="23" yMin="100" xMax="426" yMax="427">
      <contour>
        <pt x="198" y="267" on="1"/>
        <pt x="97" y="267" on="0"/>
        <pt x="25" y="305" on="0"/>
        <pt x="25" y="349" on="1"/>
        <pt x="25" y="373" on="0"/>
        <pt x="40" y="412" on="0"/>
        <pt x="48" y="420" on="1"/>
        <pt x="56" y="427" on="1"/>
        <pt x="156" y="409" on="0"/>
        <pt x="344" y="409" on="1"/>
        <pt x="386" y="409" on="0"/>
        <pt x="421" y="373" on="0"/>
        <pt x="421" y="336" on="1"/>
        <pt x="421" y="308" on="0"/>
        <pt x="412" y="277" on="1"/>
        <pt x="363" y="267" on="0"/>
      </contour>
      <contour>
        <pt x="128" y="100" on="1"/>
        <pt x="69" y="100" on="0"/>
        <pt x="23" y="129" on="0"/>
        <pt x="23" y="171" on="1"/>
        <pt x="23" y="206" on="0"/>
        <pt x="43" y="234" on="1"/>
        <pt x="95" y="220" on="0"/>
        <pt x="284" y="220" on="1"/>
        <pt x="398" y="220" on="0"/>
        <pt x="418" y="190" on="1"/>
        <pt x="426" y="177" on="0"/>
        <pt x="426" y="160" on="1"/>
        <pt x="426" y="135" on="0"/>
        <pt x="420" y="121" on="1"/>
        <pt x="342" y="100" on="0"/>
      </contour>
    </TTGlyph>
    <TTGlyph name="eth" xMin="23" yMin="-8" xMax="430" yMax="621">
      <contour>
        <pt x="355" y="619" on="1"/>
        <pt x="358" y="621" on="0"/>
        <pt x="364" y="621" on="0"/>
        <pt x="376" y="610" on="0"/>
        <pt x="376" y="587" on="0"/>
        <pt x="337" y="562" on="1"/>
        <pt x="430" y="467" on="0"/>
        <pt x="430" y="262" on="1"/>
        <pt x="430" y="153" on="0"/>
        <pt x="392" y="78" on="1"/>
        <pt x="371" y="38" on="0"/>
        <pt x="292" y="-8" on="0"/>
        <pt x="237" y="-8" on="1"/>
        <pt x="136" y="-8" on="0"/>
        <pt x="23" y="102" on="0"/>
        <pt x="23" y="321" on="0"/>
        <pt x="127" y="432" on="0"/>
        <pt x="216" y="437" on="1"/>
        <pt x="211" y="448" on="0"/>
        <pt x="189" y="479" on="1"/>
        <pt x="130" y="449" on="1"/>
        <pt x="122" y="449" on="0"/>
        <pt x="109" y="461" on="0"/>
        <pt x="109" y="470" on="1"/>
        <pt x="109" y="482" on="0"/>
        <pt x="159" y="514" on="1"/>
        <pt x="122" y="545" on="1"/>
        <pt x="119" y="553" on="0"/>
        <pt x="124" y="584" on="0"/>
        <pt x="138" y="604" on="0"/>
        <pt x="177" y="620" on="0"/>
        <pt x="206" y="620" on="1"/>
        <pt x="256" y="620" on="0"/>
        <pt x="300" y="591" on="1"/>
      </contour>
      <contour>
        <pt x="255" y="118" on="0"/>
        <pt x="264" y="183" on="0"/>
        <pt x="264" y="289" on="0"/>
        <pt x="257" y="323" on="1"/>
        <pt x="223" y="321" on="0"/>
        <pt x="183" y="254" on="0"/>
        <pt x="183" y="193" on="1"/>
        <pt x="183" y="99" on="0"/>
        <pt x="225" y="99" on="1"/>
        <pt x="239" y="99" on="0"/>
      </contour>
    </TTGlyph>
    <TTGlyph name="exclam" xMin="35" yMin="0" xMax="202" yMax="662">
      <contour>
        <pt x="123" y="662" on="1"/>
        <pt x="202" y="662" on="0"/>
        <pt x="202" y="583" on="1"/>
        <pt x="202" y="535" on="0"/>
        <pt x="174" y="296" on="1"/>
        <pt x="164" y="217" on="1"/>
        <pt x="143" y="209" on="0"/>
        <pt x="127" y="209" on="1"/>
        <pt x="96" y="209" on="0"/>
        <pt x="76" y="260" on="0"/>
        <pt x="70" y="328" on="1"/>
        <pt x="35" y="619" on="1"/>
        <pt x="44" y="635" on="0"/>
        <pt x="97" y="662" on="0"/>
      </contour>
      <contour>
        <pt x="183" y="124" on="0"/>
        <pt x="198" y="92" on="0"/>
        <pt x="198" y="54" on="0"/>
        <pt x="170" y="17" on="0"/>
        <pt x="156" y="8" on="1"/>
        <pt x="141" y="0" on="1"/>
        <pt x="78" y="16" on="0"/>
        <pt x="51" y="54" on="1"/>
        <pt x="40" y="69" on="0"/>
        <pt x="40" y="86" on="1"/>
        <pt x="40" y="147" on="0"/>
        <pt x="129" y="166" on="1"/>
        <pt x="136" y="164" on="0"/>
        <pt x="165" y="143" on="0"/>
      </contour>
    </TTGlyph>
    <TTGlyph name="exclamdown" xMin="10" yMin="-113" xMax="306" yMax="549">
      <contour>
        <pt x="289" y="59" on="1"/>
        <pt x="306" y="42" on="0"/>
        <pt x="306" y="-3" on="0"/>
        <pt x="296" y="-41" on="0"/>
        <pt x="264" y="-84" on="0"/>
        <pt x="199" y="-113" on="0"/>
        <pt x="154" y="-113" on="1"/>
        <pt x="10" y="-113" on="0"/>
        <pt x="10" y="28" on="1"/>
        <pt x="10" y="71" on="0"/>
        <pt x="49" y="155" on="0"/>
        <pt x="95" y="212" on="0"/>
        <pt x="134" y="291" on="0"/>
        <pt x="134" y="330" on="1"/>
        <pt x="143" y="331" on="0"/>
        <pt x="176" y="331" on="0"/>
        <pt x="212" y="313" on="0"/>
        <pt x="219" y="283" on="0"/>
        <pt x="219" y="260" on="0"/>
        <pt x="216" y="224" on="0"/>
        <pt x="208" y="199" on="1"/>
        <pt x="188" y="131" on="0"/>
        <pt x="188" y="96" on="1"/>
        <pt x="188" y="43" on="0"/>
        <pt x="230" y="43" on="1"/>
        <pt x="253" y="43" on="0"/>
      </contour>
      <contour>
        <pt x="99" y="425" on="0"/>
        <pt x="84" y="457" on="0"/>
        <pt x="84" y="495" on="0"/>
        <pt x="112" y="532" on="0"/>
        <pt x="126" y="540" on="1"/>
        <pt x="141" y="549" on="1"/>
        <pt x="204" y="533" on="0"/>
        <pt x="231" y="496" on="1"/>
        <pt x="242" y="480" on="0"/>
        <pt x="242" y="463" on="1"/>
        <pt x="242" y="402" on="0"/>
        <pt x="153" y="383" on="1"/>
        <pt x="146" y="385" on="0"/>
        <pt x="117" y="406" on="0"/>
      </contour>
    </TTGlyph>
    <TTGlyph name="f" xMin="10" yMin="-65" xMax="349" yMax="713">
      <contour>
        <pt x="328" y="408" on="1"/>
        <pt x="334" y="378" on="0"/>
        <pt x="334" y="338" on="0"/>
        <pt x="328" y="310" on="0"/>
        <pt x="304" y="283" on="0"/>
        <pt x="256" y="283" on="0"/>
        <pt x="219" y="286" on="1"/>
        <pt x="220" y="234" on="0"/>
        <pt x="220" y="18" on="0"/>
        <pt x="165" y="-65" on="0"/>
        <pt x="109" y="-65" on="1"/>
        <pt x="76" y="-65" on="0"/>
        <pt x="35" y="-40" on="0"/>
        <pt x="30" y="-28" on="1"/>
        <pt x="26" y="-15" on="1"/>
        <pt x="42" y="1" on="0"/>
        <pt x="69" y="63" on="0"/>
        <pt x="69" y="90" on="1"/>
        <pt x="69" y="199" on="0"/>
        <pt x="64" y="306" on="1"/>
        <pt x="55" y="307" on="0"/>
        <pt x="32" y="309" on="0"/>
        <pt x="17" y="311" on="0"/>
        <pt x="12" y="311" on="1"/>
        <pt x="10" y="316" on="0"/>
        <pt x="10" y="323" on="1"/>
        <pt x="10" y="389" on="0"/>
        <pt x="57" y="411" on="1"/>
        <pt x="51" y="527" on="0"/>
        <pt x="51" y="530" on="1"/>
        <pt x="51" y="597" on="0"/>
        <pt x="152" y="713" on="0"/>
        <pt x="229" y="713" on="1"/>
        <pt x="349" y="713" on="0"/>
        <pt x="349" y="622" on="1"/>
        <pt x="349" y="592" on="0"/>
        <pt x="336" y="552" on="1"/>
        <pt x="217" y="595" on="0"/>
        <pt x="217" y="553" on="1"/>
        <pt x="218" y="417" on="1"/>
        <pt x="301" y="408" on="0"/>
      </contour>
    </TTGlyph>
</ttFont>
